SplineFontDB: 3.0
FontName: Muli-SemiBold
FullName: Muli SemiBold
FamilyName: Muli
Weight: SemiBold
Copyright: Digitized data Copyright (c) 2011-2014, vernon adams.
Version: 2
ItalicAngle: 0
UnderlinePosition: 0
UnderlineWidth: 0
Ascent: 1638
Descent: 410
sfntRevision: 0x00000000
UFOAscent: 1560
UFODescent: -556
LayerCount: 2
Layer: 0 0 "Back"  1
Layer: 1 0 "Fore"  0
FSType: 0
OS2Version: 0
OS2_WeightWidthSlopeOnly: 0
OS2_UseTypoMetrics: 1
CreationTime: 1391649518
ModificationTime: 1391665254
PfmFamily: 17
TTFWeight: 600
TTFWidth: 5
LineGap: 0
VLineGap: 0
OS2TypoAscent: 2364
OS2TypoAOffset: 0
OS2TypoDescent: -582
OS2TypoDOffset: 0
OS2TypoLinegap: 0
OS2WinAscent: 2364
OS2WinAOffset: 0
OS2WinDescent: 582
OS2WinDOffset: 0
HheadAscent: 2364
HheadAOffset: 0
HheadDescent: -582
HheadDOffset: 0
OS2Vendor: 'NeWT'
Lookup: 258 0 0 "'kern' Horizontal Kerning in Latin lookup 0"  {"'kern' Horizontal Kerning in Latin lookup 0 subtable"  } ['kern' ('latn' <'dflt' > ) ]
MarkAttachClasses: 1
DEI: 91125
LangName: 1033 "" "" "" "" "" "Version 2" "" "Muli is a trademark of Vernon Adams and may be registered in certain jurisdictions." "newtypography" "Vernon Adams" "" "newtypography.co.uk" "newtypography.co.uk" "Copyright (c) 2014, vernon adams.+AAoACgAA-This Font Software is licensed under the SIL Open Font License, Version 1.1.+AAoA-This license is available with a FAQ at:+AAoA-http://scripts.sil.org/OFL+AAoA" "http://scripts.sil.org/OFL" "" "Muli" "Bold" 
PickledData: "(dp1
S'com.typemytype.robofont.foreground.layerStrokeColor'
p2
(F0.5
F0
F0.5
F0.69999999999999996
tp3
sS'com.schriftgestaltung.fontMasterID'
p4
S'CAA31E91-2985-420A-82BA-6B4D8404D924'
p5
sS'GSDimensionPlugin.Dimensions'
p6
(dp7
S'CAA31E91-2985-420A-82BA-6B4D8404D924'
p8
(dp9
ssS'com.superpolator.editor.generateInfo'
p10
S'Generated with LTR Superpolator version 120823_1018_beta_'
p11
sS'com.typemytype.robofont.b.layerStrokeColor'
p12
(F1
F0.75
F0
F0.69999999999999996
tp13
sS'com.schriftgestaltung.useNiceNames'
p14
I01

StartChar: A
Encoding: 65 65 0
Width: 1434
VWidth: 0
Flags: HW
PickledData: "(dp1
S'org.robofab.postScriptHintData'
p2
(dp3
sS'com.typemytype.robofont.layerData'
p4
(dp5
s."
AnchorPoint: "top" 720 1456 basechar 0
LayerCount: 2
Fore
SplineSet
486 576 m 1
 932 576 l 1
 859 784 785 992 711 1199 c 1
 636 991 561 783 486 576 c 1
18 0 m 1
 597 1456 l 1
 833 1456 l 1
 1417 0 l 1
 1160 0 l 1
 1013 373 l 1
 413 373 l 1
 269 0 l 1
 18 0 l 1
EndSplineSet
EndChar

StartChar: AE
Encoding: 198 198 1
Width: 2157
VWidth: 0
Flags: HW
PickledData: "(dp1
S'org.robofab.postScriptHintData'
p2
(dp3
sS'com.typemytype.robofont.layerData'
p4
(dp5
S'b'
(dp6
S'name'
p7
S'AE'
p8
sS'lib'
p9
(dp10
sS'unicodes'
p11
(tsS'width'
p12
F2073.5500000000002
sS'contours'
p13
(tsS'components'
p14
(tsS'anchors'
p15
(tsss."
AnchorPoint: "top" 1344 1456 basechar 0
LayerCount: 2
Fore
SplineSet
602 554 m 1
 1089 554 l 1
 1038 1254 l 1
 1000 1254 l 1
 602 554 l 1
21 0 m 1
 876 1456 l 1
 1938 1456 l 1
 1938 1254 l 1
 1269 1254 l 1
 1305 844 l 1
 1924 844 l 1
 1924 648 l 1
 1329 648 l 1
 1370 202 l 1
 1964 202 l 1
 1964 0 l 1
 1136 0 l 1
 1105 373 l 1
 511 373 l 1
 299 0 l 1
 21 0 l 1
EndSplineSet
EndChar

StartChar: B
Encoding: 66 66 18
Width: 1361
VWidth: 0
Flags: HW
PickledData: "(dp1
S'org.robofab.postScriptHintData'
p2
(dp3
sS'com.typemytype.robofont.layerData'
p4
(dp5
S'b'
(dp6
S'name'
p7
S'B'
sS'lib'
p8
(dp9
sS'unicodes'
p10
(tsS'width'
p11
F1346.45
sS'contours'
p12
(tsS'components'
p13
(tsS'anchors'
p14
(tsss."
AnchorPoint: "top" 649 1456 basechar 0
LayerCount: 2
Fore
SplineSet
424 852 m 1
 647 852 l 2
 793 852 937 896 937 1063 c 0
 937 1227 811 1260 608 1260 c 2
 424 1260 l 1
 424 852 l 1
425 197 m 1
 678 197 l 2
 888 197 1003 276 1003 426 c 0
 1003 609 908 662 662 662 c 2
 425 662 l 1
 425 197 l 1
194 0 m 1
 194 1456 l 1
 583 1456 l 2
 840 1456 1181 1429 1181 1093 c 0
 1181 957 1118 838 966 778 c 1
 1153 736 1248 596 1248 417 c 0
 1248 197 1078 0 719 0 c 2
 194 0 l 1
EndSplineSet
EndChar

StartChar: C
Encoding: 67 67 20
Width: 1416
VWidth: 0
Flags: HW
PickledData: "(dp1
S'org.robofab.postScriptHintData'
p2
(dp3
sS'com.typemytype.robofont.guides'
p4
(tsS'com.typemytype.robofont.layerData'
p5
(dp6
S'b'
(dp7
S'name'
p8
S'C'
sS'lib'
p9
(dp10
sS'unicodes'
p11
(tsS'width'
p12
F1394.1500000000001
sS'contours'
p13
((dp14
S'points'
p15
((dp16
S'segmentType'
p17
S'curve'
p18
sS'x'
F785
sS'smooth'
p19
I01
sS'y'
F-23
s(dp20
S'y'
F-23
sS'x'
F346
sg19
I00
s(dp21
S'y'
F309
sS'x'
F108
sg19
I00
s(dp22
g17
S'curve'
p23
sS'x'
F108
sg19
I01
sS'y'
F713
s(dp24
S'y'
F1125
sS'x'
F108
sg19
I00
s(dp25
S'y'
F1483
sS'x'
F371
sg19
I00
s(dp26
g17
S'curve'
p27
sS'x'
F814
sg19
I01
sS'y'
F1483
s(dp28
S'y'
F1483
sS'x'
F995
sg19
I00
s(dp29
S'y'
F1437
sS'x'
F1144
sg19
I00
s(dp30
g17
S'curve'
p31
sS'x'
F1265
sg19
I00
sS'y'
F1329
s(dp32
g17
S'line'
p33
sS'x'
F1200
sg19
I00
sS'y'
F1219
s(dp34
S'y'
F1295
sS'x'
F1099
sg19
I00
s(dp35
S'y'
F1334
sS'x'
F969
sg19
I00
s(dp36
g17
S'curve'
p37
sS'x'
F833
sg19
I01
sS'y'
F1334
s(dp38
S'y'
F1334
sS'x'
F464
sg19
I00
s(dp39
S'y'
F1022
sS'x'
F291
sg19
I00
s(dp40
g17
S'curve'
p41
sS'x'
F291
sg19
I01
sS'y'
F712
s(dp42
S'y'
F398
sS'x'
F291
sg19
I00
s(dp43
S'y'
F125
sS'x'
F453
sg19
I00
s(dp44
g17
S'curve'
p45
sS'x'
F811
sg19
I01
sS'y'
F125
s(dp46
S'y'
F125
sS'x'
F974
sg19
I00
s(dp47
S'y'
F172
sS'x'
F1134
sg19
I00
s(dp48
g17
S'curve'
p49
sS'x'
F1243
sg19
I00
sS'y'
F268
s(dp50
g17
S'line'
p51
sS'x'
F1301
sg19
I00
sS'y'
F127
s(dp52
S'y'
F28
sS'x'
F1178
sg19
I00
s(dp53
S'y'
F-23
sS'x'
F996
sg19
I00
stp54
stp55
sS'components'
p56
(tsS'anchors'
p57
(tsss."
AnchorPoint: "bot" 821 0 basechar 0
AnchorPoint: "top" 824 1456 basechar 0
LayerCount: 2
Fore
SplineSet
831 -22 m 0
 456 -22 106 233 106 723 c 0
 106 1204 441 1483 815 1483 c 0
 985 1483 1146 1444 1291 1328 c 1
 1200 1169 l 1
 1074 1259 954 1286 834 1286 c 0
 554 1286 348 1052 348 726 c 0
 348 384 561 175 844 175 c 0
 976 175 1113 216 1250 322 c 1
 1327 139 l 1
 1176 23 1005 -22 831 -22 c 0
EndSplineSet
EndChar

StartChar: D
Encoding: 68 68 27
Width: 1555
VWidth: 0
Flags: HW
PickledData: "(dp1
S'org.robofab.postScriptHintData'
p2
(dp3
sS'com.typemytype.robofont.layerData'
p4
(dp5
S'b'
(dp6
S'name'
p7
S'D'
sS'lib'
p8
(dp9
sS'unicodes'
p10
(tsS'width'
p11
F1526.5999999999999
sS'contours'
p12
(tsS'components'
p13
(tsS'anchors'
p14
(tsss."
AnchorPoint: "top" 712 1456 basechar 0
LayerCount: 2
Fore
SplineSet
194 0 m 1
 194 1456 l 1
 570 1456 l 2
 1142 1456 1449 1219 1449 733 c 0
 1449 263 1162 0 631 0 c 2
 194 0 l 1
424 196 m 1
 644 196 l 2
 1015 196 1206 392 1206 734 c 0
 1206 1086 1012 1260 593 1260 c 2
 424 1260 l 1
 424 196 l 1
EndSplineSet
EndChar

StartChar: DEL
Encoding: 127 127 28
Width: 1521
VWidth: 0
Flags: HW
PickledData: "(dp1
S'org.robofab.postScriptHintData'
p2
(dp3
s."
LayerCount: 2
Fore
SplineSet
188 0 m 1
 188 1456 l 1
 1333 1456 l 1
 1333 0 l 1
 188 0 l 1
360 124 m 1
 1161 124 l 1
 1161 1330 l 1
 360 1330 l 1
 360 124 l 1
EndSplineSet
EndChar

StartChar: Delta
Encoding: 916 916 32
Width: 1390
VWidth: 0
Flags: HW
PickledData: "(dp1
S'org.robofab.postScriptHintData'
p2
(dp3
s."
LayerCount: 2
Fore
SplineSet
300 183 m 1
 1064 183 l 1
 682 1195 l 1
 300 183 l 1
61 0 m 1
 61 147 l 1
 589 1456 l 1
 810 1456 l 1
 1328 154 l 1
 1328 0 l 1
 61 0 l 1
EndSplineSet
EndChar

StartChar: E
Encoding: 69 69 35
Width: 1221
VWidth: 0
Flags: HW
PickledData: "(dp1
S'org.robofab.postScriptHintData'
p2
(dp3
sS'com.typemytype.robofont.layerData'
p4
(dp5
s."
AnchorPoint: "bot" 658 0 basechar 0
AnchorPoint: "top" 659 1456 basechar 0
LayerCount: 2
Fore
SplineSet
194 0 m 1
 194 1456 l 1
 1095 1456 l 1
 1095 1260 l 1
 424 1260 l 1
 424 849 l 1
 1057 849 l 1
 1057 652 l 1
 425 652 l 1
 425 196 l 1
 1124 196 l 1
 1124 0 l 1
 194 0 l 1
EndSplineSet
EndChar

StartChar: Eng
Encoding: 330 330 46
Width: 1602
VWidth: 0
Flags: HW
PickledData: "(dp1
S'org.robofab.postScriptHintData'
p2
(dp3
sS'com.typemytype.robofont.layerData'
p4
(dp5
s."
LayerCount: 2
Fore
SplineSet
1410 1456 m 1
 1410 41 l 2
 1410 -301 1226 -454 900 -454 c 5
 900 -277 l 5
 1068 -277 1190 -226 1190 -25 c 2
 1190 82 l 1
 520 989 l 1
 407 1158 l 1
 407 0 l 1
 191 0 l 1
 191 1456 l 1
 438 1456 l 1
 1077 573 l 1
 1190 406 l 1
 1190 1456 l 1
 1410 1456 l 1
EndSplineSet
EndChar

StartChar: Euro
Encoding: 8364 8364 50
Width: 1492
VWidth: 0
Flags: HW
PickledData: "(dp1
S'org.robofab.postScriptHintData'
p2
(dp3
sS'com.typemytype.robofont.layerData'
p4
(dp5
S'b'
(dp6
S'name'
p7
S'Euro'
p8
sS'lib'
p9
(dp10
sS'unicodes'
p11
(tsS'width'
p12
I1190
sS'contours'
p13
(tsS'components'
p14
(tsS'anchors'
p15
(tsss."
LayerCount: 2
Fore
SplineSet
90 512 m 1
 95 624 l 1
 256 624 l 1
 253 656 251 689 251 723 c 0
 251 761 253 797 257 832 c 1
 89 832 l 1
 94 950 l 1
 278 950 l 1
 365 1291 649 1483 960 1483 c 0
 1130 1483 1291 1444 1436 1328 c 1
 1345 1169 l 1
 1219 1259 1099 1286 979 1286 c 0
 769 1286 600 1154 529 950 c 1
 1008 950 l 1
 1001 832 l 1
 501 832 l 1
 496 798 493 763 493 726 c 0
 493 691 496 657 500 624 c 1
 972 624 l 1
 965 512 l 1
 525 512 l 1
 595 299 771 175 989 175 c 0
 1121 175 1258 216 1395 322 c 1
 1472 139 l 1
 1321 23 1150 -22 976 -22 c 0
 659 -22 360 160 275 512 c 1
 90 512 l 1
EndSplineSet
EndChar

StartChar: F
Encoding: 70 70 51
Width: 1133
VWidth: 0
Flags: HW
PickledData: "(dp1
S'org.robofab.postScriptHintData'
p2
(dp3
sS'com.typemytype.robofont.layerData'
p4
(dp5
s."
AnchorPoint: "top" 646 1456 basechar 0
LayerCount: 2
Fore
SplineSet
194 0 m 1
 194 1456 l 1
 1063 1456 l 1
 1063 1260 l 1
 424 1260 l 1
 424 847 l 1
 1024 847 l 1
 1024 650 l 1
 424 650 l 1
 424 0 l 1
 194 0 l 1
EndSplineSet
EndChar

StartChar: G
Encoding: 71 71 53
Width: 1534
VWidth: 0
Flags: HW
PickledData: "(dp1
S'org.robofab.postScriptHintData'
p2
(dp3
sS'com.typemytype.robofont.layerData'
p4
(dp5
S'b'
(dp6
S'name'
p7
S'G'
sS'lib'
p8
(dp9
sS'unicodes'
p10
(tsS'width'
p11
F1528.2
sS'contours'
p12
((dp13
S'points'
p14
((dp15
S'segmentType'
p16
S'curve'
p17
sS'x'
F841
sS'smooth'
p18
I01
sS'y'
F-23
s(dp19
S'y'
F-23
sS'x'
F361
sg18
I00
s(dp20
S'y'
F267
sS'x'
F108
sg18
I00
s(dp21
g16
S'curve'
p22
sS'x'
F108
sg18
I01
sS'y'
F701
s(dp23
S'y'
F1129
sS'x'
F108
sg18
I00
s(dp24
S'y'
F1483
sS'x'
F382
sg18
I00
s(dp25
g16
S'curve'
p26
sS'x'
F852
sg18
I01
sS'y'
F1483
s(dp27
S'y'
F1483
sS'x'
F1059
sg18
I00
s(dp28
S'y'
F1415
sS'x'
F1233
sg18
I00
s(dp29
g16
S'curve'
p30
sS'x'
F1334
sg18
I00
sS'y'
F1308
s(dp31
g16
S'line'
p32
sS'x'
F1262
sg18
I00
sS'y'
F1196
s(dp33
S'y'
F1291
sS'x'
F1164
sg18
I00
s(dp34
S'y'
F1334
sS'x'
F1034
sg18
I00
s(dp35
g16
S'curve'
p36
sS'x'
F848
sg18
I01
sS'y'
F1334
s(dp37
S'y'
F1334
sS'x'
F477
sg18
I00
s(dp38
S'y'
F1033
sS'x'
F286
sg18
I00
s(dp39
g16
S'curve'
p40
sS'x'
F286
sg18
I01
sS'y'
F714
s(dp41
S'y'
F365
sS'x'
F286
sg18
I00
s(dp42
S'y'
F125
sS'x'
F472
sg18
I00
s(dp43
g16
S'curve'
p44
sS'x'
F855
sg18
I01
sS'y'
F125
s(dp45
S'y'
F125
sS'x'
F968
sg18
I00
s(dp46
S'y'
F143
sS'x'
F1088
sg18
I00
s(dp47
g16
S'curve'
p48
sS'x'
F1184
sg18
I00
sS'y'
F182
s(dp49
g16
S'line'
p50
sS'x'
F1184
sg18
I00
sS'y'
F608
s(dp51
g16
S'line'
p52
sS'x'
F811
sg18
I00
sS'y'
F608
s(dp53
g16
S'line'
p54
sS'x'
F811
sg18
I00
sS'y'
F757
s(dp55
g16
S'line'
p56
sS'x'
F1356
sg18
I00
sS'y'
F757
s(dp57
g16
S'line'
p58
sS'x'
F1356
sg18
I00
sS'y'
F81
s(dp59
S'y'
F6
sS'x'
F1195
sg18
I00
s(dp60
S'y'
F-23
sS'x'
F1012
sg18
I00
stp61
stp62
sS'components'
p63
(tsS'anchors'
p64
(tsss."
AnchorPoint: "bot" 833 0 basechar 0
AnchorPoint: "top" 834 1456 basechar 0
LayerCount: 2
Fore
SplineSet
849 -23 m 0
 362 -23 107 267 107 704 c 0
 107 1138 400 1483 871 1483 c 0
 1127 1483 1265 1404 1354 1338 c 1
 1262 1176 l 1
 1178 1235 1059 1286 874 1286 c 0
 536 1286 346 1021 346 715 c 0
 346 397 512 174 859 174 c 0
 950 174 1049 188 1134 216 c 1
 1134 586 l 1
 784 586 l 1
 784 783 l 1
 1366 783 l 1
 1366 86 l 1
 1190 6 1017 -23 849 -23 c 0
EndSplineSet
EndChar

StartChar: H
Encoding: 72 72 60
Width: 1564
VWidth: 0
Flags: HW
PickledData: "(dp1
S'org.robofab.postScriptHintData'
p2
(dp3
sS'com.typemytype.robofont.layerData'
p4
(dp5
S'b'
(dp6
S'name'
p7
S'H'
sS'lib'
p8
(dp9
sS'unicodes'
p10
(tsS'width'
p11
F1576.45
sS'contours'
p12
(tsS'components'
p13
(tsS'anchors'
p14
(tsss."
AnchorPoint: "top" 777 1456 basechar 0
LayerCount: 2
Fore
SplineSet
194 0 m 1
 194 1456 l 1
 424 1456 l 1
 424 845 l 1
 1141 845 l 1
 1141 1456 l 1
 1371 1456 l 1
 1371 0 l 1
 1144 0 l 1
 1144 649 l 1
 427 649 l 1
 427 0 l 1
 194 0 l 1
EndSplineSet
EndChar

StartChar: Hbar
Encoding: 294 294 61
Width: 1564
VWidth: 0
Flags: HW
PickledData: "(dp1
S'org.robofab.postScriptHintData'
p2
(dp3
sS'com.typemytype.robofont.layerData'
p4
(dp5
S'b'
(dp6
S'name'
p7
S'Hbar'
p8
sS'lib'
p9
(dp10
sS'unicodes'
p11
(tsS'width'
p12
F1532.55
sS'contours'
p13
(tsS'components'
p14
(tsS'anchors'
p15
(tsss."
LayerCount: 2
Fore
SplineSet
91 1110 m 5
 1462 1110 l 5
 1462 1243 l 5
 91 1243 l 5
 91 1110 l 5
EndSplineSet
Refer: 60 72 N 1 0 0 1 0 0 2
EndChar

StartChar: I
Encoding: 73 73 63
Width: 596
VWidth: 0
Flags: HW
PickledData: "(dp1
S'org.robofab.postScriptHintData'
p2
(dp3
sS'com.typemytype.robofont.layerData'
p4
(dp5
s."
AnchorPoint: "top" 312 1456 basechar 0
LayerCount: 2
Fore
SplineSet
190 0 m 1
 190 1456 l 1
 420 1456 l 1
 420 0 l 1
 190 0 l 1
EndSplineSet
EndChar

StartChar: J
Encoding: 74 74 77
Width: 903
VWidth: 0
Flags: HW
PickledData: "(dp1
S'org.robofab.postScriptHintData'
p2
(dp3
sS'com.typemytype.robofont.layerData'
p4
(dp5
S'b'
(dp6
S'name'
p7
S'J'
sS'lib'
p8
(dp9
sS'unicodes'
p10
(tsS'width'
p11
F731.54999999999995
sS'contours'
p12
(tsS'components'
p13
(tsS'anchors'
p14
(tsss."
AnchorPoint: "top" 606 1456 basechar 0
LayerCount: 2
Fore
SplineSet
329 -331 m 0
 236 -331 133 -308 36 -273 c 1
 74 -96 l 1
 152 -120 226 -136 291 -136 c 0
 439 -136 482 -43 482 114 c 2
 482 1456 l 1
 712 1456 l 1
 712 120 l 2
 712 -176 573 -331 329 -331 c 0
EndSplineSet
EndChar

StartChar: K
Encoding: 75 75 79
Width: 1329
VWidth: 0
Flags: HW
PickledData: "(dp1
S'org.robofab.postScriptHintData'
p2
(dp3
sS'com.typemytype.robofont.layerData'
p4
(dp5
S'b'
(dp6
S'name'
p7
S'K'
sS'lib'
p8
(dp9
sS'unicodes'
p10
(tsS'width'
p11
F1289.95
sS'contours'
p12
(tsS'components'
p13
(tsS'anchors'
p14
(tsss."
AnchorPoint: "bot" 737 0 basechar 0
AnchorPoint: "top" 690 1456 basechar 0
LayerCount: 2
Fore
SplineSet
194 0 m 1
 194 1456 l 1
 424 1456 l 1
 424 812 l 1
 1009 1456 l 1
 1296 1456 l 1
 649 753 l 1
 1345 0 l 1
 1049 0 l 1
 425 667 l 1
 425 0 l 1
 194 0 l 1
EndSplineSet
EndChar

StartChar: L
Encoding: 76 76 82
Width: 1145
VWidth: 0
Flags: HW
PickledData: "(dp1
S'org.robofab.postScriptHintData'
p2
(dp3
sS'com.typemytype.robofont.layerData'
p4
(dp5
s."
AnchorPoint: "bot" 660 0 basechar 0
AnchorPoint: "caron.alt" 320 1026 basechar 0
AnchorPoint: "top" 348 1456 basechar 0
LayerCount: 2
Fore
SplineSet
194 0 m 1
 194 1456 l 1
 424 1456 l 1
 424 196 l 1
 1098 196 l 1
 1098 0 l 1
 194 0 l 1
EndSplineSet
EndChar

StartChar: Lslash
Encoding: 321 321 88
Width: 1152
VWidth: 0
Flags: HW
PickledData: "(dp1
S'org.robofab.postScriptHintData'
p2
(dp3
sS'com.typemytype.robofont.layerData'
p4
(dp5
s."
LayerCount: 2
Fore
SplineSet
43 441 m 5
 666 877 l 5
 666 1076 l 5
 43 640 l 5
 43 441 l 5
EndSplineSet
Refer: 82 76 N 1 0 0 1 0 0 2
EndChar

StartChar: M
Encoding: 77 77 89
Width: 1961
VWidth: 0
Flags: HW
PickledData: "(dp1
S'org.robofab.postScriptHintData'
p2
(dp3
sS'com.typemytype.robofont.layerData'
p4
(dp5
S'b'
(dp6
S'name'
p7
S'M'
sS'lib'
p8
(dp9
sS'unicodes'
p10
(tsS'width'
p11
F1905.0999999999999
sS'contours'
p12
(tsS'components'
p13
(tsS'anchors'
p14
(tsss."
AnchorPoint: "top" 985 1456 basechar 0
LayerCount: 2
Fore
SplineSet
194 0 m 1
 194 1456 l 1
 468 1456 l 1
 640 1069 810 681 983 296 c 1
 1153 683 1324 1069 1495 1456 c 1
 1767 1456 l 1
 1767 0 l 1
 1551 0 l 1
 1551 1080 l 1
 1385 724 1228 360 1066 0 c 1
 897 0 l 1
 736 358 576 716 415 1073 c 1
 415 0 l 1
 194 0 l 1
EndSplineSet
EndChar

StartChar: N
Encoding: 78 78 91
Width: 1616
VWidth: 0
Flags: HW
PickledData: "(dp1
S'org.robofab.postScriptHintData'
p2
(dp3
sS'com.typemytype.robofont.layerData'
p4
(dp5
S'b'
(dp6
S'name'
p7
S'N'
sS'lib'
p8
(dp9
sS'unicodes'
p10
(tsS'width'
p11
F1578.1500000000001
sS'contours'
p12
(tsS'components'
p13
(tsS'anchors'
p14
(tsss."
AnchorPoint: "bot" 848 0 basechar 0
AnchorPoint: "top" 823 1456 basechar 0
LayerCount: 2
Fore
SplineSet
194 0 m 1
 194 1456 l 1
 439 1456 l 1
 694 1081 953 711 1204 332 c 1
 1204 1456 l 1
 1422 1456 l 1
 1422 0 l 1
 1176 0 l 1
 920 374 657 741 407 1122 c 1
 407 0 l 1
 194 0 l 1
EndSplineSet
EndChar

StartChar: O
Encoding: 79 79 98
Width: 1653
VWidth: 0
Flags: HW
PickledData: "(dp1
S'org.robofab.postScriptHintData'
p2
(dp3
sS'com.typemytype.robofont.guides'
p4
((dp5
S'y'
I727
sS'x'
I231
sS'magnetic'
p6
I5
sS'angle'
p7
I0
sS'isGlobal'
p8
I00
s(dp9
S'y'
I1254
sS'x'
I804
sg6
I5
sg7
F90
sg8
I00
stp10
sS'com.typemytype.robofont.layerData'
p11
(dp12
S'b'
(dp13
S'name'
p14
S'O'
sS'lib'
p15
(dp16
sS'unicodes'
p17
(tsS'width'
p18
F1630.8
sS'contours'
p19
(tsS'components'
p20
(tsS'anchors'
p21
(tsss."
AnchorPoint: "top" 833 1456 basechar 0
LayerCount: 2
Fore
SplineSet
830 -23 m 0
 377 -23 106 273 106 733 c 0
 106 1177 376 1483 833 1483 c 0
 1273 1483 1547 1178 1547 733 c 0
 1547 275 1282 -23 830 -23 c 0
826 174 m 0
 1143 174 1297 388 1297 733 c 0
 1297 1064 1144 1286 830 1286 c 0
 517 1286 354 1064 354 733 c 0
 354 387 510 174 826 174 c 0
EndSplineSet
EndChar

StartChar: OE
Encoding: 338 338 99
Width: 2053
VWidth: 0
Flags: HW
PickledData: "(dp1
S'org.robofab.postScriptHintData'
p2
(dp3
sS'com.typemytype.robofont.layerData'
p4
(dp5
S'b'
(dp6
S'name'
p7
S'OE'
p8
sS'lib'
p9
(dp10
sS'unicodes'
p11
(tsS'width'
p12
F2049.1500000000001
sS'contours'
p13
(tsS'components'
p14
(tsS'anchors'
p15
(tsss."
LayerCount: 2
Fore
SplineSet
816 160 m 0
 1009 160 1087 241 1100 255 c 1
 1100 1199 l 1
 1055 1240 975 1287 837 1287 c 0
 822 1287 806 1286 790 1285 c 0
 549 1270 354 1091 354 725 c 0
 354 371 530 160 816 160 c 0
106 731 m 0
 106 1197 405 1482 799 1482 c 0
 1005 1482 1090 1403 1100 1394 c 1
 1100 1456 l 1
 1926 1456 l 1
 1926 1259 l 1
 1331 1259 l 1
 1331 844 l 1
 1889 844 l 1
 1889 646 l 1
 1332 646 l 1
 1332 197 l 1
 1956 197 l 1
 1956 0 l 1
 1100 0 l 1
 1100 75 l 1
 1085 58 982 -19 814 -24 c 0
 805 -24 796 -24 787 -24 c 0
 398 -24 106 231 106 731 c 0
EndSplineSet
EndChar

StartChar: Omega
Encoding: 937 937 111
Width: 1603
VWidth: 0
Flags: HW
PickledData: "(dp1
S'org.robofab.postScriptHintData'
p2
(dp3
sS'com.typemytype.robofont.layerData'
p4
(dp5
s."
LayerCount: 2
Fore
SplineSet
82 0 m 1
 60 181 l 1
 377 180 l 1
 194 327 96 552 96 811 c 0
 96 1219 394 1481 796 1481 c 0
 1204 1481 1487 1207 1487 808 c 0
 1487 546 1380 324 1203 180 c 1
 1510 181 l 1
 1491 0 l 1
 911 0 l 1
 911 156 l 1
 1103 283 1247 518 1247 781 c 0
 1247 1008 1134 1290 794 1290 c 0
 465 1290 336 1020 336 782 c 0
 336 520 477 281 670 156 c 1
 670 0 l 1
 82 0 l 1
EndSplineSet
EndChar

StartChar: Oslash
Encoding: 216 216 113
Width: 1653
VWidth: 0
Flags: HW
PickledData: "(dp1
S'org.robofab.postScriptHintData'
p2
(dp3
sS'com.typemytype.robofont.layerData'
p4
(dp5
S'b'
(dp6
S'name'
p7
S'Oslash'
p8
sS'lib'
p9
(dp10
sS'unicodes'
p11
(tsS'width'
p12
F1663
sS'contours'
p13
(tsS'components'
p14
(tsS'anchors'
p15
(tsss."
LayerCount: 2
Fore
SplineSet
830 -23 m 0
 1282 -23 1547 275 1547 733 c 0
 1547 1016 1436 1243 1242 1370 c 1
 1320 1517 l 1
 1214 1569 l 1
 1137 1425 l 1
 1048 1462 946 1483 833 1483 c 0
 376 1483 106 1177 106 733 c 0
 106 436 219 208 421 83 c 1
 337 -75 l 1
 444 -126 l 1
 527 30 l 1
 616 -5 717 -23 830 -23 c 0
1139 1178 m 1
 1245 1082 1297 926 1297 733 c 0
 1297 388 1143 174 826 174 c 0
 749 174 682 187 624 211 c 1
 1139 1178 l 1
1041 1244 m 1
 522 272 l 1
 410 367 354 526 354 733 c 0
 354 1064 517 1286 830 1286 c 0
 911 1286 981 1271 1041 1244 c 1
EndSplineSet
EndChar

StartChar: P
Encoding: 80 80 116
Width: 1283
VWidth: 0
Flags: HW
PickledData: "(dp1
S'org.robofab.postScriptHintData'
p2
(dp3
sS'com.typemytype.robofont.layerData'
p4
(dp5
S'b'
(dp6
S'name'
p7
S'P'
sS'lib'
p8
(dp9
sS'unicodes'
p10
(tsS'width'
p11
F1252.6500000000001
sS'contours'
p12
((dp13
S'points'
p14
((dp15
S'segmentType'
p16
S'line'
p17
sS'x'
F360
sS'smooth'
p18
I00
sS'y'
F828
s(dp19
g16
S'line'
p20
sS'x'
F580
sg18
I01
sS'y'
F828
s(dp21
S'y'
F828
sS'x'
F775
sg18
I00
s(dp22
S'y'
F881
sS'x'
F973
sg18
I00
s(dp23
g16
S'curve'
p24
sS'x'
F973
sg18
I01
sS'y'
F1077
s(dp25
S'y'
F1272
sS'x'
F973
sg18
I00
s(dp26
S'y'
F1308
sS'x'
F807
sg18
I00
s(dp27
g16
S'curve'
p28
sS'x'
F592
sg18
I01
sS'y'
F1308
s(dp29
g16
S'line'
p30
sS'x'
F360
sg18
I00
sS'y'
F1308
stp31
s(dp32
g14
((dp33
g16
S'line'
p34
sS'x'
F360
sg18
I00
sS'y'
F148
s(dp35
g16
S'line'
p36
sS'x'
F667
sg18
I01
sS'y'
F148
s(dp37
S'y'
F148
sS'x'
F906
sg18
I00
s(dp38
S'y'
F230
sS'x'
F1041
sg18
I00
s(dp39
g16
S'curve'
p40
sS'x'
F1041
sg18
I01
sS'y'
F406
s(dp41
S'y'
F617
sS'x'
F1041
sg18
I00
s(dp42
S'y'
F680
sS'x'
F889
sg18
I00
s(dp43
g16
S'curve'
p44
sS'x'
F610
sg18
I01
sS'y'
F680
s(dp45
g16
S'line'
p46
sS'x'
F360
sg18
I00
sS'y'
F680
stp47
s(dp48
g14
((dp49
g16
S'line'
p50
sS'x'
F188
sg18
I00
sS'y'
F0
s(dp51
g16
S'line'
p52
sS'x'
F188
sg18
I00
sS'y'
F1456
s(dp53
g16
S'line'
p54
sS'x'
F502
sg18
I01
sS'y'
F1456
s(dp55
S'y'
F1456
sS'x'
F765
sg18
I00
s(dp56
S'y'
F1443
sS'x'
F1154
sg18
I00
s(dp57
g16
S'curve'
p58
sS'x'
F1154
sg18
I01
sS'y'
F1105
s(dp59
S'y'
F944
sS'x'
F1154
sg18
I00
s(dp60
S'y'
F814
sS'x'
F1045
sg18
I00
s(dp61
g16
S'curve'
p62
sS'x'
F889
sg18
I00
sS'y'
F769
s(dp63
S'y'
F734
sS'x'
F1086
sg18
I00
s(dp64
S'y'
F605
sS'x'
F1223
sg18
I00
s(dp65
g16
S'curve'
p66
sS'x'
F1223
sg18
I01
sS'y'
F403
s(dp67
S'y'
F189
sS'x'
F1223
sg18
I00
s(dp68
S'y'
F0
sS'x'
F1059
sg18
I00
s(dp69
g16
S'curve'
p70
sS'x'
F739
sg18
I01
sS'y'
F0
stp71
stp72
sS'components'
p73
(tsS'anchors'
p74
(tsss."
AnchorPoint: "top" 660 1456 basechar 0
LayerCount: 2
Fore
SplineSet
424 837 m 1
 660 837 l 2
 852 837 976 875 976 1045 c 0
 976 1245 839 1259 617 1259 c 2
 424 1259 l 1
 424 837 l 1
194 0 m 1
 194 1456 l 1
 609 1456 l 2
 952 1456 1215 1413 1215 1047 c 0
 1215 736 1002 640 664 640 c 2
 424 640 l 1
 424 0 l 1
 194 0 l 1
EndSplineSet
EndChar

StartChar: Q
Encoding: 81 81 118
Width: 1653
VWidth: 0
Flags: HW
PickledData: "(dp1
S'org.robofab.postScriptHintData'
p2
(dp3
sS'com.typemytype.robofont.layerData'
p4
(dp5
S'b'
(dp6
S'name'
p7
S'Q'
sS'lib'
p8
(dp9
sS'unicodes'
p10
(tsS'width'
p11
F1628.2
sS'contours'
p12
(tsS'components'
p13
(tsS'anchors'
p14
(tsss."
LayerCount: 2
Fore
SplineSet
1247 -439 m 1
 1378 -299 l 1
 1378 -299 1222 -129 1126 28 c 1
 1395 132 1547 387 1547 733 c 0
 1547 1178 1273 1483 833 1483 c 0
 376 1483 106 1177 106 733 c 0
 106 273 377 -23 830 -23 c 0
 862 -23 894 -21 925 -18 c 1
 1054 -238 1247 -439 1247 -439 c 1
826 174 m 0
 510 174 354 387 354 733 c 0
 354 1064 517 1286 830 1286 c 0
 1144 1286 1297 1064 1297 733 c 0
 1297 388 1143 174 826 174 c 0
EndSplineSet
EndChar

StartChar: R
Encoding: 82 82 119
Width: 1372
VWidth: 0
Flags: HW
PickledData: "(dp1
S'org.robofab.postScriptHintData'
p2
(dp3
sS'com.typemytype.robofont.guides'
p4
(tsS'com.typemytype.robofont.layerData'
p5
(dp6
S'b'
(dp7
S'name'
p8
S'R'
sS'lib'
p9
(dp10
sS'unicodes'
p11
(tsS'width'
p12
F1341
sS'contours'
p13
((dp14
S'points'
p15
((dp16
S'segmentType'
p17
S'line'
p18
sS'x'
F360
sS'smooth'
p19
I00
sS'y'
F799
s(dp20
g17
S'line'
p21
sS'x'
F615
sg19
I01
sS'y'
F799
s(dp22
S'y'
F799
sS'x'
F795
sg19
I00
s(dp23
S'y'
F854
sS'x'
F932
sg19
I00
s(dp24
g17
S'curve'
p25
sS'x'
F932
sg19
I01
sS'y'
F1058
s(dp26
S'y'
F1259
sS'x'
F932
sg19
I00
s(dp27
S'y'
F1308
sS'x'
F833
sg19
I00
s(dp28
g17
S'curve'
p29
sS'x'
F626
sg19
I01
sS'y'
F1308
s(dp30
g17
S'line'
p31
sS'x'
F360
sg19
I00
sS'y'
F1308
stp32
s(dp33
g15
((dp34
g17
S'line'
p35
sS'x'
F188
sg19
I00
sS'y'
F0
s(dp36
g17
S'line'
p37
sS'x'
F188
sg19
I00
sS'y'
F1456
s(dp38
g17
S'line'
p39
sS'x'
F533
sg19
I01
sS'y'
F1456
s(dp40
S'y'
F1456
sS'x'
F771
sg19
I00
s(dp41
S'y'
F1452
sS'x'
F1114
sg19
I00
s(dp42
g17
S'curve'
p43
sS'x'
F1114
sg19
I01
sS'y'
F1074
s(dp44
S'y'
F890
sS'x'
F1114
sg19
I00
s(dp45
S'y'
F762
sS'x'
F1035
sg19
I00
s(dp46
g17
S'curve'
p47
sS'x'
F847
sg19
I00
sS'y'
F715
s(dp48
g17
S'line'
p49
sS'x'
F848
sg19
I00
sS'y'
F715
s(dp50
S'y'
F662
sS'x'
F1012
sg19
I00
s(dp51
S'y'
F510
sS'x'
F1039
sg19
I00
s(dp52
g17
S'curve'
p53
sS'x'
F1159
sg19
I01
sS'y'
F214
s(dp54
g17
S'line'
p55
sS'x'
F1246
sg19
I00
sS'y'
F0
s(dp56
g17
S'line'
p57
sS'x'
F1061
sg19
I00
sS'y'
F0
s(dp58
g17
S'line'
p59
sS'x'
F896
sg19
I01
sS'y'
F419
s(dp60
S'y'
F600
sS'x'
F825
sg19
I00
s(dp61
S'y'
F652
sS'x'
F797
sg19
I00
s(dp62
g17
S'curve'
p63
sS'x'
F619
sg19
I01
sS'y'
F652
s(dp64
g17
S'line'
p65
sS'x'
F360
sg19
I00
sS'y'
F652
s(dp66
g17
S'line'
p67
sS'x'
F360
sg19
I00
sS'y'
F0
stp68
stp69
sS'components'
p70
(tsS'anchors'
p71
(tsss."
AnchorPoint: "bot" 733 0 basechar 0
AnchorPoint: "top" 667 1456 basechar 0
LayerCount: 2
Fore
SplineSet
421 825 m 1
 668 825 l 2
 825 825 952 872 952 1048 c 0
 952 1220 868 1260 691 1260 c 2
 421 1260 l 1
 421 825 l 1
194 0 m 1
 194 1456 l 1
 689 1456 l 2
 972 1456 1196 1389 1196 1062 c 0
 1196 900 1112 762 911 715 c 1
 1004 674 1066 587 1118 459 c 2
 1303 0 l 1
 1054 0 l 1
 889 433 l 2
 831 586 786 630 641 630 c 2
 424 630 l 1
 424 0 l 1
 194 0 l 1
EndSplineSet
EndChar

StartChar: S
Encoding: 83 83 125
Width: 1244
VWidth: 0
Flags: HW
PickledData: "(dp1
S'org.robofab.postScriptHintData'
p2
(dp3
sS'com.typemytype.robofont.layerData'
p4
(dp5
S'b'
(dp6
S'name'
p7
S'S'
sS'lib'
p8
(dp9
sS'unicodes'
p10
(tsS'width'
p11
F1211
sS'contours'
p12
((dp13
S'points'
p14
((dp15
S'segmentType'
p16
S'curve'
p17
sS'x'
F596
sS'smooth'
p18
I01
sS'y'
F-23
s(dp19
S'y'
F-23
sS'x'
F321
sg18
I00
s(dp20
S'y'
F120
sS'x'
F158
sg18
I00
s(dp21
g16
S'curve'
p22
sS'x'
F140
sg18
I00
sS'y'
F141
s(dp23
g16
S'line'
p24
sS'x'
F219
sg18
I00
sS'y'
F271
s(dp25
S'y'
F243
sS'x'
F256
sg18
I00
s(dp26
S'y'
F125
sS'x'
F393
sg18
I00
s(dp27
g16
S'curve'
p28
sS'x'
F595
sg18
I01
sS'y'
F125
s(dp29
S'y'
F125
sS'x'
F797
sg18
I00
s(dp30
S'y'
F204
sS'x'
F898
sg18
I00
s(dp31
g16
S'curve'
p32
sS'x'
F898
sg18
I01
sS'y'
F360
s(dp33
S'y'
F536
sS'x'
F898
sg18
I00
s(dp34
S'y'
F601
sS'x'
F709
sg18
I00
s(dp35
g16
S'curve'
p36
sS'x'
F521
sg18
I01
sS'y'
F681
s(dp37
S'y'
F761
sS'x'
F333
sg18
I00
s(dp38
S'y'
F857
sS'x'
F145
sg18
I00
s(dp39
g16
S'curve'
p40
sS'x'
F145
sg18
I01
sS'y'
F1095
s(dp41
S'y'
F1350
sS'x'
F145
sg18
I00
s(dp42
S'y'
F1483
sS'x'
F357
sg18
I00
s(dp43
g16
S'curve'
p44
sS'x'
F620
sg18
I01
sS'y'
F1483
s(dp45
S'y'
F1483
sS'x'
F891
sg18
I00
s(dp46
S'y'
F1362
sS'x'
F1009
sg18
I00
s(dp47
g16
S'curve'
p48
sS'x'
F1034
sg18
I00
sS'y'
F1335
s(dp49
g16
S'line'
p50
sS'x'
F951
sg18
I00
sS'y'
F1217
s(dp51
S'y'
F1242
sS'x'
F921
sg18
I00
s(dp52
S'y'
F1334
sS'x'
F819
sg18
I00
s(dp53
g16
S'curve'
p54
sS'x'
F640
sg18
I01
sS'y'
F1334
s(dp55
S'y'
F1334
sS'x'
F478
sg18
I00
s(dp56
S'y'
F1270
sS'x'
F328
sg18
I00
s(dp57
g16
S'curve'
p58
sS'x'
F328
sg18
I01
sS'y'
F1105
s(dp59
S'y'
F934
sS'x'
F328
sg18
I00
s(dp60
S'y'
F868
sS'x'
F515
sg18
I00
s(dp61
g16
S'curve'
p62
sS'x'
F703
sg18
I01
sS'y'
F785
s(dp63
S'y'
F702
sS'x'
F891
sg18
I00
s(dp64
S'y'
F602
sS'x'
F1078
sg18
I00
s(dp65
g16
S'curve'
p66
sS'x'
F1078
sg18
I01
sS'y'
F364
s(dp67
S'y'
F78
sS'x'
F1078
sg18
I00
s(dp68
S'y'
F-23
sS'x'
F868
sg18
I00
stp69
stp70
sS'components'
p71
(tsS'anchors'
p72
(tsss."
AnchorPoint: "bot" 644 0 basechar 0
AnchorPoint: "top" 622 1456 basechar 0
LayerCount: 2
Fore
SplineSet
617 -23 m 0
 399 -23 204 60 121 143 c 1
 221 309 l 1
 300 245 468 174 605 174 c 0
 791 174 883 248 883 390 c 0
 883 503 853 557 640 629 c 0
 602 643 554 657 510 672 c 0
 256 755 128 858 128 1091 c 0
 128 1352 346 1483 623 1483 c 0
 892 1483 1011 1413 1106 1321 c 1
 988 1167 l 1
 904 1248 777 1286 655 1286 c 0
 498 1286 373 1230 373 1100 c 0
 373 982 406 938 603 871 c 0
 643 858 694 842 738 827 c 0
 1034 727 1127 618 1127 387 c 0
 1127 96 885 -23 617 -23 c 0
EndSplineSet
EndChar

StartChar: T
Encoding: 84 84 132
Width: 1167
VWidth: 0
Flags: HW
PickledData: "(dp1
S'org.robofab.postScriptHintData'
p2
(dp3
sS'com.typemytype.robofont.layerData'
p4
(dp5
s."
AnchorPoint: "bot" 593 0 basechar 0
AnchorPoint: "top" 590 1456 basechar 0
LayerCount: 2
Fore
SplineSet
466 0 m 1
 466 1260 l 1
 11 1260 l 1
 11 1456 l 1
 1156 1456 l 1
 1156 1260 l 1
 696 1260 l 1
 696 0 l 1
 466 0 l 1
EndSplineSet
EndChar

StartChar: Thorn
Encoding: 222 222 137
Width: 1292
VWidth: 0
Flags: HW
PickledData: "(dp1
S'org.robofab.postScriptHintData'
p2
(dp3
sS'com.typemytype.robofont.layerData'
p4
(dp5
s."
LayerCount: 2
Fore
SplineSet
422 531 m 1
 657 531 l 2
 846 531 968 604 968 774 c 0
 968 977 836 1023 616 1023 c 2
 422 1023 l 1
 422 531 l 1
194 0 m 1
 194 1456 l 1
 423 1456 l 1
 423 1217 l 1
 604 1217 l 2
 946 1217 1215 1144 1215 775 c 0
 1215 464 950 336 632 336 c 2
 422 336 l 1
 422 0 l 1
 194 0 l 1
EndSplineSet
EndChar

StartChar: U
Encoding: 85 85 138
Width: 1503
VWidth: 0
Flags: HW
PickledData: "(dp1
S'org.robofab.postScriptHintData'
p2
(dp3
sS'com.typemytype.robofont.layerData'
p4
(dp5
S'b'
(dp6
S'name'
p7
S'U'
sS'lib'
p8
(dp9
sS'unicodes'
p10
(tsS'width'
p11
F1496.9000000000001
sS'contours'
p12
(tsS'components'
p13
(tsS'anchors'
p14
(tsss."
AnchorPoint: "top" 749 1456 basechar 0
LayerCount: 2
Fore
SplineSet
751 -23 m 0
 287 -23 166 253 166 583 c 2
 166 1456 l 1
 396 1456 l 1
 396 576 l 2
 396 280 534 174 752 174 c 0
 966 174 1107 279 1107 575 c 2
 1107 1456 l 1
 1337 1456 l 1
 1337 584 l 2
 1337 249 1208 -23 751 -23 c 0
EndSplineSet
EndChar

StartChar: V
Encoding: 86 86 152
Width: 1363
VWidth: 0
Flags: HW
PickledData: "(dp1
S'org.robofab.postScriptHintData'
p2
(dp3
sS'com.typemytype.robofont.layerData'
p4
(dp5
S'b'
(dp6
S'name'
p7
S'V'
sS'lib'
p8
(dp9
sS'unicodes'
p10
(tsS'width'
p11
F1320.1500000000001
sS'contours'
p12
(tsS'components'
p13
(tsS'anchors'
p14
(tsss."
LayerCount: 2
Fore
SplineSet
567 0 m 1
 15 1456 l 1
 274 1456 l 1
 412 1068 546 677 687 293 c 1
 829 678 966 1068 1105 1456 c 1
 1348 1456 l 1
 799 0 l 1
 567 0 l 1
EndSplineSet
EndChar

StartChar: W
Encoding: 87 87 153
Width: 2052
VWidth: 0
Flags: HW
PickledData: "(dp1
S'org.robofab.postScriptHintData'
p2
(dp3
sS'com.typemytype.robofont.layerData'
p4
(dp5
S'b'
(dp6
S'name'
p7
S'W'
sS'lib'
p8
(dp9
sS'unicodes'
p10
(tsS'width'
p11
F1988.8499999999999
sS'contours'
p12
(tsS'components'
p13
(tsS'anchors'
p14
(tsss."
AnchorPoint: "top" 1033 1456 basechar 0
LayerCount: 2
Fore
SplineSet
424 0 m 1
 16 1456 l 1
 262 1456 l 1
 363 1062 470 672 565 272 c 1
 674 676 802 1062 921 1456 c 1
 1145 1456 l 1
 1423 562 l 1
 1507 269 l 1
 1598 670 1701 1060 1798 1456 c 1
 2036 1456 l 1
 1638 0 l 1
 1371 0 l 1
 1027 1141 l 1
 687 0 l 1
 424 0 l 1
EndSplineSet
EndChar

StartChar: X
Encoding: 88 88 158
Width: 1345
VWidth: 0
Flags: HW
PickledData: "(dp1
S'org.robofab.postScriptHintData'
p2
(dp3
sS'com.typemytype.robofont.layerData'
p4
(dp5
S'b'
(dp6
S'name'
p7
S'X'
sS'lib'
p8
(dp9
sS'unicodes'
p10
(tsS'width'
p11
F1257.7
sS'contours'
p12
(tsS'components'
p13
(tsS'anchors'
p14
(tsss."
LayerCount: 2
Fore
SplineSet
18 0 m 1
 541 738 l 1
 48 1456 l 1
 331 1456 l 1
 685 932 l 1
 1050 1456 l 1
 1315 1456 l 1
 815 747 l 1
 1329 0 l 1
 1047 0 l 1
 672 554 l 1
 290 0 l 1
 18 0 l 1
EndSplineSet
EndChar

StartChar: Y
Encoding: 89 89 159
Width: 1258
VWidth: 0
Flags: HW
PickledData: "(dp1
S'org.robofab.postScriptHintData'
p2
(dp3
sS'com.typemytype.robofont.layerData'
p4
(dp5
S'b'
(dp6
S'name'
p7
S'Y'
sS'lib'
p8
(dp9
sS'unicodes'
p10
(tsS'width'
p11
F1225.45
sS'contours'
p12
(tsS'components'
p13
(tsS'anchors'
p14
(tsss."
AnchorPoint: "top" 653 1456 basechar 0
LayerCount: 2
Fore
SplineSet
509 0 m 1
 509 567 l 1
 -2 1456 l 1
 257 1456 l 1
 628 771 l 1
 1000 1456 l 1
 1264 1456 l 1
 739 570 l 1
 739 0 l 1
 509 0 l 1
EndSplineSet
EndChar

StartChar: Z
Encoding: 90 90 166
Width: 1192
VWidth: 0
Flags: HW
PickledData: "(dp1
S'org.robofab.postScriptHintData'
p2
(dp3
sS'com.typemytype.robofont.layerData'
p4
(dp5
S'b'
(dp6
S'name'
p7
S'Z'
sS'lib'
p8
(dp9
sS'unicodes'
p10
(tsS'width'
p11
F1179.45
sS'contours'
p12
(tsS'components'
p13
(tsS'anchors'
p14
(tsss."
AnchorPoint: "top" 620 1456 basechar 0
LayerCount: 2
Fore
SplineSet
81 0 m 1
 81 124 l 1
 788 1260 l 1
 109 1260 l 1
 109 1456 l 1
 1103 1456 l 1
 1103 1336 l 1
 390 196 l 1
 1100 196 l 1
 1100 0 l 1
 81 0 l 1
EndSplineSet
EndChar

StartChar: a
Encoding: 97 97 170
Width: 1284
VWidth: 0
Flags: HW
PickledData: "(dp1
S'org.robofab.postScriptHintData'
p2
(dp3
sS'com.typemytype.robofont.layerData'
p4
(dp5
S'b'
(dp6
S'name'
p7
S'a'
sS'lib'
p8
(dp9
sS'unicodes'
p10
(tsS'width'
p11
I1268
sS'contours'
p12
((dp13
S'points'
p14
((dp15
S'segmentType'
p16
S'curve'
p17
sS'x'
F595
sS'smooth'
p18
I01
sS'y'
F-22
s(dp19
S'y'
F-22
sS'x'
F262
sg18
I00
s(dp20
S'y'
F221
sS'x'
F100
sg18
I00
s(dp21
g16
S'curve'
p22
sS'x'
F100
sg18
I01
sS'y'
F518
s(dp23
S'y'
F824
sS'x'
F100
sg18
I00
s(dp24
S'y'
F1052
sS'x'
F287
sg18
I00
s(dp25
g16
S'curve'
p26
sS'x'
F603
sg18
I01
sS'y'
F1052
s(dp27
S'y'
F1052
sS'x'
F816
sg18
I00
s(dp28
S'y'
F903
sS'x'
F905
sg18
I00
s(dp29
g16
S'curve'
p30
sS'x'
F928
sg18
I00
sS'y'
F847
s(dp31
g16
S'line'
p32
sS'x'
F928
sg18
I00
sS'y'
F1026
s(dp33
g16
S'line'
p34
sS'x'
F1092
sg18
I00
sS'y'
F1026
s(dp35
g16
S'line'
p36
sS'x'
F1092
sg18
I00
sS'y'
F0
s(dp37
g16
S'line'
p38
sS'x'
F928
sg18
I00
sS'y'
F0
s(dp39
g16
S'line'
p40
sS'x'
F928
sg18
I00
sS'y'
F185
s(dp41
S'y'
F82
sS'x'
F881
sg18
I00
s(dp42
S'y'
F-22
sS'x'
F769
sg18
I00
stp43
s(dp44
g14
((dp45
g16
S'curve'
p46
sS'x'
F608
sg18
I01
sS'y'
F918
s(dp47
S'y'
F918
sS'x'
F359
sg18
I00
s(dp48
S'y'
F725
sS'x'
F270
sg18
I00
s(dp49
g16
S'curve'
p50
sS'x'
F270
sg18
I01
sS'y'
F516
s(dp51
S'y'
F308
sS'x'
F270
sg18
I00
s(dp52
S'y'
F112
sS'x'
F364
sg18
I00
s(dp53
g16
S'curve'
p54
sS'x'
F609
sg18
I01
sS'y'
F112
s(dp55
S'y'
F112
sS'x'
F813
sg18
I00
s(dp56
S'y'
F277
sS'x'
F934
sg18
I00
s(dp57
g16
S'curve'
p58
sS'x'
F934
sg18
I01
sS'y'
F526
s(dp59
S'y'
F734
sS'x'
F934
sg18
I00
s(dp60
S'y'
F918
sS'x'
F826
sg18
I00
stp61
stp62
sS'components'
p63
(tsS'anchors'
p64
(tsss."
AnchorPoint: "top" 638 1026 basechar 0
LayerCount: 2
Fore
SplineSet
632 159 m 0
 836 159 923 311 923 517 c 0
 923 720 830 871 629 871 c 0
 422 871 328 719 328 515 c 0
 328 316 421 159 632 159 c 0
601 -23 m 0
 269 -23 104 237 104 506 c 0
 104 792 282 1052 605 1052 c 0
 746 1052 854 984 915 892 c 1
 915 1026 l 1
 1134 1026 l 1
 1134 0 l 1
 911 0 l 1
 911 154 l 1
 853 53 744 -23 601 -23 c 0
EndSplineSet
EndChar

StartChar: acute
Encoding: 180 180 175
Width: 607
VWidth: 0
Flags: HW
PickledData: "(dp1
S'org.robofab.postScriptHintData'
p2
(dp3
s."
AnchorPoint: "top" 147 1026 mark 0
LayerCount: 2
Fore
SplineSet
51 1170 m 1
 305 1510 l 1
 593 1510 l 1
 251 1170 l 1
 51 1170 l 1
EndSplineSet
EndChar

StartChar: ae
Encoding: 230 230 179
Width: 1782
VWidth: 0
Flags: HW
PickledData: "(dp1
S'org.robofab.postScriptHintData'
p2
(dp3
sS'com.typemytype.robofont.layerData'
p4
(dp5
S'b'
(dp6
S'name'
p7
S'ae'
p8
sS'lib'
p9
(dp10
sS'unicodes'
p11
(tsS'width'
p12
F1790.05
sS'contours'
p13
(tsS'components'
p14
((dp15
S'transformation'
p16
(I1
I0
I0
I1
I642
I0
tp17
sS'baseGlyph'
p18
S'e'
stp19
sS'anchors'
p20
(tsss."
AnchorPoint: "top" 895 1026 basechar 0
LayerCount: 2
Fore
SplineSet
1477 626 m 1
 1467 789 1369 882 1241 882 c 0
 1091 882 1008 765 981 626 c 1
 1477 626 l 1
483 157 m 0
 685 157 756 322 759 475 c 1
 639 475 l 2
 465 475 297 435 297 300 c 0
 297 196 384 157 483 157 c 0
1264 -23 m 0
 1083 -23 941 48 867 196 c 1
 794 51 636 -24 470 -24 c 0
 237 -24 78 89 78 290 c 0
 78 572 313 630 721 630 c 2
 758 630 l 1
 758 773 676 875 521 875 c 0
 430 875 319 841 219 794 c 1
 155 946 l 1
 189 967 336 1052 564 1052 c 0
 677 1052 829 990 889 860 c 1
 962 983 1100 1052 1238 1052 c 0
 1538 1052 1674 820 1674 521 c 0
 1674 502 1669 475 1669 475 c 1
 978 475 l 1
 978 452 l 1
 991 256 1090 159 1274 159 c 0
 1450 159 1589 269 1589 269 c 1
 1652 106 l 1
 1652 106 1499 -23 1264 -23 c 0
EndSplineSet
EndChar

StartChar: ampersand
Encoding: 38 38 185
Width: 1567
VWidth: 0
Flags: HW
PickledData: "(dp1
S'org.robofab.postScriptHintData'
p2
(dp3
sS'com.typemytype.robofont.layerData'
p4
(dp5
S'b'
(dp6
S'name'
p7
S'ampersand'
p8
sS'lib'
p9
(dp10
sS'unicodes'
p11
(tsS'width'
p12
F1539.95
sS'contours'
p13
(tsS'components'
p14
(tsS'anchors'
p15
(tsss."
LayerCount: 2
Fore
SplineSet
606 944 m 1
 697 1002 778 1072 778 1161 c 0
 778 1256 704 1290 641 1290 c 0
 562 1290 501 1248 501 1160 c 0
 501 1079 539 1012 606 944 c 1
629 168 m 0
 767 168 861 228 941 306 c 1
 565 710 l 1
 447 643 344 565 344 419 c 0
 344 273 463 168 629 168 c 0
628 -26 m 0
 341 -26 119 139 119 418 c 0
 119 634 270 752 439 852 c 1
 345 956 282 1041 282 1165 c 0
 282 1368 441 1472 632 1472 c 0
 814 1472 995 1377 995 1171 c 0
 995 1020 875 898 737 811 c 1
 1059 459 l 1
 1134 594 1170 759 1170 928 c 1
 1376 887 l 1
 1375 682 1309 458 1203 300 c 1
 1291 208 1403 149 1516 117 c 1
 1369 -15 l 1
 1239 6 1162 70 1074 163 c 1
 967 58 819 -26 628 -26 c 0
EndSplineSet
EndChar

StartChar: approxequal
Encoding: 8776 8776 187
Width: 1351
VWidth: 0
Flags: HW
PickledData: "(dp1
S'org.robofab.postScriptHintData'
p2
(dp3
sS'com.typemytype.robofont.layerData'
p4
(dp5
s."
LayerCount: 2
Fore
SplineSet
282 185 m 1
 127 246 l 1
 181 449 284 527 430 527 c 0
 515 527 609 492 706 451 c 0
 794 416 867 386 917 386 c 0
 987 386 1022 429 1054 547 c 1
 1211 492 l 1
 1162 289 1077 206 924 206 c 0
 843 206 751 236 632 287 c 0
 558 318 487 345 438 345 c 0
 358 345 317 299 282 185 c 1
282 674 m 1
 126 732 l 1
 178 936 282 1014 429 1014 c 0
 513 1014 600 984 702 937 c 0
 793 896 867 873 916 873 c 0
 986 873 1022 915 1053 1034 c 1
 1210 980 l 1
 1162 776 1076 693 923 693 c 0
 840 693 750 721 631 773 c 0
 555 806 487 833 437 833 c 0
 358 833 318 786 282 674 c 1
EndSplineSet
EndChar

StartChar: asciicircum
Encoding: 94 94 190
Width: 1585
VWidth: 0
Flags: HW
PickledData: "(dp1
S'org.robofab.postScriptHintData'
p2
(dp3
sS'com.typemytype.robofont.layerData'
p4
(dp5
S'b'
(dp6
S'name'
p7
S'asciicircum'
p8
sS'lib'
p9
(dp10
sS'unicodes'
p11
(tsS'width'
p12
F1623.3499999999999
sS'contours'
p13
(tsS'components'
p14
(tsS'anchors'
p15
(tsss."
LayerCount: 2
Fore
SplineSet
217 544 m 1
 718 1456 l 1
 861 1456 l 1
 1368 544 l 1
 1145 544 l 1
 787 1205 l 1
 444 544 l 1
 217 544 l 1
EndSplineSet
EndChar

StartChar: asciitilde
Encoding: 126 126 191
Width: 1410
VWidth: 0
Flags: HW
PickledData: "(dp1
S'org.robofab.postScriptHintData'
p2
(dp3
sS'com.typemytype.robofont.layerData'
p4
(dp5
s."
LayerCount: 2
Fore
SplineSet
327 363 m 1
 172 437 l 1
 221 631 322 715 472 715 c 0
 554 715 652 681 753 641 c 0
 826 614 916 582 963 582 c 0
 1035 582 1073 635 1098 748 c 1
 1262 687 l 1
 1213 483 1124 394 973 394 c 0
 900 394 807 425 698 466 c 0
 633 490 536 528 483 528 c 0
 400 528 360 474 327 363 c 1
EndSplineSet
EndChar

StartChar: asterisk
Encoding: 42 42 192
Width: 1076
VWidth: 0
Flags: HW
PickledData: "(dp1
S'org.robofab.postScriptHintData'
p2
(dp3
sS'com.typemytype.robofont.guides'
p4
((dp5
S'y'
I1149
sS'x'
I567
sS'magnetic'
p6
I5
sS'angle'
p7
I0
sS'isGlobal'
p8
I00
stp9
sS'com.typemytype.robofont.layerData'
p10
(dp11
S'b'
(dp12
S'name'
p13
S'asterisk'
p14
sS'lib'
p15
(dp16
sS'unicodes'
p17
(tsS'width'
p18
F1107.9000000000001
sS'contours'
p19
(tsS'components'
p20
(tsS'anchors'
p21
(tsss."
LayerCount: 2
Fore
SplineSet
690 670 m 1
 525 924 l 1
 360 671 l 1
 193 784 l 1
 402 1018 l 1
 127 1118 l 1
 201 1283 l 1
 448 1160 l 1
 418 1456 l 1
 627 1456 l 1
 601 1160 l 1
 843 1283 l 1
 921 1118 l 1
 647 1018 l 1
 857 781 l 1
 690 670 l 1
EndSplineSet
EndChar

StartChar: at
Encoding: 64 64 193
Width: 1796
VWidth: 0
Flags: HW
PickledData: "(dp1
S'org.robofab.postScriptHintData'
p2
(dp3
sS'com.typemytype.robofont.layerData'
p4
(dp5
S'b'
(dp6
S'name'
p7
S'at'
p8
sS'lib'
p9
(dp10
sS'unicodes'
p11
(tsS'width'
p12
F1771.2
sS'contours'
p13
(tsS'components'
p14
(tsS'anchors'
p15
(tsss."
LayerCount: 2
Fore
SplineSet
840 432 m 0
 984 432 1090 625 1090 821 c 0
 1090 916 1037 975 955 975 c 0
 798 975 698 764 698 593 c 0
 698 497 756 432 840 432 c 0
937 -97 m 0
 467 -97 106 198 106 671 c 0
 106 1175 494 1481 954 1481 c 0
 1369 1481 1690 1198 1690 795 c 0
 1690 525 1521 254 1318 254 c 0
 1179 254 1103 340 1103 462 c 1
 1064 351 963 260 811 260 c 0
 656 260 481 380 481 620 c 0
 481 926 730 1138 931 1138 c 0
 1032 1138 1111 1102 1141 1014 c 1
 1163 1116 l 1
 1357 1116 l 1
 1260 628 l 2
 1242 535 1238 495 1238 458 c 0
 1238 421 1256 371 1301 371 c 0
 1397 371 1540 550 1540 800 c 0
 1540 1154 1260 1332 960 1332 c 0
 598 1332 292 1112 292 671 c 0
 292 251 613 48 952 48 c 0
 1116 48 1289 95 1434 190 c 1
 1511 86 l 1
 1359 -37 1147 -97 937 -97 c 0
EndSplineSet
EndChar

StartChar: b
Encoding: 98 98 195
Width: 1283
VWidth: 0
Flags: HW
PickledData: "(dp1
S'org.robofab.postScriptHintData'
p2
(dp3
sS'com.typemytype.robofont.layerData'
p4
(dp5
S'b'
(dp6
S'name'
p7
S'b'
sS'lib'
p8
(dp9
sS'unicodes'
p10
(tsS'width'
p11
F1270.0999999999999
sS'contours'
p12
(tsS'components'
p13
(tsS'anchors'
p14
(tsss."
AnchorPoint: "top" 735 1026 basechar 0
LayerCount: 2
Fore
SplineSet
668 159 m 0
 858 159 944 317 944 519 c 0
 944 717 850 871 670 871 c 0
 482 871 371 716 371 515 c 0
 371 316 475 159 668 159 c 0
704 -23 m 0
 547 -23 427 59 379 145 c 1
 379 0 l 1
 151 0 l 1
 157 179 158 242 158 272 c 2
 158 1469 l 1
 382 1469 l 1
 382 872 l 1
 408 935 512 1052 713 1052 c 0
 1001 1052 1179 836 1179 524 c 0
 1179 194 968 -23 704 -23 c 0
EndSplineSet
EndChar

StartChar: backslash
Encoding: 92 92 196
Width: 762
VWidth: 0
Flags: HW
PickledData: "(dp1
S'org.robofab.postScriptHintData'
p2
(dp3
sS'com.typemytype.robofont.layerData'
p4
(dp5
s."
LayerCount: 2
Fore
SplineSet
583 -48 m 1
 -56 1456 l 1
 167 1456 l 1
 806 -48 l 1
 583 -48 l 1
EndSplineSet
EndChar

StartChar: bar
Encoding: 124 124 197
Width: 607
VWidth: 0
Flags: HW
PickledData: "(dp1
S'org.robofab.postScriptHintData'
p2
(dp3
sS'com.typemytype.robofont.layerData'
p4
(dp5
s."
LayerCount: 2
Fore
SplineSet
197 -465 m 1
 197 1518 l 1
 410 1518 l 1
 410 -465 l 1
 197 -465 l 1
EndSplineSet
EndChar

StartChar: braceleft
Encoding: 123 123 199
Width: 857
VWidth: 0
Flags: HW
PickledData: "(dp1
S'org.robofab.postScriptHintData'
p2
(dp3
sS'com.typemytype.robofont.layerData'
p4
(dp5
s."
LayerCount: 2
Fore
SplineSet
550 1146 m 2
 550 905 l 2
 550 768 476 680 346 659 c 1
 480 633 550 538 550 400 c 2
 550 162 l 2
 550 -2 607 -18 764 -19 c 1
 764 -194 l 1
 416 -193 322 -94 322 154 c 2
 322 388 l 2
 322 527 275 584 139 586 c 1
 139 735 l 1
 269 737 321 792 321 925 c 2
 321 1158 l 2
 321 1404 407 1514 764 1514 c 1
 764 1339 l 1
 597 1338 550 1305 550 1146 c 2
EndSplineSet
EndChar

StartChar: braceright
Encoding: 125 125 200
Width: 862
VWidth: 0
Flags: HW
PickledData: "(dp1
S'org.robofab.postScriptHintData'
p2
(dp3
sS'com.typemytype.robofont.layerData'
p4
(dp5
s."
LayerCount: 2
Fore
SplineSet
108 -194 m 1
 108 -18 l 1
 275 -17 322 16 322 175 c 2
 322 416 l 2
 322 553 396 641 526 663 c 1
 393 688 322 783 322 921 c 2
 322 1159 l 2
 322 1323 265 1339 109 1340 c 1
 109 1514 l 1
 457 1513 551 1415 551 1167 c 2
 551 933 l 2
 551 794 598 737 733 735 c 1
 733 586 l 1
 603 584 551 529 551 396 c 2
 551 163 l 2
 551 -83 465 -194 108 -194 c 1
EndSplineSet
EndChar

StartChar: bracketleft
Encoding: 91 91 201
Width: 636
VWidth: 0
Flags: HW
PickledData: "(dp1
S'org.robofab.postScriptHintData'
p2
(dp3
sS'com.typemytype.robofont.layerData'
p4
(dp5
s."
LayerCount: 2
Fore
SplineSet
152 -184 m 1
 152 1490 l 1
 569 1490 l 1
 569 1320 l 1
 376 1320 l 1
 376 -14 l 1
 570 -14 l 1
 570 -184 l 1
 152 -184 l 1
EndSplineSet
EndChar

StartChar: bracketright
Encoding: 93 93 202
Width: 636
VWidth: 0
Flags: HW
PickledData: "(dp1
S'org.robofab.postScriptHintData'
p2
(dp3
sS'com.typemytype.robofont.layerData'
p4
(dp5
s."
LayerCount: 2
Fore
SplineSet
103 -184 m 1
 103 -14 l 1
 291 -14 l 1
 291 1320 l 1
 102 1320 l 1
 102 1490 l 1
 516 1490 l 1
 516 -184 l 1
 103 -184 l 1
EndSplineSet
EndChar

StartChar: breve
Encoding: 728 728 203
Width: 668
VWidth: 0
Flags: HW
PickledData: "(dp1
S'org.robofab.postScriptHintData'
p2
(dp3
sS'com.typemytype.robofont.layerData'
p4
(dp5
S'b'
(dp6
S'name'
p7
S'breve'
p8
sS'lib'
p9
(dp10
sS'unicodes'
p11
(tsS'width'
p12
F621.60000000000002
sS'contours'
p13
(tsS'components'
p14
(tsS'anchors'
p15
(tsss."
AnchorPoint: "top" 340 1026 mark 0
LayerCount: 2
Fore
SplineSet
336 1174 m 0
 154 1174 44 1257 30 1456 c 1
 188 1456 l 1
 196 1353 261 1332 336 1332 c 0
 410 1332 472 1353 482 1456 c 1
 637 1456 l 1
 624 1257 517 1174 336 1174 c 0
EndSplineSet
EndChar

StartChar: brokenbar
Encoding: 166 166 204
Width: 500
VWidth: 0
Flags: HW
PickledData: "(dp1
S'org.robofab.postScriptHintData'
p2
(dp3
sS'com.typemytype.robofont.layerData'
p4
(dp5
s."
LayerCount: 2
Fore
SplineSet
150 597 m 1
 150 1518 l 1
 357 1518 l 1
 357 597 l 1
 150 597 l 1
152 -465 m 1
 152 409 l 1
 359 409 l 1
 359 -465 l 1
 152 -465 l 1
EndSplineSet
EndChar

StartChar: bullet
Encoding: 8226 8226 205
Width: 989
VWidth: 0
Flags: HW
PickledData: "(dp1
S'org.robofab.postScriptHintData'
p2
(dp3
sS'com.typemytype.robofont.layerData'
p4
(dp5
S'b'
(dp6
S'name'
p7
S'bullet'
p8
sS'lib'
p9
(dp10
sS'unicodes'
p11
(tsS'width'
p12
F989.64999999999998
sS'contours'
p13
(tsS'components'
p14
(tsS'anchors'
p15
(tsss."
LayerCount: 2
Fore
SplineSet
497 366 m 0
 297 366 163 514 163 686 c 0
 163 861 309 1010 497 1010 c 0
 693 1010 835 859 835 686 c 0
 835 511 687 366 497 366 c 0
EndSplineSet
EndChar

StartChar: c
Encoding: 99 99 207
Width: 1073
VWidth: 0
Flags: HW
PickledData: "(dp1
S'org.robofab.postScriptHintData'
p2
(dp3
sS'com.typemytype.robofont.layerData'
p4
(dp5
S'b'
(dp6
S'name'
p7
S'c'
sS'lib'
p8
(dp9
sS'unicodes'
p10
(tsS'width'
p11
F1035.55
sS'contours'
p12
((dp13
S'points'
p14
((dp15
S'segmentType'
p16
S'curve'
p17
sS'x'
F605
sS'smooth'
p18
I01
sS'y'
F-22
s(dp19
S'y'
F-22
sS'x'
F302
sg18
I00
s(dp20
S'y'
F180
sS'x'
F98
sg18
I00
s(dp21
g16
S'curve'
p22
sS'x'
F98
sg18
I01
sS'y'
F503
s(dp23
S'y'
F840
sS'x'
F98
sg18
I00
s(dp24
S'y'
F1052
sS'x'
F301
sg18
I00
s(dp25
g16
S'curve'
p26
sS'x'
F624
sg18
I01
sS'y'
F1052
s(dp27
S'y'
F1052
sS'x'
F750
sg18
I00
s(dp28
S'y'
F1001
sS'x'
F871
sg18
I00
s(dp29
g16
S'curve'
p30
sS'x'
F938
sg18
I00
sS'y'
F922
s(dp31
g16
S'line'
p32
sS'x'
F890
sg18
I00
sS'y'
F805
s(dp33
S'y'
F874
sS'x'
F825
sg18
I00
s(dp34
S'y'
F918
sS'x'
F721
sg18
I00
s(dp35
g16
S'curve'
p36
sS'x'
F619
sg18
I01
sS'y'
F918
s(dp37
S'y'
F918
sS'x'
F406
sg18
I00
s(dp38
S'y'
F756
sS'x'
F268
sg18
I00
s(dp39
g16
S'curve'
p40
sS'x'
F268
sg18
I01
sS'y'
F505
s(dp41
S'y'
F260
sS'x'
F268
sg18
I00
s(dp42
S'y'
F112
sS'x'
F407
sg18
I00
s(dp43
g16
S'curve'
p44
sS'x'
F611
sg18
I01
sS'y'
F112
s(dp45
S'y'
F112
sS'x'
F716
sg18
I00
s(dp46
S'y'
F145
sS'x'
F827
sg18
I00
s(dp47
g16
S'curve'
p48
sS'x'
F901
sg18
I00
sS'y'
F202
s(dp49
g16
S'line'
p50
sS'x'
F953
sg18
I00
sS'y'
F87
s(dp51
S'y'
F19
sS'x'
F873
sg18
I00
s(dp52
S'y'
F-22
sS'x'
F747
sg18
I00
stp53
stp54
sS'components'
p55
(tsS'anchors'
p56
(tsss."
AnchorPoint: "bot" 628 0 basechar 0
AnchorPoint: "top" 626 1026 basechar 0
LayerCount: 2
Fore
SplineSet
634 -23 m 0
 301 -23 104 217 104 510 c 0
 104 823 310 1052 635 1052 c 0
 786 1052 907 1007 991 920 c 1
 912 774 l 1
 852 827 765 870 655 870 c 0
 461 870 337 739 337 511 c 0
 337 299 458 159 657 159 c 0
 785 159 874 218 922 254 c 1
 991 90 l 1
 886 15 776 -23 634 -23 c 0
EndSplineSet
EndChar

StartChar: caron
Encoding: 711 711 209
Width: 699
VWidth: 0
Flags: HW
PickledData: "(dp1
S'org.robofab.postScriptHintData'
p2
(dp3
s."
AnchorPoint: "top" 360 1026 mark 0
LayerCount: 2
Fore
SplineSet
258 1159 m 1
 -9 1528 l 1
 205 1528 l 1
 346 1333 l 1
 487 1528 l 1
 709 1528 l 1
 444 1159 l 1
 258 1159 l 1
EndSplineSet
EndChar

StartChar: caron.alt
Encoding: 65537 -1 210
Width: 600
VWidth: 0
Flags: HW
PickledData: "(dp1
S'org.robofab.postScriptHintData'
p2
(dp3
s."
AnchorPoint: "caron.alt" 16 1026 mark 0
LayerCount: 2
Fore
SplineSet
302 963 m 1
 413 1456 l 1
 665 1456 l 1
 490 963 l 1
 302 963 l 1
EndSplineSet
EndChar

StartChar: cedilla
Encoding: 184 184 215
Width: 529
VWidth: 0
Flags: HW
PickledData: "(dp1
S'org.robofab.postScriptHintData'
p2
(dp3
sS'com.typemytype.robofont.layerData'
p4
(dp5
S'b'
(dp6
S'name'
p7
S'cedilla'
p8
sS'lib'
p9
(dp10
sS'unicodes'
p11
(tsS'width'
p12
I529
sS'contours'
p13
(tsS'components'
p14
(tsS'anchors'
p15
(tsss."
AnchorPoint: "bot" 216 0 mark 0
LayerCount: 2
Fore
SplineSet
232 -476 m 0
 164 -476 84 -459 27 -432 c 1
 40 -302 l 1
 76 -317 143 -333 198 -333 c 0
 262 -333 311 -311 311 -257 c 0
 311 -215 279 -174 156 -166 c 1
 129 -164 l 1
 160 23 l 1
 274 23 l 1
 255 -97 l 1
 422 -112 497 -182 497 -274 c 0
 497 -406 380 -476 232 -476 c 0
EndSplineSet
EndChar

StartChar: cent
Encoding: 162 162 216
Width: 1058
VWidth: 0
Flags: HW
PickledData: "(dp1
S'org.robofab.postScriptHintData'
p2
(dp3
sS'com.typemytype.robofont.layerData'
p4
(dp5
S'b'
(dp6
S'name'
p7
S'cent'
p8
sS'lib'
p9
(dp10
sS'unicodes'
p11
(tsS'width'
p12
F1033.2
sS'contours'
p13
(tsS'components'
p14
(tsS'anchors'
p15
(tsss."
LayerCount: 2
Fore
SplineSet
706 -19 m 1
 706 -230 l 1
 598 -230 l 1
 598 -22 l 1
 287 -5 104 228 104 510 c 0
 104 811 294 1034 598 1051 c 1
 598 1250 l 1
 706 1250 l 1
 706 1048 l 1
 824 1036 921 993 991 920 c 1
 912 774 l 1
 862 819 792 856 706 867 c 1
 706 162 l 1
 808 174 880 223 922 254 c 1
 991 90 l 1
 904 28 814 -8 706 -19 c 1
598 163 m 1
 598 866 l 1
 437 842 337 716 337 511 c 0
 337 321 434 188 598 163 c 1
EndSplineSet
EndChar

StartChar: circumflex
Encoding: 710 710 217
Width: 699
VWidth: 0
Flags: HW
PickledData: "(dp1
S'org.robofab.postScriptHintData'
p2
(dp3
sS'com.typemytype.robofont.layerData'
p4
(dp5
S'b'
(dp6
S'name'
p7
S'circumflex'
p8
sS'lib'
p9
(dp10
sS'unicodes'
p11
(tsS'width'
p12
I699
sS'contours'
p13
(tsS'components'
p14
(tsS'anchors'
p15
(tsss."
AnchorPoint: "top" 351 1026 mark 0
LayerCount: 2
Fore
SplineSet
-9 1159 m 1
 240 1527 l 1
 456 1527 l 1
 709 1159 l 1
 505 1159 l 1
 347 1355 l 1
 188 1159 l 1
 -9 1159 l 1
EndSplineSet
EndChar

StartChar: colon
Encoding: 58 58 218
Width: 571
VWidth: 0
Flags: HW
PickledData: "(dp1
S'org.robofab.postScriptHintData'
p2
(dp3
sS'com.typemytype.robofont.layerData'
p4
(dp5
S'b'
(dp6
S'name'
p7
S'colon'
p8
sS'lib'
p9
(dp10
sS'unicodes'
p11
(tsS'width'
p12
F544.60000000000002
sS'contours'
p13
(tsS'components'
p14
(tsS'anchors'
p15
(tsss."
LayerCount: 2
Fore
SplineSet
158 858 m 1
 158 1111 l 1
 424 1111 l 1
 425 858 l 1
 158 858 l 1
158 -7 m 1
 158 247 l 1
 425 247 l 1
 425 -7 l 1
 158 -7 l 1
EndSplineSet
EndChar

StartChar: comma
Encoding: 44 44 219
Width: 523
VWidth: 0
Flags: HW
PickledData: "(dp1
S'org.robofab.postScriptHintData'
p2
(dp3
sS'com.typemytype.robofont.layerData'
p4
(dp5
S'b'
(dp6
S'name'
p7
S'comma'
p8
sS'lib'
p9
(dp10
sS'unicodes'
p11
(tsS'width'
p12
F491.10000000000002
sS'contours'
p13
(tsS'components'
p14
(tsS'anchors'
p15
(tsss."
LayerCount: 2
Fore
SplineSet
60 -251 m 1
 170 250 l 1
 422 250 l 1
 247 -251 l 1
 60 -251 l 1
EndSplineSet
EndChar

StartChar: copyright
Encoding: 169 169 220
Width: 1719
VWidth: 0
Flags: HW
PickledData: "(dp1
S'org.robofab.postScriptHintData'
p2
(dp3
sS'com.typemytype.robofont.layerData'
p4
(dp5
S'b'
(dp6
S'name'
p7
S'copyright'
p8
sS'lib'
p9
(dp10
sS'unicodes'
p11
(tsS'width'
p12
I1733
sS'contours'
p13
(tsS'components'
p14
(tsS'anchors'
p15
(tsss."
LayerCount: 2
Fore
SplineSet
859 -22 m 0
 445 -22 106 316 106 730 c 0
 106 1145 445 1483 859 1483 c 0
 1274 1483 1613 1145 1613 730 c 0
 1613 316 1274 -22 859 -22 c 0
859 87 m 0
 1207 87 1485 379 1485 727 c 0
 1485 1076 1207 1371 859 1371 c 0
 510 1371 233 1076 233 727 c 0
 233 379 510 87 859 87 c 0
880 287 m 0
 615 287 443 482 443 723 c 0
 443 981 612 1169 880 1169 c 0
 1004 1169 1105 1132 1174 1061 c 1
 1108 940 l 1
 1059 984 987 1020 896 1020 c 0
 738 1020 634 911 634 723 c 0
 634 545 740 436 899 436 c 0
 1000 436 1073 482 1117 516 c 1
 1175 383 l 1
 1085 318 992 287 880 287 c 0
EndSplineSet
EndChar

StartChar: currency
Encoding: 164 164 221
Width: 1218
VWidth: 0
Flags: HW
PickledData: "(dp1
S'org.robofab.postScriptHintData'
p2
(dp3
s."
LayerCount: 2
Fore
SplineSet
609 710 m 0
 783 710 911 848 911 1022 c 0
 911 1196 783 1331 609 1331 c 0
 435 1331 307 1196 307 1022 c 0
 307 848 435 710 609 710 c 0
171 543 m 1
 120 594 l 1
 307 781 l 1
 252 847 219 931 219 1024 c 0
 219 1121 255 1209 314 1276 c 1
 119 1471 l 1
 170 1522 l 1
 367 1326 l 1
 433 1378 518 1409 610 1409 c 0
 702 1409 786 1378 853 1327 c 1
 1048 1522 l 1
 1099 1471 l 1
 906 1278 l 1
 966 1210 1002 1122 1002 1024 c 0
 1002 931 969 846 913 779 c 1
 1099 594 l 1
 1048 543 l 1
 862 729 l 1
 794 673 706 639 610 639 c 0
 514 639 426 673 358 730 c 1
 171 543 l 1
EndSplineSet
EndChar

StartChar: d
Encoding: 100 100 222
Width: 1267
VWidth: 0
Flags: HW
PickledData: "(dp1
S'org.robofab.postScriptHintData'
p2
(dp3
sS'com.typemytype.robofont.layerData'
p4
(dp5
S'b'
(dp6
S'name'
p7
S'd'
sS'lib'
p8
(dp9
sS'unicodes'
p10
(tsS'width'
p11
F1265.05
sS'contours'
p12
(tsS'components'
p13
(tsS'anchors'
p14
(tsss."
AnchorPoint: "caron.alt" 924 1026 basechar 0
AnchorPoint: "top" 559 1026 basechar 0
LayerCount: 2
Fore
SplineSet
615 159 m 0
 807 159 893 316 893 518 c 0
 893 715 803 871 617 871 c 0
 430 871 338 716 338 514 c 0
 338 317 424 159 615 159 c 0
574 -23 m 0
 309 -23 104 182 104 508 c 0
 104 809 273 1052 589 1052 c 0
 751 1052 855 964 887 902 c 1
 887 1469 l 1
 1111 1469 l 1
 1111 270 l 2
 1111 232 1112 192 1118 0 c 1
 890 0 l 1
 888 147 l 1
 859 78 761 -23 574 -23 c 0
EndSplineSet
EndChar

StartChar: dagger
Encoding: 8224 8224 223
Width: 1022
VWidth: 0
Flags: HW
PickledData: "(dp1
S'org.robofab.postScriptHintData'
p2
(dp3
sS'com.typemytype.robofont.layerData'
p4
(dp5
s."
LayerCount: 2
Fore
SplineSet
416 64 m 1
 416 878 l 1
 90 878 l 1
 90 1049 l 1
 416 1049 l 1
 416 1436 l 1
 598 1436 l 1
 598 1049 l 1
 931 1049 l 1
 931 878 l 1
 595 878 l 1
 595 64 l 1
 416 64 l 1
EndSplineSet
EndChar

StartChar: daggerdbl
Encoding: 8225 8225 224
Width: 1140
VWidth: 0
Flags: HW
PickledData: "(dp1
S'org.robofab.postScriptHintData'
p2
(dp3
sS'com.typemytype.robofont.layerData'
p4
(dp5
S'b'
(dp6
S'name'
p7
S'daggerdbl'
p8
sS'lib'
p9
(dp10
sS'unicodes'
p11
(tsS'width'
p12
F1092.6500000000001
sS'contours'
p13
(tsS'components'
p14
(tsS'anchors'
p15
(tsss."
LayerCount: 2
Fore
SplineSet
141 1051 m 1
 477 1051 l 1
 477 1456 l 1
 673 1456 l 1
 673 1051 l 1
 1004 1051 l 1
 1004 899 l 1
 673 899 l 1
 673 524 l 1
 995 524 l 1
 995 378 l 1
 673 378 l 1
 673 -48 l 1
 477 -48 l 1
 477 378 l 1
 137 378 l 1
 137 524 l 1
 477 524 l 1
 477 899 l 1
 141 899 l 1
 141 1051 l 1
EndSplineSet
EndChar

StartChar: degree
Encoding: 176 176 228
Width: 874
VWidth: 0
Flags: HW
PickledData: "(dp1
S'org.robofab.postScriptHintData'
p2
(dp3
sS'com.typemytype.robofont.layerData'
p4
(dp5
S'b'
(dp6
S'name'
p7
S'degree'
p8
sS'lib'
p9
(dp10
sS'unicodes'
p11
(tsS'width'
p12
F856.60000000000002
sS'contours'
p13
(tsS'components'
p14
(tsS'anchors'
p15
(tsss."
LayerCount: 2
Fore
SplineSet
437 851 m 0
 266 851 127 985 127 1155 c 0
 127 1325 266 1460 437 1460 c 0
 609 1460 747 1325 747 1155 c 0
 747 985 609 851 437 851 c 0
437 978 m 0
 539 978 610 1056 610 1156 c 0
 610 1254 539 1332 437 1332 c 0
 337 1332 265 1254 265 1156 c 0
 265 1056 336 978 437 978 c 0
EndSplineSet
EndChar

StartChar: dieresis
Encoding: 168 168 229
Width: 743
VWidth: 0
Flags: HW
PickledData: "(dp1
S'org.robofab.postScriptHintData'
p2
(dp3
s."
AnchorPoint: "top" 375 1026 mark 0
LayerCount: 2
Fore
SplineSet
476 1165 m 1
 476 1380 l 1
 701 1380 l 1
 701 1165 l 1
 476 1165 l 1
40 1165 m 1
 40 1380 l 1
 265 1380 l 1
 265 1165 l 1
 40 1165 l 1
EndSplineSet
EndChar

StartChar: divide
Encoding: 247 247 230
Width: 1417
VWidth: 0
Flags: HW
PickledData: "(dp1
S'org.robofab.postScriptHintData'
p2
(dp3
sS'com.typemytype.robofont.layerData'
p4
(dp5
s."
LayerCount: 2
Fore
SplineSet
573 850 m 1
 573 1103 l 1
 806 1103 l 1
 806 850 l 1
 573 850 l 1
165 459 m 1
 165 646 l 1
 1205 646 l 1
 1205 459 l 1
 165 459 l 1
576 -7 m 1
 576 247 l 1
 809 247 l 1
 809 -7 l 1
 576 -7 l 1
EndSplineSet
EndChar

StartChar: dollar
Encoding: 36 36 232
Width: 1222
VWidth: 0
Flags: HW
PickledData: "(dp1
S'org.robofab.postScriptHintData'
p2
(dp3
sS'com.typemytype.robofont.layerData'
p4
(dp5
S'b'
(dp6
S'name'
p7
S'dollar'
p8
sS'lib'
p9
(dp10
sS'unicodes'
p11
(tsS'width'
p12
F1200.0999999999999
sS'contours'
p13
(tsS'components'
p14
(tsS'anchors'
p15
(tsss."
LayerCount: 2
Fore
SplineSet
590 1283 m 1
 465 1269 373 1211 373 1100 c 0
 373 985 405 940 590 875 c 1
 590 1283 l 1
682 1482 m 1
 910 1472 1018 1406 1106 1321 c 1
 988 1167 l 1
 910 1242 795 1280 682 1285 c 1
 682 846 l 1
 701 840 720 833 738 827 c 0
 1034 727 1127 618 1127 387 c 0
 1127 120 923 -3 682 -21 c 1
 682 -211 l 1
 590 -211 l 1
 590 -23 l 1
 383 -17 201 63 121 143 c 1
 221 309 l 1
 297 247 456 179 590 174 c 1
 590 646 l 1
 564 654 536 663 510 672 c 0
 256 755 128 858 128 1091 c 0
 128 1342 329 1472 590 1482 c 1
 590 1628 l 1
 682 1628 l 1
 682 1482 l 1
682 179 m 1
 816 198 883 269 883 390 c 0
 883 495 857 549 682 614 c 1
 682 179 l 1
EndSplineSet
EndChar

StartChar: dotaccent
Encoding: 729 729 233
Width: 524
VWidth: 0
Flags: HW
PickledData: "(dp1
S'org.robofab.postScriptHintData'
p2
(dp3
sS'com.typemytype.robofont.layerData'
p4
(dp5
S'b'
(dp6
S'name'
p7
S'dotaccent'
p8
sS'lib'
p9
(dp10
sS'unicodes'
p11
(tsS'width'
p12
F524
sS'contours'
p13
(tsS'components'
p14
(tsS'anchors'
p15
(tsss."
AnchorPoint: "top" 258 1026 mark 0
LayerCount: 2
Fore
SplineSet
146 1220 m 1
 146 1430 l 1
 368 1430 l 1
 368 1220 l 1
 146 1220 l 1
EndSplineSet
EndChar

StartChar: dotlessi
Encoding: 305 305 234
Width: 521
VWidth: 0
Flags: HW
PickledData: "(dp1
S'org.robofab.postScriptHintData'
p2
(dp3
sS'com.typemytype.robofont.layerData'
p4
(dp5
s."
AnchorPoint: "top" 257 1026 basechar 0
LayerCount: 2
Fore
SplineSet
143 0 m 1
 143 1026 l 1
 368 1026 l 1
 368 0 l 1
 143 0 l 1
EndSplineSet
EndChar

StartChar: dotlessj
Encoding: 567 567 235
Width: 544
VWidth: 0
Flags: HW
PickledData: "(dp1
S'org.robofab.postScriptHintData'
p2
(dp3
s."
AnchorPoint: "top" 294 1026 basechar 0
LayerCount: 2
Fore
SplineSet
56 -394 m 0
 -20 -394 -80 -379 -101 -375 c 1
 -89 -208 l 1
 -71 -212 -21 -224 26 -224 c 0
 129 -224 184 -161 184 32 c 2
 184 1026 l 1
 401 1026 l 1
 401 55 l 2
 401 -175 350 -394 56 -394 c 0
EndSplineSet
EndChar

StartChar: e
Encoding: 101 101 238
Width: 1188
VWidth: 0
Flags: HW
PickledData: "(dp1
S'org.robofab.postScriptHintData'
p2
(dp3
sS'com.typemytype.robofont.guides'
p4
(tsS'com.typemytype.robofont.layerData'
p5
(dp6
S'b'
(dp7
S'name'
p8
S'e'
sS'lib'
p9
(dp10
sS'unicodes'
p11
(tsS'width'
p12
F1169.75
sS'contours'
p13
(tsS'components'
p14
(tsS'anchors'
p15
(tsssS'com.fontlab.hintData'
p16
(dp17
S'vhints'
p18
((dp19
S'position'
p20
I106
sg12
I195
stp21
sS'hhints'
p22
((dp23
g20
I-22
sg12
I154
s(dp24
g20
I486
sg12
I131
s(dp25
g20
I901
sg12
I151
stp26
ss."
HStem: -22 154 486 131 901 151
VStem: 106 195
AnchorPoint: "bot" 648 0 basechar 0
AnchorPoint: "top" 632 1026 basechar 0
LayerCount: 2
Fore
SplineSet
343 628 m 1
 873 628 l 1
 855 792 763 877 630 877 c 0
 479 877 373 783 343 628 c 1
650 -23 m 0
 310 -23 104 195 104 512 c 0
 104 809 300 1052 620 1052 c 0
 936 1052 1073 820 1073 523 c 0
 1073 514 1072 497 1068 477 c 1
 338 477 l 1
 346 259 481 159 667 159 c 0
 782 159 889 195 989 271 c 1
 1052 107 l 1
 935 19 806 -23 650 -23 c 0
EndSplineSet
EndChar

StartChar: eight
Encoding: 56 56 247
Width: 1258
VWidth: 0
Flags: HW
PickledData: "(dp1
S'org.robofab.postScriptHintData'
p2
(dp3
sS'com.typemytype.robofont.layerData'
p4
(dp5
S'b'
(dp6
S'name'
p7
S'eight'
p8
sS'lib'
p9
(dp10
sS'unicodes'
p11
(tsS'width'
p12
F1235.45
sS'contours'
p13
(tsS'components'
p14
(tsS'anchors'
p15
(tsss."
LayerCount: 2
Fore
SplineSet
630 852 m 1
 773 890 861 980 861 1107 c 0
 861 1226 755 1292 629 1292 c 0
 499 1292 398 1229 398 1099 c 0
 398 978 487 887 630 852 c 1
631 169 m 0
 785 169 892 242 892 397 c 0
 892 526 778 642 635 676 c 1
 485 643 372 537 372 395 c 0
 372 249 476 169 631 169 c 0
633 -23 m 0
 360 -23 141 126 141 389 c 0
 141 558 245 693 410 764 c 1
 271 832 172 943 172 1103 c 0
 172 1342 368 1483 628 1483 c 0
 906 1483 1089 1338 1089 1096 c 0
 1089 935 995 823 854 761 c 1
 1008 694 1121 549 1121 383 c 0
 1121 121 888 -23 633 -23 c 0
EndSplineSet
EndChar

StartChar: ellipsis
Encoding: 8230 8230 249
Width: 1620
VWidth: 0
Flags: HW
PickledData: "(dp1
S'org.robofab.postScriptHintData'
p2
(dp3
s."
LayerCount: 2
Fore
SplineSet
1181 -11 m 1
 1181 242 l 1
 1456 242 l 1
 1456 -11 l 1
 1181 -11 l 1
654 -11 m 1
 654 242 l 1
 931 242 l 1
 932 -11 l 1
 654 -11 l 1
127 -11 m 1
 127 242 l 1
 404 242 l 1
 405 -11 l 1
 127 -11 l 1
EndSplineSet
EndChar

StartChar: emdash
Encoding: 8212 8212 251
Width: 2171
VWidth: 0
Flags: HW
PickledData: "(dp1
S'org.robofab.postScriptHintData'
p2
(dp3
s."
LayerCount: 2
Fore
SplineSet
30 463 m 1
 30 648 l 1
 2141 648 l 1
 2141 463 l 1
 30 463 l 1
EndSplineSet
EndChar

StartChar: endash
Encoding: 8211 8211 252
Width: 1096
VWidth: 0
Flags: HW
PickledData: "(dp1
S'org.robofab.postScriptHintData'
p2
(dp3
sS'com.typemytype.robofont.layerData'
p4
(dp5
s."
LayerCount: 2
Fore
SplineSet
-3 467 m 1
 -3 648 l 1
 1098 648 l 1
 1098 467 l 1
 -3 467 l 1
EndSplineSet
EndChar

StartChar: eng
Encoding: 331 331 253
Width: 1207
VWidth: 0
Flags: HW
PickledData: "(dp1
S'org.robofab.postScriptHintData'
p2
(dp3
sS'com.typemytype.robofont.layerData'
p4
(dp5
s."
LayerCount: 2
Fore
SplineSet
554 -406 m 1
 554 -233 l 1
 738 -233 846 -150 846 70 c 2
 846 582 l 2
 846 778 809 870 654 870 c 0
 531 870 388 760 388 626 c 2
 388 0 l 1
 164 0 l 1
 164 677 l 2
 164 886 148 1026 148 1026 c 1
 383 1026 l 1
 383 880 l 1
 448 995 585 1052 699 1052 c 0
 947 1052 1070 914 1070 575 c 2
 1070 118 l 2
 1070 -227 885 -406 554 -406 c 1
EndSplineSet
EndChar

StartChar: equal
Encoding: 61 61 255
Width: 1407
VWidth: 0
Flags: HW
PickledData: "(dp1
S'org.robofab.postScriptHintData'
p2
(dp3
sS'com.typemytype.robofont.layerData'
p4
(dp5
S'b'
(dp6
S'name'
p7
S'equal'
p8
sS'lib'
p9
(dp10
sS'unicodes'
p11
(tsS'width'
p12
I1229
sS'contours'
p13
(tsS'components'
p14
(tsS'anchors'
p15
(tsss."
LayerCount: 2
Fore
SplineSet
199 673 m 1
 199 856 l 1
 1206 856 l 1
 1206 673 l 1
 199 673 l 1
200 273 m 1
 200 455 l 1
 1208 455 l 1
 1208 273 l 1
 200 273 l 1
EndSplineSet
EndChar

StartChar: estimated
Encoding: 8494 8494 256
Width: 1203
VWidth: 0
Flags: HW
PickledData: "(dp1
S'org.robofab.postScriptHintData'
p2
(dp3
s."
LayerCount: 2
Fore
SplineSet
339 713 m 1
 872 713 l 1
 872 1037 739 1141 609 1141 c 0
 479 1141 340 1036 339 713 c 1
627 114 m 0
 342 114 96 294 96 652 c 0
 96 1050 358 1199 611 1199 c 0
 846 1199 1074 1075 1074 700 c 0
 1074 689 1073 671 1069 655 c 1
 337 655 l 1
 336 333 482 176 682 176 c 0
 784 176 904 218 1029 299 c 1
 1056 247 l 1
 920 158 769 114 627 114 c 0
EndSplineSet
EndChar

StartChar: eth
Encoding: 240 240 257
Width: 1219
VWidth: 0
Flags: HW
PickledData: "(dp1
S'org.robofab.postScriptHintData'
p2
(dp3
sS'com.typemytype.robofont.layerData'
p4
(dp5
S'b'
(dp6
S'name'
p7
S'eth'
p8
sS'lib'
p9
(dp10
sS'unicodes'
p11
(tsS'width'
p12
F1222.55
sS'contours'
p13
(tsS'components'
p14
(tsS'anchors'
p15
(tsss."
LayerCount: 2
Fore
SplineSet
599 164 m 0
 743 164 863 273 863 459 c 0
 863 620 724 719 590 719 c 0
 452 719 333 631 333 453 c 0
 333 264 460 164 599 164 c 0
587 -23 m 0
 288 -23 101 200 101 465 c 0
 101 728 286 906 564 906 c 0
 699 906 818 844 892 745 c 1
 892 798 870 998 675 1159 c 1
 432 1021 l 1
 364 1142 l 1
 546 1245 l 1
 470 1289 380 1325 278 1348 c 1
 356 1495 l 1
 445 1480 586 1434 722 1344 c 1
 962 1480 l 1
 1030 1360 l 1
 839 1252 l 1
 989 1111 1104 907 1104 625 c 0
 1104 185 912 -23 587 -23 c 0
EndSplineSet
EndChar

StartChar: exclam
Encoding: 33 33 259
Width: 648
VWidth: 0
Flags: HW
PickledData: "(dp1
S'org.robofab.postScriptHintData'
p2
(dp3
sS'com.typemytype.robofont.layerData'
p4
(dp5
S'b'
(dp6
S'name'
p7
S'exclam'
p8
sS'lib'
p9
(dp10
sS'unicodes'
p11
(tsS'width'
p12
F590
sS'contours'
p13
(tsS'components'
p14
(tsS'anchors'
p15
(tsss."
LayerCount: 2
Fore
SplineSet
263 383 m 1
 197 1456 l 1
 462 1456 l 1
 396 383 l 1
 263 383 l 1
208 0 m 1
 208 251 l 1
 452 251 l 1
 452 0 l 1
 208 0 l 1
EndSplineSet
EndChar

StartChar: exclamdown
Encoding: 161 161 260
Width: 690
VWidth: 0
Flags: HW
PickledData: "(dp1
S'org.robofab.postScriptHintData'
p2
(dp3
sS'com.typemytype.robofont.layerData'
p4
(dp5
S'b'
(dp6
S'name'
p7
S'exclamdown'
p8
sS'lib'
p9
(dp10
sS'unicodes'
p11
(tsS'width'
p12
F614.5
sS'contours'
p13
(tsS'components'
p14
(tsS'anchors'
p15
(tsss."
LayerCount: 2
Fore
SplineSet
219 1152 m 257
 463 1152 l 257
 463 901 l 257
 219 901 l 257
 219 1152 l 257
274 769 m 257
 407 769 l 257
 473 -304 l 257
 208 -304 l 257
 274 769 l 257
EndSplineSet
EndChar

StartChar: f
Encoding: 102 102 261
Width: 784
VWidth: 0
Flags: HW
PickledData: "(dp1
S'org.robofab.postScriptHintData'
p2
(dp3
sS'com.typemytype.robofont.layerData'
p4
(dp5
S'b'
(dp6
S'name'
p7
S'f'
sS'lib'
p8
(dp9
sS'unicodes'
p10
(tsS'width'
p11
F733.10000000000002
sS'contours'
p12
(tsS'components'
p13
(tsS'anchors'
p14
(tsss."
AnchorPoint: "top" 378 1456 basechar 0
LayerCount: 2
Fore
SplineSet
257 0 m 1
 257 876 l 1
 70 876 l 1
 70 1026 l 1
 257 1026 l 1
 257 1080 l 2
 257 1360 294 1483 675 1483 c 2
 726 1483 l 1
 719 1310 l 1
 499 1310 480 1278 480 1089 c 2
 480 1026 l 1
 717 1026 l 1
 717 876 l 1
 480 876 l 1
 480 0 l 1
 257 0 l 1
EndSplineSet
EndChar

StartChar: f_f
Encoding: 64256 64256 262
Width: 1516
VWidth: 0
Flags: HW
PickledData: "(dp1
S'org.robofab.postScriptHintData'
p2
(dp3
sS'com.typemytype.robofont.layerData'
p4
(dp5
s."
LayerCount: 2
Fore
SplineSet
1215 881 m 1
 1215 0 l 1
 998 0 l 1
 998 881 l 1
 473 881 l 1
 473 0 l 1
 256 0 l 1
 256 881 l 1
 70 881 l 1
 70 1026 l 1
 256 1026 l 1
 256 1084 l 2
 256 1361 294 1483 670 1483 c 2
 720 1483 l 1
 714 1315 l 1
 491 1315 473 1281 473 1095 c 2
 473 1026 l 1
 998 1026 l 1
 998 1084 l 2
 998 1361 1036 1483 1412 1483 c 2
 1462 1483 l 1
 1456 1315 l 1
 1233 1315 1215 1281 1215 1095 c 2
 1215 1026 l 1
 1453 1026 l 1
 1453 881 l 1
 1215 881 l 1
EndSplineSet
EndChar

StartChar: f_f_i
Encoding: 64259 64259 263
Width: 2023
VWidth: 0
Flags: HW
PickledData: "(dp1
S'org.robofab.postScriptHintData'
p2
(dp3
sS'com.typemytype.robofont.layerData'
p4
(dp5
s."
LayerCount: 2
Fore
SplineSet
1869 1261 m 1
 1656 1261 l 1
 1656 1456 l 1
 1869 1456 l 1
 1869 1261 l 1
1869 0 m 1
 1656 0 l 1
 1656 881 l 1
 1206 881 l 1
 1206 0 l 1
 989 0 l 1
 989 881 l 1
 473 881 l 1
 473 0 l 1
 256 0 l 1
 256 881 l 1
 70 881 l 1
 70 1026 l 1
 256 1026 l 1
 256 1084 l 2
 256 1361 294 1483 670 1483 c 2
 720 1483 l 1
 714 1314 l 1
 491 1314 473 1280 473 1094 c 2
 473 1026 l 1
 989 1026 l 1
 989 1084 l 2
 989 1361 1027 1483 1403 1483 c 2
 1453 1483 l 1
 1447 1314 l 1
 1224 1314 1206 1280 1206 1094 c 2
 1206 1026 l 1
 1869 1026 l 1
 1869 0 l 1
EndSplineSet
EndChar

StartChar: f_f_l
Encoding: 64260 64260 264
Width: 2055
VWidth: 0
Flags: HW
PickledData: "(dp1
S'org.robofab.postScriptHintData'
p2
(dp3
sS'com.typemytype.robofont.layerData'
p4
(dp5
s."
AnchorPoint: "top" 378 1456 basechar 0
LayerCount: 2
Fore
SplineSet
257 0 m 1
 257 881 l 1
 70 881 l 1
 70 1026 l 1
 257 1026 l 1
 257 1080 l 2
 257 1360 294 1483 675 1483 c 2
 726 1483 l 1
 719 1310 l 1
 499 1310 480 1278 480 1089 c 2
 480 1026 l 1
 790 1026 l 1
 790 881 l 1
 480 881 l 1
 480 0 l 1
 257 0 l 1
EndSplineSet
Refer: 269 64258 N 1 0 0 1 645 0 2
EndChar

StartChar: fi
Encoding: 64257 64257 266
Width: 1260
VWidth: 0
Flags: HW
PickledData: "(dp1
S'org.robofab.postScriptHintData'
p2
(dp3
sS'com.typemytype.robofont.layerData'
p4
(dp5
S'b'
(dp6
S'name'
p7
S'fi'
p8
sS'lib'
p9
(dp10
sS'unicodes'
p11
(tsS'width'
p12
F1237.6500000000001
sS'contours'
p13
((dp14
S'points'
p15
((dp16
S'segmentType'
p17
S'line'
p18
sS'x'
F249
sS'smooth'
p19
I00
sS'y'
F0
s(dp20
g17
S'line'
p21
sS'x'
F249
sg19
I00
sS'y'
F919
s(dp22
g17
S'line'
p23
sS'x'
F68
sg19
I00
sS'y'
F919
s(dp24
g17
S'line'
p25
sS'x'
F68
sg19
I00
sS'y'
F1026
s(dp26
g17
S'line'
p27
sS'x'
F249
sg19
I00
sS'y'
F1026
s(dp28
g17
S'line'
p29
sS'x'
F249
sg19
I01
sS'y'
F1127
s(dp30
S'y'
F1378
sS'x'
F249
sg19
I00
s(dp31
S'y'
F1492
sS'x'
F295
sg19
I00
s(dp32
g17
S'curve'
p33
sS'x'
F630
sg19
I01
sS'y'
F1492
s(dp34
g17
S'line'
p35
sS'x'
F676
sg19
I00
sS'y'
F1492
s(dp36
g17
S'line'
p37
sS'x'
F676
sg19
I00
sS'y'
F1364
s(dp38
S'y'
F1364
sS'x'
F431
sg19
I00
s(dp39
S'y'
F1311
sS'x'
F413
sg19
I00
s(dp40
g17
S'curve'
p41
sS'x'
F413
sg19
I01
sS'y'
F1150
s(dp42
g17
S'line'
p43
sS'x'
F413
sg19
I00
sS'y'
F1026
s(dp44
g17
S'line'
p45
sS'x'
F662
sg19
I00
sS'y'
F1026
s(dp46
g17
S'line'
p47
sS'x'
F662
sg19
I00
sS'y'
F919
s(dp48
g17
S'line'
p49
sS'x'
F413
sg19
I00
sS'y'
F919
s(dp50
g17
S'line'
p51
sS'x'
F413
sg19
I00
sS'y'
F0
stp52
s(dp53
g15
((dp54
g17
S'line'
p55
sS'x'
F869
sg19
I00
sS'y'
F0
s(dp56
g17
S'line'
p57
sS'x'
F869
sg19
I00
sS'y'
F1026
s(dp58
g17
S'line'
p59
sS'x'
F1033
sg19
I00
sS'y'
F1026
s(dp60
g17
S'line'
p61
sS'x'
F1033
sg19
I00
sS'y'
F0
stp62
s(dp63
g15
((dp64
g17
S'line'
p65
sS'x'
F869
sg19
I00
sS'y'
F1307
s(dp66
g17
S'line'
p67
sS'x'
F869
sg19
I00
sS'y'
F1462
s(dp68
g17
S'line'
p69
sS'x'
F1033
sg19
I00
sS'y'
F1462
s(dp70
g17
S'line'
p71
sS'x'
F1033
sg19
I00
sS'y'
F1307
stp72
stp73
sS'components'
p74
(tsS'anchors'
p75
(tsss."
LayerCount: 2
Fore
SplineSet
256 0 m 1
 256 881 l 1
 70 881 l 1
 70 1026 l 1
 256 1026 l 1
 256 1084 l 2
 256 1361 294 1483 670 1483 c 2
 720 1483 l 1
 714 1315 l 1
 491 1315 473 1281 473 1095 c 2
 473 1026 l 1
 920 1026 l 1
 920 881 l 1
 473 881 l 1
 473 0 l 1
 256 0 l 1
EndSplineSet
Refer: 295 105 N 1 0 0 1 734 0 2
EndChar

StartChar: five
Encoding: 53 53 267
Width: 1256
VWidth: 0
Flags: HW
PickledData: "(dp1
S'org.robofab.postScriptHintData'
p2
(dp3
sS'com.typemytype.robofont.layerData'
p4
(dp5
s."
LayerCount: 2
Fore
SplineSet
618 -23 m 0
 455 -23 287 36 163 165 c 1
 280 337 l 1
 377 223 501 174 613 174 c 0
 775 174 895 285 895 475 c 0
 895 621 816 751 674 751 c 0
 599 751 520 728 483 674 c 1
 258 698 l 1
 258 1456 l 1
 1057 1456 l 1
 1057 1259 l 1
 464 1259 l 1
 452 860 l 1
 511 931 611 956 711 956 c 0
 950 956 1131 747 1131 471 c 0
 1131 156 895 -23 618 -23 c 0
EndSplineSet
EndChar

StartChar: fl
Encoding: 64258 64258 269
Width: 1270
VWidth: 0
Flags: HW
PickledData: "(dp1
S'org.robofab.postScriptHintData'
p2
(dp3
sS'com.typemytype.robofont.layerData'
p4
(dp5
S'b'
(dp6
S'name'
p7
S'fl'
p8
sS'lib'
p9
(dp10
sS'unicodes'
p11
(tsS'width'
p12
F1252.7
sS'contours'
p13
(tsS'components'
p14
((dp15
S'transformation'
p16
(I1
I0
I0
I1
I20
I0
tp17
sS'baseGlyph'
p18
S'f'
s(dp19
g16
(I1
I0
I0
I1
I714
I0
tp20
sg18
S'l'
stp21
sS'anchors'
p22
(tsss."
LayerCount: 2
Fore
SplineSet
262 0 m 1
 262 881 l 1
 70 881 l 1
 70 1026 l 1
 262 1026 l 1
 262 1069 l 2
 262 1346 342 1464 701 1464 c 2
 1118 1464 l 1
 1118 0 l 1
 902 0 l 1
 902 1296 l 1
 733 1296 l 2
 520 1296 478 1251 478 1111 c 2
 478 1026 l 1
 716 1026 l 1
 716 881 l 1
 478 881 l 1
 478 0 l 1
 262 0 l 1
EndSplineSet
EndChar

StartChar: florin
Encoding: 402 402 270
Width: 1095
VWidth: 0
Flags: HW
PickledData: "(dp1
S'org.robofab.postScriptHintData'
p2
(dp3
sS'com.typemytype.robofont.layerData'
p4
(dp5
S'b'
(dp6
S'name'
p7
S'florin'
p8
sS'lib'
p9
(dp10
sS'unicodes'
p11
(tsS'width'
p12
F1073.0999999999999
sS'contours'
p13
(tsS'components'
p14
(tsS'anchors'
p15
(tsss."
LayerCount: 2
Fore
SplineSet
203 -309 m 0
 193 -309 143 -305 95 -291 c 1
 112 -126 l 1
 121 -128 159 -136 195 -136 c 0
 259 -136 326 -106 357 67 c 2
 473 705 l 1
 328 705 l 1
 361 850 l 1
 499 850 l 1
 548 1115 l 2
 576 1264 637 1458 897 1458 c 0
 1012 1458 1075 1417 1075 1417 c 1
 1058 1257 l 1
 1040 1262 985 1277 941 1277 c 0
 869 1277 806 1245 781 1119 c 2
 729 850 l 1
 911 850 l 1
 882 705 l 1
 698 705 l 1
 582 61 l 2
 534 -205 424 -309 203 -309 c 0
EndSplineSet
EndChar

StartChar: foundryicon
Encoding: 65542 -1 271
Width: 1347
VWidth: 0
Flags: HW
PickledData: "(dp1
S'org.robofab.postScriptHintData'
p2
(dp3
s."
LayerCount: 2
Fore
SplineSet
485 405 m 1
 591 405 l 1
 591 552 l 1
 761 405 l 1
 867 405 l 1
 867 672 l 1
 761 672 l 1
 761 523 l 1
 591 672 l 1
 485 672 l 1
 485 405 l 1
280 2 m 1
 423 461 l 1
 34 755 l 1
 519 755 l 1
 669 1215 l 1
 828 755 l 1
 1313 755 l 1
 922 461 l 1
 1066 2 l 1
 669 278 l 1
 280 2 l 1
EndSplineSet
EndChar

StartChar: four
Encoding: 52 52 272
Width: 1256
VWidth: 0
Flags: HW
PickledData: "(dp1
S'org.robofab.postScriptHintData'
p2
(dp3
sS'com.typemytype.robofont.layerData'
p4
(dp5
S'b'
(dp6
S'name'
p7
S'four'
p8
sS'lib'
p9
(dp10
sS'unicodes'
p11
(tsS'width'
p12
F1234.0999999999999
sS'contours'
p13
(tsS'components'
p14
(tsS'anchors'
p15
(tsss."
LayerCount: 2
Fore
SplineSet
353 556 m 1
 740 556 l 1
 740 1196 l 1
 613 981 482 769 353 556 c 1
738 0 m 1
 738 383 l 1
 107 383 l 1
 107 542 l 1
 697 1456 l 1
 961 1456 l 1
 961 556 l 1
 1186 556 l 1
 1186 383 l 1
 964 383 l 1
 964 0 l 1
 738 0 l 1
EndSplineSet
EndChar

StartChar: foursuperior
Encoding: 8308 8308 273
Width: 1032
VWidth: 0
Flags: HW
PickledData: "(dp1
S'org.robofab.postScriptHintData'
p2
(dp3
sS'com.typemytype.robofont.layerData'
p4
(dp5
s."
LayerCount: 2
Fore
SplineSet
376 965 m 1
 580 965 l 1
 580 1253 l 1
 376 965 l 1
582 650 m 1
 582 841 l 1
 209 841 l 1
 209 946 l 1
 577 1456 l 1
 740 1456 l 1
 740 965 l 1
 855 965 l 1
 855 841 l 1
 740 841 l 1
 740 650 l 1
 582 650 l 1
EndSplineSet
EndChar

StartChar: fraction
Encoding: 8260 8260 274
Width: 1110
VWidth: 0
Flags: HW
PickledData: "(dp1
S'org.robofab.postScriptHintData'
p2
(dp3
sS'com.typemytype.robofont.layerData'
p4
(dp5
S'b'
(dp6
S'name'
p7
S'fraction'
p8
sS'lib'
p9
(dp10
sS'unicodes'
p11
(tsS'width'
p12
F1077.8
sS'contours'
p13
(tsS'components'
p14
(tsS'anchors'
p15
(tsss."
LayerCount: 2
Fore
SplineSet
12 0 m 1
 903 1456 l 1
 1122 1456 l 1
 233 0 l 1
 12 0 l 1
EndSplineSet
EndChar

StartChar: g
Encoding: 103 103 275
Width: 1253
VWidth: 0
Flags: HW
PickledData: "(dp1
S'org.robofab.postScriptHintData'
p2
(dp3
sS'com.typemytype.robofont.layerData'
p4
(dp5
S'b'
(dp6
S'name'
p7
S'g'
sS'lib'
p8
(dp9
sS'unicodes'
p10
(tsS'width'
p11
I1254
sS'contours'
p12
((dp13
S'points'
p14
((dp15
S'segmentType'
p16
S'curve'
p17
sS'x'
F580
sS'smooth'
p18
I01
sS'y'
F134
s(dp19
S'y'
F134
sS'x'
F799
sg18
I00
s(dp20
S'y'
F295
sS'x'
F920
sg18
I00
s(dp21
g16
S'curve'
p22
sS'x'
F920
sg18
I01
sS'y'
F550
s(dp23
S'y'
F775
sS'x'
F920
sg18
I00
s(dp24
S'y'
F918
sS'x'
F796
sg18
I00
s(dp25
g16
S'curve'
p26
sS'x'
F600
sg18
I01
sS'y'
F918
s(dp27
S'y'
F918
sS'x'
F399
sg18
I00
s(dp28
S'y'
F762
sS'x'
F268
sg18
I00
s(dp29
g16
S'curve'
p30
sS'x'
F268
sg18
I01
sS'y'
F515
s(dp31
S'y'
F282
sS'x'
F268
sg18
I00
s(dp32
S'y'
F134
sS'x'
F389
sg18
I00
stp33
s(dp34
g14
((dp35
g16
S'curve'
p36
sS'x'
F534
sg18
I01
sS'y'
F-420
s(dp37
S'y'
F-420
sS'x'
F408
sg18
I00
s(dp38
S'y'
F-381
sS'x'
F289
sg18
I00
s(dp39
g16
S'curve'
p40
sS'x'
F189
sg18
I00
sS'y'
F-331
s(dp41
g16
S'line'
p42
sS'x'
F216
sg18
I00
sS'y'
F-187
s(dp43
S'y'
F-238
sS'x'
F300
sg18
I00
s(dp44
S'y'
F-282
sS'x'
F416
sg18
I00
s(dp45
g16
S'curve'
p46
sS'x'
F528
sg18
I01
sS'y'
F-282
s(dp47
S'y'
F-282
sS'x'
F790
sg18
I00
s(dp48
S'y'
F-183
sS'x'
F920
sg18
I00
s(dp49
g16
S'curve'
p50
sS'x'
F920
sg18
I01
sS'y'
F49
s(dp51
g16
S'line'
p52
sS'x'
F920
sg18
I00
sS'y'
F273
s(dp53
g16
S'line'
p54
sS'x'
F948
sg18
I00
sS'y'
F253
s(dp55
S'y'
F139
sS'x'
F905
sg18
I00
s(dp56
S'y'
F0
sS'x'
F802
sg18
I00
s(dp57
g16
S'curve'
p58
sS'x'
F579
sg18
I01
sS'y'
F0
s(dp59
S'y'
F0
sS'x'
F298
sg18
I00
s(dp60
S'y'
F201
sS'x'
F98
sg18
I00
s(dp61
g16
S'curve'
p62
sS'x'
F98
sg18
I01
sS'y'
F511
s(dp63
S'y'
F843
sS'x'
F98
sg18
I00
s(dp64
S'y'
F1052
sS'x'
F284
sg18
I00
s(dp65
g16
S'curve'
p66
sS'x'
F579
sg18
I01
sS'y'
F1052
s(dp67
S'y'
F1052
sS'x'
F820
sg18
I00
s(dp68
S'y'
F900
sS'x'
F903
sg18
I00
s(dp69
g16
S'curve'
p70
sS'x'
F958
sg18
I00
sS'y'
F798
s(dp71
g16
S'line'
p72
sS'x'
F919
sg18
I00
sS'y'
F787
s(dp73
g16
S'line'
p74
sS'x'
F926
sg18
I00
sS'y'
F1026
s(dp75
g16
S'line'
p76
sS'x'
F1090
sg18
I00
sS'y'
F1026
s(dp77
S'y'
F1026
sS'x'
F1090
sg18
I00
s(dp78
S'y'
F857
sS'x'
F1084
sg18
I00
s(dp79
g16
S'curve'
p80
sS'x'
F1084
sg18
I01
sS'y'
F773
s(dp81
g16
S'line'
p82
sS'x'
F1084
sg18
I01
sS'y'
F143
s(dp83
S'y'
F-255
sS'x'
F1084
sg18
I00
s(dp84
S'y'
F-420
sS'x'
F903
sg18
I00
stp85
stp86
sS'components'
p87
(tsS'anchors'
p88
(tsss."
AnchorPoint: "top" 579 1026 basechar 0
LayerCount: 2
Fore
SplineSet
612 183 m 0
 817 183 891 344 891 528 c 0
 891 727 800 871 621 871 c 0
 434 871 338 714 338 517 c 0
 338 310 428 183 612 183 c 0
576 -414 m 0
 439 -414 313 -388 188 -332 c 1
 225 -138 l 1
 348 -209 457 -232 564 -232 c 0
 761 -232 882 -138 882 59 c 2
 882 156 l 1
 837 90 753 12 597 12 c 0
 309 12 104 203 104 515 c 0
 104 811 263 1052 586 1052 c 0
 736 1052 832 980 883 900 c 1
 883 1026 l 1
 1118 1026 l 1
 1118 1026 1102 870 1102 708 c 2
 1102 147 l 2
 1102 -129 996 -414 576 -414 c 0
EndSplineSet
EndChar

StartChar: germandbls
Encoding: 223 223 282
Width: 1259
VWidth: 0
Flags: HW
PickledData: "(dp1
S'org.robofab.postScriptHintData'
p2
(dp3
sS'com.typemytype.robofont.layerData'
p4
(dp5
S'b'
(dp6
S'name'
p7
S'germandbls'
p8
sS'lib'
p9
(dp10
sS'unicodes'
p11
(tsS'width'
p12
F1250.95145088
sS'contours'
p13
(tsS'components'
p14
(tsS'anchors'
p15
(tsss."
LayerCount: 2
Fore
SplineSet
732 817 m 1
 969 760 1190 610 1190 350 c 0
 1190 121 1021 -22 820 -22 c 0
 640 -22 494 37 494 37 c 1
 532 212 l 1
 532 212 652 156 763 156 c 0
 871 156 946 209 946 333 c 0
 946 500 820 604 565 725 c 1
 565 893 l 1
 702 951 792 1041 792 1158 c 0
 792 1253 711 1310 606 1310 c 0
 459 1310 373 1197 373 1011 c 2
 373 0 l 1
 155 0 l 1
 152 1010 l 2
 151 1327 328 1488 605 1488 c 0
 861 1488 1031 1358 1031 1169 c 0
 1031 1036 959 921 819 852 c 0
 794 839 760 826 732 817 c 1
EndSplineSet
EndChar

StartChar: grave
Encoding: 96 96 283
Width: 604
VWidth: 0
Flags: HW
PickledData: "(dp1
S'org.robofab.postScriptHintData'
p2
(dp3
sS'com.typemytype.robofont.layerData'
p4
(dp5
s."
AnchorPoint: "top" 454 1026 mark 0
LayerCount: 2
Fore
SplineSet
354 1170 m 1
 9 1511 l 1
 297 1511 l 1
 553 1170 l 1
 354 1170 l 1
EndSplineSet
EndChar

StartChar: greater
Encoding: 62 62 284
Width: 1356
VWidth: 0
Flags: HW
PickledData: "(dp1
S'org.robofab.postScriptHintData'
p2
(dp3
sS'com.typemytype.robofont.layerData'
p4
(dp5
S'b'
(dp6
S'name'
p7
S'greater'
p8
sS'lib'
p9
(dp10
sS'unicodes'
p11
(tsS'width'
p12
F1268.05
sS'contours'
p13
(tsS'components'
p14
(tsS'anchors'
p15
(tsss."
LayerCount: 2
Fore
SplineSet
214 51 m 1
 214 260 l 1
 926 569 l 1
 219 899 l 1
 219 1105 l 1
 1225 616 l 1
 1225 502 l 1
 214 51 l 1
EndSplineSet
EndChar

StartChar: greaterequal
Encoding: 8805 8805 285
Width: 1351
VWidth: 0
Flags: HW
PickledData: "(dp1
S'org.robofab.postScriptHintData'
p2
(dp3
sS'com.typemytype.robofont.layerData'
p4
(dp5
S'b'
(dp6
S'name'
p7
S'greaterequal'
p8
sS'lib'
p9
(dp10
sS'unicodes'
p11
(tsS'width'
p12
F1350.3499999999999
sS'contours'
p13
(tsS'components'
p14
(tsS'anchors'
p15
(tsss."
LayerCount: 2
Fore
SplineSet
132 0 m 1
 132 163 l 1
 1165 163 l 1
 1165 0 l 1
 132 0 l 1
139 243 m 1
 139 449 l 1
 856 769 l 1
 143 1091 l 1
 143 1294 l 1
 1148 823 l 1
 1148 716 l 1
 139 243 l 1
EndSplineSet
EndChar

StartChar: guillemotleft
Encoding: 171 171 286
Width: 1155
VWidth: 0
Flags: HW
PickledData: "(dp1
S'org.robofab.postScriptHintData'
p2
(dp3
sS'com.typemytype.robofont.layerData'
p4
(dp5
S'b'
(dp6
S'name'
p7
S'guillemotright'
p8
sS'lib'
p9
(dp10
sS'unicodes'
p11
(tsS'width'
p12
F1122.45
sS'contours'
p13
(tsS'components'
p14
(tsS'anchors'
p15
(tsss."
LayerCount: 2
Fore
SplineSet
848 162 m 1
 573 541 l 1
 854 920 l 1
 1040 920 l 1
 798 541 l 1
 1032 162 l 1
 848 162 l 1
411 162 m 1
 136 541 l 1
 417 920 l 1
 603 920 l 1
 361 541 l 1
 595 162 l 1
 411 162 l 1
EndSplineSet
EndChar

StartChar: guillemotright
Encoding: 187 187 287
Width: 1155
VWidth: 0
Flags: HW
PickledData: "(dp1
S'org.robofab.postScriptHintData'
p2
(dp3
sS'com.typemytype.robofont.layerData'
p4
(dp5
S'b'
(dp6
S'name'
p7
S'guillemotright'
p8
sS'lib'
p9
(dp10
sS'unicodes'
p11
(tsS'width'
p12
F1122.45
sS'contours'
p13
(tsS'components'
p14
(tsS'anchors'
p15
(tsss."
LayerCount: 2
Fore
SplineSet
575 162 m 1
 816 541 l 1
 583 920 l 1
 766 920 l 1
 1041 541 l 1
 760 162 l 1
 575 162 l 1
138 162 m 1
 379 541 l 1
 146 920 l 1
 329 920 l 1
 604 541 l 1
 323 162 l 1
 138 162 l 1
EndSplineSet
EndChar

StartChar: guilsinglleft
Encoding: 8249 8249 288
Width: 709
VWidth: 0
Flags: HW
PickledData: "(dp1
S'org.robofab.postScriptHintData'
p2
(dp3
sS'com.typemytype.robofont.layerData'
p4
(dp5
S'b'
(dp6
S'name'
p7
S'guilsinglleft'
p8
sS'lib'
p9
(dp10
sS'unicodes'
p11
(tsS'width'
p12
F688.39999999999998
sS'contours'
p13
(tsS'components'
p14
(tsS'anchors'
p15
(tsss."
LayerCount: 2
Fore
SplineSet
413 162 m 1
 138 541 l 1
 419 920 l 1
 605 920 l 1
 363 540 l 1
 597 162 l 1
 413 162 l 1
EndSplineSet
EndChar

StartChar: guilsinglright
Encoding: 8250 8250 289
Width: 709
VWidth: 0
Flags: HW
PickledData: "(dp1
S'org.robofab.postScriptHintData'
p2
(dp3
sS'com.typemytype.robofont.layerData'
p4
(dp5
S'b'
(dp6
S'name'
p7
S'guilsinglleft'
p8
sS'lib'
p9
(dp10
sS'unicodes'
p11
(tsS'width'
p12
F688.39999999999998
sS'contours'
p13
(tsS'components'
p14
(tsS'anchors'
p15
(tsss."
LayerCount: 2
Fore
SplineSet
117 161 m 1
 359 541 l 1
 125 919 l 1
 309 919 l 1
 583 540 l 1
 303 161 l 1
 117 161 l 1
EndSplineSet
EndChar

StartChar: h
Encoding: 104 104 290
Width: 1227
VWidth: 0
Flags: HW
PickledData: "(dp1
S'org.robofab.postScriptHintData'
p2
(dp3
sS'com.typemytype.robofont.layerData'
p4
(dp5
S'b'
(dp6
S'name'
p7
S'h'
sS'lib'
p8
(dp9
sS'unicodes'
p10
(tsS'width'
p11
F1237.95
sS'contours'
p12
((dp13
S'points'
p14
((dp15
S'segmentType'
p16
S'line'
p17
sS'x'
F178
sS'smooth'
p18
I00
sS'y'
F0
s(dp19
g16
S'line'
p20
sS'x'
F178
sg18
I01
sS'y'
F779
s(dp21
S'y'
F902
sS'x'
F178
sg18
I00
s(dp22
S'y'
F1026
sS'x'
F172
sg18
I00
s(dp23
g16
S'curve'
p24
sS'x'
F172
sg18
I00
sS'y'
F1026
s(dp25
g16
S'line'
p26
sS'x'
F339
sg18
I00
sS'y'
F1026
s(dp27
g16
S'line'
p28
sS'x'
F343
sg18
I00
sS'y'
F864
s(dp29
S'y'
F976
sS'x'
F423
sg18
I00
s(dp30
S'y'
F1051
sS'x'
F548
sg18
I00
s(dp31
g16
S'curve'
p32
sS'x'
F700
sg18
I01
sS'y'
F1051
s(dp33
S'y'
F1051
sS'x'
F999
sg18
I00
s(dp34
S'y'
F844
sS'x'
F1082
sg18
I00
s(dp35
g16
S'curve'
p36
sS'x'
F1082
sg18
I01
sS'y'
F550
s(dp37
g16
S'line'
p38
sS'x'
F1082
sg18
I00
sS'y'
F0
s(dp39
g16
S'line'
p40
sS'x'
F917
sg18
I00
sS'y'
F0
s(dp41
g16
S'line'
p42
sS'x'
F917
sg18
I01
sS'y'
F531
s(dp43
S'y'
F764
sS'x'
F917
sg18
I00
s(dp44
S'y'
F917
sS'x'
F886
sg18
I00
s(dp45
g16
S'curve'
p46
sS'x'
F670
sg18
I01
sS'y'
F917
s(dp47
S'y'
F917
sS'x'
F471
sg18
I00
s(dp48
S'y'
F742
sS'x'
F344
sg18
I00
s(dp49
g16
S'curve'
p50
sS'x'
F343
sg18
I00
sS'y'
F652
s(dp51
g16
S'line'
p52
sS'x'
F343
sg18
I00
sS'y'
F0
stp53
stp54
sS'components'
p55
(tsS'anchors'
p56
(tsss."
AnchorPoint: "top" 740 1026 basechar 0
LayerCount: 2
Fore
SplineSet
152 0 m 1
 152 1469 l 1
 376 1469 l 1
 376 883 l 1
 433 987 580 1052 699 1052 c 0
 1011 1052 1085 796 1085 589 c 2
 1085 0 l 1
 861 0 l 1
 861 593 l 2
 861 792 797 871 665 871 c 0
 519 871 376 753 376 620 c 2
 376 0 l 1
 152 0 l 1
EndSplineSet
EndChar

StartChar: hungarumlaut
Encoding: 733 733 293
Width: 969
VWidth: 0
Flags: HW
PickledData: "(dp1
S'org.robofab.postScriptHintData'
p2
(dp3
s."
AnchorPoint: "top" 282 1026 mark 0
LayerCount: 2
Fore
SplineSet
393 1138 m 1
 636 1510 l 1
 900 1510 l 1
 560 1138 l 1
 393 1138 l 1
67 1138 m 1
 274 1510 l 1
 524 1510 l 1
 228 1138 l 1
 67 1138 l 1
EndSplineSet
EndChar

StartChar: hyphen
Encoding: 45 45 294
Width: 717
VWidth: 0
Flags: HW
PickledData: "(dp1
S'org.robofab.postScriptHintData'
p2
(dp3
sS'com.typemytype.robofont.layerData'
p4
(dp5
S'b'
(dp6
S'name'
p7
S'hyphen'
p8
sS'lib'
p9
(dp10
sS'unicodes'
p11
(tsS'width'
p12
F683.5
sS'contours'
p13
(tsS'components'
p14
(tsS'anchors'
p15
(tsss."
LayerCount: 2
Fore
SplineSet
58 469 m 1
 58 641 l 1
 660 641 l 1
 660 469 l 1
 58 469 l 1
EndSplineSet
EndChar

StartChar: i
Encoding: 105 105 295
Width: 526
VWidth: 0
Flags: HW
PickledData: "(dp1
S'org.robofab.postScriptHintData'
p2
(dp3
sS'com.typemytype.robofont.layerData'
p4
(dp5
S'b'
(dp6
S'name'
p7
S'i'
sS'lib'
p8
(dp9
sS'unicodes'
p10
(tsS'width'
p11
F521.10000000000002
sS'contours'
p12
(tsS'components'
p13
(tsS'anchors'
p14
(tsss."
LayerCount: 2
Fore
SplineSet
158 1256 m 1
 158 1456 l 1
 376 1456 l 1
 376 1256 l 1
 158 1256 l 1
157 0 m 1
 157 1026 l 1
 376 1026 l 1
 376 0 l 1
 157 0 l 1
EndSplineSet
EndChar

StartChar: increment
Encoding: 8710 8710 307
Width: 1390
VWidth: 0
Flags: HW
PickledData: "(dp1
S'org.robofab.postScriptHintData'
p2
(dp3
sS'com.typemytype.robofont.layerData'
p4
(dp5
S'b'
(dp6
S'name'
p7
S'uni2206'
p8
sS'lib'
p9
(dp10
sS'unicodes'
p11
(tsS'width'
p12
F1312.25
sS'contours'
p13
(tsS'components'
p14
(tsS'anchors'
p15
(tsss."
LayerCount: 2
Fore
SplineSet
300 183 m 1
 1064 183 l 1
 682 1195 l 1
 300 183 l 1
61 0 m 1
 61 147 l 1
 589 1456 l 1
 810 1456 l 1
 1328 154 l 1
 1328 0 l 1
 61 0 l 1
EndSplineSet
EndChar

StartChar: infinity
Encoding: 8734 8734 308
Width: 1736
VWidth: 0
Flags: HW
PickledData: "(dp1
S'org.robofab.postScriptHintData'
p2
(dp3
s."
LayerCount: 2
Fore
SplineSet
1276 377 m 0
 1422 377 1480 486 1480 625 c 0
 1480 731 1399 822 1271 822 c 0
 1143 822 1030 715 949 599 c 1
 1065 454 1156 377 1276 377 c 0
478 377 m 0
 604 377 709 476 798 597 c 1
 709 724 604 822 468 822 c 0
 328 822 254 721 254 599 c 0
 254 487 338 377 478 377 c 0
465 233 m 0
 246 233 96 412 96 622 c 0
 96 813 268 966 460 966 c 0
 625 966 754 869 872 711 c 1
 984 865 1106 966 1276 966 c 0
 1498 966 1639 814 1639 603 c 0
 1639 384 1470 233 1274 233 c 0
 1125 233 1004 313 870 486 c 1
 754 334 627 233 465 233 c 0
EndSplineSet
EndChar

StartChar: integral
Encoding: 8747 8747 309
Width: 792
VWidth: 0
Flags: HW
PickledData: "(dp1
S'org.robofab.postScriptHintData'
p2
(dp3
sS'com.typemytype.robofont.layerData'
p4
(dp5
S'b'
(dp6
S'name'
p7
S'integral'
p8
sS'lib'
p9
(dp10
sS'unicodes'
p11
(tsS'width'
p12
F754
sS'contours'
p13
(tsS'components'
p14
(tsS'anchors'
p15
(tsss."
LayerCount: 2
Fore
SplineSet
199 -316 m 0
 99 -316 38 -292 38 -292 c 1
 38 -121 l 1
 38 -121 121 -137 179 -137 c 0
 279 -137 297 -73 297 44 c 2
 297 1170 l 2
 297 1389 375 1552 604 1552 c 0
 695 1552 766 1528 766 1528 c 1
 766 1351 l 1
 766 1351 696 1371 639 1371 c 0
 536 1371 514 1309 514 1191 c 2
 514 65 l 2
 514 -155 430 -316 199 -316 c 0
EndSplineSet
EndChar

StartChar: j
Encoding: 106 106 312
Width: 544
VWidth: 0
Flags: HW
PickledData: "(dp1
S'org.robofab.postScriptHintData'
p2
(dp3
sS'com.typemytype.robofont.layerData'
p4
(dp5
S'b'
(dp6
S'name'
p7
S'j'
sS'lib'
p8
(dp9
sS'unicodes'
p10
(tsS'width'
p11
F536.89999999999998
sS'contours'
p12
((dp13
S'points'
p14
((dp15
S'segmentType'
p16
S'curve'
p17
sS'x'
F65
sS'smooth'
p18
I01
sS'y'
F-410
s(dp19
S'y'
F-410
sS'x'
F-24
sg18
I00
s(dp20
S'y'
F-390
sS'x'
F-117
sg18
I00
s(dp21
g16
S'curve'
p22
sS'x'
F-117
sg18
I00
sS'y'
F-390
s(dp23
g16
S'line'
p24
sS'x'
F-102
sg18
I00
sS'y'
F-267
s(dp25
S'y'
F-267
sS'x'
F-102
sg18
I00
s(dp26
S'y'
F-280
sS'x'
F-44
sg18
I00
s(dp27
g16
S'curve'
p28
sS'x'
F19
sg18
I01
sS'y'
F-280
s(dp29
S'y'
F-280
sS'x'
F153
sg18
I00
s(dp30
S'y'
F-208
sS'x'
F177
sg18
I00
s(dp31
g16
S'curve'
p32
sS'x'
F177
sg18
I01
sS'y'
F-2
s(dp33
g16
S'line'
p34
sS'x'
F177
sg18
I00
sS'y'
F1026
s(dp35
g16
S'line'
p36
sS'x'
F341
sg18
I00
sS'y'
F1026
s(dp37
g16
S'line'
p38
sS'x'
F341
sg18
I01
sS'y'
F-6
s(dp39
S'y'
F-274
sS'x'
F341
sg18
I00
s(dp40
S'y'
F-410
sS'x'
F246
sg18
I00
stp41
s(dp42
g14
((dp43
g16
S'line'
p44
sS'x'
F177
sg18
I00
sS'y'
F1307
s(dp45
g16
S'line'
p46
sS'x'
F177
sg18
I00
sS'y'
F1462
s(dp47
g16
S'line'
p48
sS'x'
F341
sg18
I00
sS'y'
F1462
s(dp49
g16
S'line'
p50
sS'x'
F341
sg18
I00
sS'y'
F1307
stp51
stp52
sS'components'
p53
(tsS'anchors'
p54
(tsss."
LayerCount: 2
Fore
SplineSet
182 1246 m 1
 182 1456 l 1
 404 1456 l 1
 404 1246 l 1
 182 1246 l 1
EndSplineSet
Refer: 235 567 N 1 0 0 1 0 0 2
EndChar

StartChar: k
Encoding: 107 107 315
Width: 1106
VWidth: 0
Flags: HW
PickledData: "(dp1
S'org.robofab.postScriptHintData'
p2
(dp3
sS'com.typemytype.robofont.layerData'
p4
(dp5
S'b'
(dp6
S'name'
p7
S'k'
sS'lib'
p8
(dp9
sS'unicodes'
p10
(tsS'width'
p11
F1078.6500000000001
sS'contours'
p12
(tsS'components'
p13
(tsS'anchors'
p14
(tsss."
AnchorPoint: "bot" 595 0 basechar 0
AnchorPoint: "top" 683 1026 basechar 0
LayerCount: 2
Fore
SplineSet
156 0 m 1
 156 1469 l 1
 380 1469 l 1
 380 601 l 1
 779 1026 l 1
 1087 1026 l 1
 586 534 l 1
 1121 0 l 1
 823 0 l 1
 380 460 l 1
 380 0 l 1
 156 0 l 1
EndSplineSet
EndChar

StartChar: kgreenlandic
Encoding: 312 312 318
Width: 1082
VWidth: 0
Flags: HW
PickledData: "(dp1
S'org.robofab.postScriptHintData'
p2
(dp3
sS'com.typemytype.robofont.layerData'
p4
(dp5
s."
LayerCount: 2
Fore
SplineSet
155 0 m 1
 155 1026 l 1
 378 1026 l 1
 378 604 l 1
 765 1026 l 1
 1065 1026 l 1
 553 513 l 1
 747 334 889 193 1101 0 c 1
 808 0 l 1
 378 415 l 1
 378 0 l 1
 155 0 l 1
EndSplineSet
EndChar

StartChar: l
Encoding: 108 108 319
Width: 528
VWidth: 0
Flags: HW
PickledData: "(dp1
S'org.robofab.postScriptHintData'
p2
(dp3
sS'com.typemytype.robofont.layerData'
p4
(dp5
S'b'
(dp6
S'name'
p7
S'l'
sS'lib'
p8
(dp9
sS'unicodes'
p10
(tsS'width'
p11
F521.79999999999995
sS'contours'
p12
(tsS'components'
p13
(tsS'anchors'
p14
(tsss."
AnchorPoint: "caron.alt" 235 1026 basechar 0
AnchorPoint: "top" 276 1456 basechar 0
LayerCount: 2
Fore
SplineSet
158 0 m 1
 158 1469 l 1
 381 1469 l 1
 381 0 l 1
 158 0 l 1
EndSplineSet
EndChar

StartChar: less
Encoding: 60 60 324
Width: 1354
VWidth: 0
Flags: HW
PickledData: "(dp1
S'org.robofab.postScriptHintData'
p2
(dp3
sS'com.typemytype.robofont.layerData'
p4
(dp5
S'b'
(dp6
S'name'
p7
S'less'
p8
sS'lib'
p9
(dp10
sS'unicodes'
p11
(tsS'width'
p12
F1267.3499999999999
sS'contours'
p13
(tsS'components'
p14
(tsS'anchors'
p15
(tsss."
LayerCount: 2
Fore
SplineSet
1137 48 m 1
 132 519 l 1
 132 626 l 1
 1141 1099 l 1
 1141 892 l 1
 424 573 l 1
 1137 251 l 1
 1137 48 l 1
EndSplineSet
EndChar

StartChar: lessequal
Encoding: 8804 8804 325
Width: 1351
VWidth: 0
Flags: HW
PickledData: "(dp1
S'org.robofab.postScriptHintData'
p2
(dp3
sS'com.typemytype.robofont.layerData'
p4
(dp5
S'b'
(dp6
S'name'
p7
S'lessequal'
p8
sS'lib'
p9
(dp10
sS'unicodes'
p11
(tsS'width'
p12
F1350.3499999999999
sS'contours'
p13
(tsS'components'
p14
(tsS'anchors'
p15
(tsss."
LayerCount: 2
Fore
SplineSet
127 0 m 1
 127 163 l 1
 1160 163 l 1
 1160 0 l 1
 127 0 l 1
1141 244 m 1
 136 714 l 1
 136 822 l 1
 1145 1294 l 1
 1145 1088 l 1
 428 768 l 1
 1141 446 l 1
 1141 244 l 1
EndSplineSet
EndChar

StartChar: logicalnot
Encoding: 172 172 327
Width: 1459
VWidth: 0
Flags: HW
PickledData: "(dp1
S'org.robofab.postScriptHintData'
p2
(dp3
sS'com.typemytype.robofont.layerData'
p4
(dp5
S'b'
(dp6
S'name'
p7
S'logicalnot'
p8
sS'lib'
p9
(dp10
sS'unicodes'
p11
(tsS'width'
p12
F1463.2
sS'contours'
p13
(tsS'components'
p14
(tsS'anchors'
p15
(tsss."
LayerCount: 2
Fore
SplineSet
1027 226 m 1
 1027 623 l 1
 175 623 l 1
 175 810 l 1
 1236 810 l 1
 1236 226 l 1
 1027 226 l 1
EndSplineSet
EndChar

StartChar: lozenge
Encoding: 9674 9674 329
Width: 1248
VWidth: 0
Flags: HW
PickledData: "(dp1
S'org.robofab.postScriptHintData'
p2
(dp3
sS'com.typemytype.robofont.layerData'
p4
(dp5
s."
LayerCount: 2
Fore
SplineSet
599 190 m 1
 906 703 l 1
 607 1204 l 1
 300 703 l 1
 599 190 l 1
526 -40 m 1
 83 703 l 1
 532 1448 l 1
 679 1448 l 1
 1124 704 l 1
 671 -40 l 1
 526 -40 l 1
EndSplineSet
EndChar

StartChar: lslash
Encoding: 322 322 330
Width: 503
VWidth: 0
Flags: HW
PickledData: "(dp1
S'org.robofab.postScriptHintData'
p2
(dp3
s."
LayerCount: 2
Fore
SplineSet
132 0 m 1
 132 715 l 1
 5 615 l 1
 5 811 l 1
 132 911 l 1
 132 1468 l 1
 356 1468 l 1
 356 1070 l 1
 478 1168 l 1
 478 971 l 1
 357 870 l 1
 357 0 l 1
 132 0 l 1
EndSplineSet
EndChar

StartChar: m
Encoding: 109 109 331
Width: 1853
VWidth: 0
Flags: HW
PickledData: "(dp1
S'org.robofab.postScriptHintData'
p2
(dp3
sS'com.typemytype.robofont.guides'
p4
(tsS'com.typemytype.robofont.layerData'
p5
(dp6
S'b'
(dp7
S'name'
p8
S'm'
sS'lib'
p9
(dp10
sS'unicodes'
p11
(tsS'width'
p12
F1873.95
sS'contours'
p13
(tsS'components'
p14
(tsS'anchors'
p15
(tsss."
AnchorPoint: "top" 986 1026 basechar 0
LayerCount: 2
Fore
SplineSet
166 0 m 1
 166 714 l 2
 166 864 154 953 151 1026 c 1
 386 1026 l 1
 386 880 l 1
 437 983 561 1052 689 1052 c 0
 821 1052 939 983 996 850 c 1
 1071 968 1187 1052 1345 1052 c 0
 1591 1052 1710 887 1710 629 c 2
 1710 0 l 1
 1486 0 l 1
 1486 612 l 2
 1486 746 1447 871 1324 871 c 0
 1172 871 1052 730 1052 583 c 2
 1052 0 l 1
 828 0 l 1
 828 629 l 2
 828 743 793 871 653 871 c 0
 502 871 390 747 390 617 c 2
 390 0 l 1
 166 0 l 1
EndSplineSet
EndChar

StartChar: macron
Encoding: 175 175 332
Width: 742
VWidth: 0
Flags: HW
PickledData: "(dp1
S'org.robofab.postScriptHintData'
p2
(dp3
sS'com.typemytype.robofont.layerData'
p4
(dp5
S'b'
(dp6
S'name'
p7
S'macron'
p8
sS'lib'
p9
(dp10
sS'unicodes'
p11
(tsS'width'
p12
F723
sS'contours'
p13
(tsS'components'
p14
(tsS'anchors'
p15
(tsss."
AnchorPoint: "top" 372 1026 mark 0
LayerCount: 2
Fore
SplineSet
66 1202 m 1
 66 1347 l 1
 676 1347 l 1
 676 1202 l 1
 66 1202 l 1
EndSplineSet
EndChar

StartChar: minus
Encoding: 8722 8722 335
Width: 1417
VWidth: 0
Flags: HW
PickledData: "(dp1
S'org.robofab.postScriptHintData'
p2
(dp3
s."
LayerCount: 2
Fore
SplineSet
191 346 m 1
 191 528 l 1
 1227 528 l 1
 1227 346 l 1
 191 346 l 1
EndSplineSet
EndChar

StartChar: mu
Encoding: 956 956 336
Width: 1203
VWidth: 0
Flags: HW
PickledData: "(dp1
S'org.robofab.postScriptHintData'
p2
(dp3
s."
LayerCount: 2
Fore
SplineSet
365 -241 m 1
 139 -241 l 1
 139 1026 l 1
 360 1026 l 1
 362 422 l 2
 362 249 428 158 573 158 c 0
 731 158 821 233 821 419 c 2
 821 1026 l 1
 1046 1026 l 1
 1046 262 l 2
 1046 176 1051 70 1059 0 c 1
 827 0 l 1
 823 155 l 1
 778 49 669 -23 538 -23 c 0
 471 -23 407 -7 365 21 c 1
 365 -241 l 1
EndSplineSet
EndChar

StartChar: multiply
Encoding: 215 215 337
Width: 1256
VWidth: 0
Flags: HW
PickledData: "(dp1
S'org.robofab.postScriptHintData'
p2
(dp3
sS'com.typemytype.robofont.layerData'
p4
(dp5
s."
LayerCount: 2
Fore
SplineSet
356 128 m 1
 211 272 l 1
 488 549 l 1
 211 826 l 1
 356 971 l 1
 633 693 l 1
 910 971 l 1
 1054 827 l 1
 776 549 l 1
 1054 272 l 1
 910 128 l 1
 633 404 l 1
 356 128 l 1
EndSplineSet
EndChar

StartChar: n
Encoding: 110 110 338
Width: 1234
VWidth: 0
Flags: HW
PickledData: "(dp1
S'org.robofab.postScriptHintData'
p2
(dp3
sS'com.typemytype.robofont.layerData'
p4
(dp5
S'b'
(dp6
S'name'
p7
S'n'
sS'lib'
p8
(dp9
sS'unicodes'
p10
(tsS'width'
p11
F1240.05
sS'contours'
p12
(tsS'components'
p13
(tsS'anchors'
p14
(tsss."
AnchorPoint: "bot" 654 0 basechar 0
AnchorPoint: "top" 683 1026 basechar 0
LayerCount: 2
Fore
SplineSet
166 0 m 1
 166 677 l 2
 166 886 150 1026 150 1026 c 1
 385 1026 l 1
 385 881 l 1
 459 995 597 1052 712 1052 c 0
 959 1052 1092 914 1092 575 c 2
 1092 0 l 1
 868 0 l 1
 868 582 l 2
 868 778 821 871 667 871 c 0
 544 871 390 760 390 626 c 2
 390 0 l 1
 166 0 l 1
EndSplineSet
EndChar

StartChar: nine
Encoding: 57 57 343
Width: 1256
VWidth: 0
Flags: HW
PickledData: "(dp1
S'org.robofab.postScriptHintData'
p2
(dp3
sS'com.typemytype.robofont.layerData'
p4
(dp5
S'b'
(dp6
S'name'
p7
S'nine'
p8
sS'lib'
p9
(dp10
sS'unicodes'
p11
(tsS'width'
p12
F1235.4000000000001
sS'contours'
p13
((dp14
S'points'
p15
((dp16
S'segmentType'
p17
S'curve'
p18
sS'x'
F314
sS'smooth'
p19
I01
sS'y'
F1010
s(dp20
S'y'
F827
sS'x'
F314
sg19
I00
s(dp21
S'y'
F687
sS'x'
F393
sg19
I00
s(dp22
g17
S'curve'
p23
sS'x'
F604
sg19
I01
sS'y'
F687
s(dp24
S'y'
F687
sS'x'
F784
sg19
I00
s(dp25
S'y'
F803
sS'x'
F908
sg19
I00
s(dp26
g17
S'curve'
p27
sS'x'
F908
sg19
I01
sS'y'
F991
s(dp28
S'y'
F1166
sS'x'
F908
sg19
I00
s(dp29
S'y'
F1334
sS'x'
F815
sg19
I00
s(dp30
g17
S'curve'
p31
sS'x'
F605
sg19
I01
sS'y'
F1334
s(dp32
S'y'
F1334
sS'x'
F419
sg19
I00
s(dp33
S'y'
F1196
sS'x'
F314
sg19
I00
stp34
s(dp35
g15
((dp36
g17
S'curve'
p37
sS'x'
F555
sg19
I01
sS'y'
F-24
s(dp38
S'y'
F-24
sS'x'
F434
sg19
I00
s(dp39
S'y'
F13
sS'x'
F304
sg19
I00
s(dp40
g17
S'curve'
p41
sS'x'
F175
sg19
I00
sS'y'
F79
s(dp42
g17
S'line'
p43
sS'x'
F232
sg19
I00
sS'y'
F211
s(dp44
S'y'
F152
sS'x'
F346
sg19
I00
s(dp45
S'y'
F124
sS'x'
F450
sg19
I00
s(dp46
g17
S'curve'
p47
sS'x'
F542
sg19
I01
sS'y'
F124
s(dp48
S'y'
F124
sS'x'
F773
sg19
I00
s(dp49
S'y'
F308
sS'x'
F920
sg19
I00
s(dp50
g17
S'curve'
p51
sS'x'
F920
sg19
I01
sS'y'
F657
s(dp52
g17
S'line'
p53
sS'x'
F920
sg19
I00
sS'y'
F722
s(dp54
S'y'
F600
sS'x'
F856
sg19
I00
s(dp55
S'y'
F544
sS'x'
F742
sg19
I00
s(dp56
g17
S'curve'
p57
sS'x'
F577
sg19
I01
sS'y'
F544
s(dp58
S'y'
F544
sS'x'
F298
sg19
I00
s(dp59
S'y'
F735
sS'x'
F138
sg19
I00
s(dp60
g17
S'curve'
p61
sS'x'
F138
sg19
I01
sS'y'
F1004
s(dp62
S'y'
F1275
sS'x'
F138
sg19
I00
s(dp63
S'y'
F1483
sS'x'
F311
sg19
I00
s(dp64
g17
S'curve'
p65
sS'x'
F613
sg19
I01
sS'y'
F1483
s(dp66
S'y'
F1483
sS'x'
F939
sg19
I00
s(dp67
S'y'
F1231
sS'x'
F1095
sg19
I00
s(dp68
g17
S'curve'
p69
sS'x'
F1095
sg19
I01
sS'y'
F774
s(dp70
S'y'
F203
sS'x'
F1095
sg19
I00
s(dp71
S'y'
F-24
sS'x'
F855
sg19
I00
stp72
stp73
sS'components'
p74
(tsS'anchors'
p75
(tsss."
LayerCount: 2
Fore
SplineSet
605 716 m 0
 763 716 877 817 877 1008 c 0
 877 1154 786 1286 618 1286 c 0
 455 1286 355 1168 355 1000 c 0
 355 840 432 716 605 716 c 0
562 -24 m 0
 451 -24 329 5 193 73 c 1
 273 259 l 1
 364 203 456 174 545 174 c 0
 734 174 884 315 884 637 c 2
 884 675 l 1
 817 564 702 525 580 525 c 0
 298 525 123 718 123 995 c 0
 123 1271 310 1483 613 1483 c 0
 936 1483 1113 1238 1113 771 c 0
 1113 275 904 -24 562 -24 c 0
EndSplineSet
EndChar

StartChar: notequal
Encoding: 8800 8800 345
Width: 1377
VWidth: 0
Flags: HW
PickledData: "(dp1
S'org.robofab.postScriptHintData'
p2
(dp3
sS'com.typemytype.robofont.layerData'
p4
(dp5
S'b'
(dp6
S'name'
p7
S'notequal'
p8
sS'lib'
p9
(dp10
sS'unicodes'
p11
(tsS'width'
p12
F1362.5
sS'contours'
p13
(tsS'components'
p14
(tsS'anchors'
p15
(tsss."
LayerCount: 2
Fore
SplineSet
499 39 m 1
 326 66 l 1
 441 308 l 1
 165 308 l 1
 165 476 l 1
 527 476 l 1
 638 689 l 1
 165 689 l 1
 165 858 l 1
 720 858 l 1
 849 1122 l 1
 1028 1096 l 1
 910 858 l 1
 1220 858 l 1
 1220 689 l 1
 830 689 l 1
 716 476 l 1
 1220 476 l 1
 1220 308 l 1
 632 308 l 1
 499 39 l 1
EndSplineSet
EndChar

StartChar: numbersign
Encoding: 35 35 347
Width: 1357
VWidth: 0
Flags: HW
PickledData: "(dp1
S'org.robofab.postScriptHintData'
p2
(dp3
sS'com.typemytype.robofont.layerData'
p4
(dp5
s."
LayerCount: 2
Fore
SplineSet
544 608 m 1
 772 608 l 1
 824 874 l 1
 596 874 l 1
 544 608 l 1
228 10 m 1
 317 459 l 1
 75 459 l 1
 86 608 l 1
 345 608 l 1
 397 874 l 1
 132 874 l 1
 143 1024 l 1
 427 1024 l 1
 510 1450 l 1
 709 1450 l 1
 626 1024 l 1
 854 1024 l 1
 936 1450 l 1
 1135 1450 l 1
 1052 1024 l 1
 1279 1024 l 1
 1270 874 l 1
 1023 874 l 1
 971 608 l 1
 1223 608 l 1
 1214 459 l 1
 942 459 l 1
 854 10 l 1
 655 10 l 1
 743 459 l 1
 515 459 l 1
 427 10 l 1
 228 10 l 1
EndSplineSet
EndChar

StartChar: o
Encoding: 111 111 348
Width: 1274
VWidth: 0
Flags: HW
PickledData: "(dp1
S'org.robofab.postScriptHintData'
p2
(dp3
sS'com.typemytype.robofont.layerData'
p4
(dp5
S'b'
(dp6
S'name'
p7
S'o'
sS'lib'
p8
(dp9
sS'unicodes'
p10
(tsS'width'
p11
F1259.2
sS'contours'
p12
(tsS'components'
p13
(tsS'anchors'
p14
(tsss."
AnchorPoint: "top" 643 1026 basechar 0
LayerCount: 2
Fore
SplineSet
640 -23 m 0
 286 -23 104 216 104 513 c 0
 104 817 291 1052 641 1052 c 0
 996 1052 1170 818 1170 511 c 0
 1170 218 989 -23 640 -23 c 0
639 159 m 0
 846 159 936 317 936 514 c 0
 936 716 841 871 638 871 c 0
 435 871 338 716 338 514 c 0
 338 317 430 159 639 159 c 0
EndSplineSet
EndChar

StartChar: oe
Encoding: 339 339 355
Width: 1993
VWidth: 0
Flags: HW
PickledData: "(dp1
S'org.robofab.postScriptHintData'
p2
(dp3
sS'com.typemytype.robofont.layerData'
p4
(dp5
S'b'
(dp6
S'name'
p7
S'oe'
p8
sS'lib'
p9
(dp10
sS'unicodes'
p11
(tsS'width'
p12
F1979.8
sS'contours'
p13
(tsS'components'
p14
((dp15
S'transformation'
p16
(I1
I0
I0
I1
I-6
I0
tp17
sS'baseGlyph'
p18
S'o'
s(dp19
g16
(I1
I0
I0
I1
I811
I0
tp20
sg18
S'e'
stp21
sS'anchors'
p22
(tsss."
LayerCount: 2
Fore
SplineSet
1136 631 m 1
 1646 631 l 1
 1646 644 l 1
 1640 783 1533 873 1399 873 c 0
 1257 873 1153 773 1136 631 c 1
636 159 m 0
 824 159 908 323 908 511 c 0
 908 715 827 871 629 871 c 0
 436 871 333 711 332 508 c 0
 332 317 426 159 636 159 c 0
1134 449 m 1
 1134 263 1260 159 1456 159 c 0
 1644 159 1775 266 1775 266 c 1
 1839 103 l 1
 1839 103 1695 -22 1431 -22 c 0
 1266 -22 1094 57 1022 181 c 1
 956 58 796 -22 632 -22 c 0
 295 -22 99 205 99 511 c 0
 99 813 286 1052 628 1052 c 0
 820 1052 948 969 1022 853 c 1
 1100 980 1212 1055 1400 1055 c 0
 1694 1055 1860 834 1860 509 c 2
 1860 449 l 1
 1134 449 l 1
EndSplineSet
EndChar

StartChar: ogonek
Encoding: 731 731 356
Width: 508
VWidth: 0
Flags: HW
PickledData: "(dp1
S'org.robofab.postScriptHintData'
p2
(dp3
s."
LayerCount: 2
Fore
SplineSet
254 -392 m 0
 128 -392 30 -347 30 -243 c 0
 30 -108 180 -24 266 19 c 1
 387 17 l 1
 295 -39 228 -132 228 -193 c 0
 228 -237 262 -256 317 -256 c 0
 372 -256 443 -234 476 -225 c 1
 476 -355 l 1
 401 -378 322 -392 254 -392 c 0
EndSplineSet
EndChar

StartChar: one
Encoding: 49 49 361
Width: 1256
VWidth: 0
Flags: HW
PickledData: "(dp1
S'org.robofab.postScriptHintData'
p2
(dp3
sS'com.typemytype.robofont.layerData'
p4
(dp5
S'b'
(dp6
S'name'
p7
S'one'
p8
sS'lib'
p9
(dp10
sS'unicodes'
p11
(tsS'width'
p12
F1234.0999999999999
sS'contours'
p13
(tsS'components'
p14
(tsS'anchors'
p15
(tsss."
LayerCount: 2
Fore
SplineSet
289 0 m 1
 289 182 l 1
 558 182 l 1
 558 1218 l 1
 484 1180 375 1136 265 1098 c 1
 265 1306 l 1
 370 1342 502 1405 591 1456 c 1
 788 1456 l 1
 788 180 l 1
 1050 180 l 1
 1050 0 l 1
 289 0 l 1
EndSplineSet
EndChar

StartChar: onehalf
Encoding: 189 189 362
Width: 2390
VWidth: 0
Flags: HW
PickledData: "(dp1
S'org.robofab.postScriptHintData'
p2
(dp3
sS'com.typemytype.robofont.layerData'
p4
(dp5
s."
LayerCount: 2
Fore
SplineSet
216 623 m 1
 216 766 l 1
 403 766 l 1
 403 1283 l 1
 199 1226 l 1
 199 1375 l 1
 211 1378 429 1451 437 1456 c 1
 579 1456 l 1
 579 764 l 1
 745 764 l 1
 745 623 l 1
 216 623 l 1
564 0 m 1
 1455 1456 l 1
 1650 1456 l 1
 760 0 l 1
 564 0 l 1
1773 847 m 0
 1933 847 2061 763 2061 584 c 0
 2061 450 1969 364 1846 263 c 2
 1723 161 l 1
 2051 161 l 1
 2051 0 l 1
 1473 0 l 1
 1473 153 l 1
 1743 383 l 2
 1847 471 1878 515 1878 575 c 0
 1878 653 1837 691 1762 691 c 0
 1690 691 1602 654 1533 602 c 1
 1465 738 l 1
 1552 808 1666 847 1773 847 c 0
EndSplineSet
EndChar

StartChar: onequarter
Encoding: 188 188 363
Width: 2077
VWidth: 0
Flags: HW
PickledData: "(dp1
S'org.robofab.postScriptHintData'
p2
(dp3
sS'com.typemytype.robofont.layerData'
p4
(dp5
s."
LayerCount: 2
Fore
SplineSet
1439 319 m 1
 1645 319 l 1
 1645 609 l 1
 1439 319 l 1
575 0 m 1
 1466 1456 l 1
 1661 1456 l 1
 771 0 l 1
 575 0 l 1
1647 1 m 1
 1647 193 l 1
 1276 193 l 1
 1276 300 l 1
 1643 808 l 1
 1811 808 l 1
 1811 319 l 1
 1927 319 l 1
 1927 193 l 1
 1811 193 l 1
 1811 1 l 1
 1647 1 l 1
229 623 m 1
 229 766 l 1
 416 766 l 1
 416 1283 l 1
 212 1226 l 1
 212 1375 l 1
 224 1378 442 1451 450 1456 c 1
 592 1456 l 1
 592 764 l 1
 758 764 l 1
 758 623 l 1
 229 623 l 1
EndSplineSet
EndChar

StartChar: onesuperior
Encoding: 185 185 364
Width: 991
VWidth: 0
Flags: HW
PickledData: "(dp1
S'org.robofab.postScriptHintData'
p2
(dp3
sS'com.typemytype.robofont.layerData'
p4
(dp5
s."
LayerCount: 2
Fore
SplineSet
263 617 m 1
 263 762 l 1
 442 762 l 1
 442 1270 l 1
 431 1264 258 1217 244 1212 c 1
 244 1365 l 1
 262 1371 462 1437 474 1444 c 1
 612 1448 l 1
 612 760 l 1
 773 760 l 1
 773 617 l 1
 263 617 l 1
EndSplineSet
EndChar

StartChar: ordfeminine
Encoding: 170 170 366
Width: 838
VWidth: 0
Flags: HW
PickledData: "(dp1
S'org.robofab.postScriptHintData'
p2
(dp3
sS'com.typemytype.robofont.layerData'
p4
(dp5
S'b'
(dp6
S'name'
p7
S'ordfeminine'
p8
sS'lib'
p9
(dp10
sS'unicodes'
p11
(tsS'width'
p12
F797.10000000000002
sS'contours'
p13
(tsS'components'
p14
(tsS'anchors'
p15
(tsss."
LayerCount: 2
Fore
SplineSet
357 858 m 0
 446 858 548 919 548 1045 c 2
 548 1063 l 1
 332 1063 257 1059 257 952 c 0
 257 892 304 858 357 858 c 0
728 1202 m 0
 728 1037 728 874 737 766 c 1
 572 766 l 1
 559 864 l 1
 535 806 463 737 342 737 c 0
 213 737 101 812 101 950 c 0
 101 1085 190 1164 373 1164 c 2
 549 1164 l 1
 549 1204 l 2
 549 1304 497 1339 415 1339 c 0
 306 1339 186 1286 186 1286 c 1
 134 1411 l 1
 134 1411 255 1480 432 1480 c 0
 590 1480 728 1410 728 1202 c 0
EndSplineSet
EndChar

StartChar: ordmasculine
Encoding: 186 186 367
Width: 903
VWidth: 0
Flags: HW
PickledData: "(dp1
S'org.robofab.postScriptHintData'
p2
(dp3
sS'com.typemytype.robofont.layerData'
p4
(dp5
S'b'
(dp6
S'name'
p7
S'ordmasculine'
p8
sS'lib'
p9
(dp10
sS'unicodes'
p11
(tsS'width'
p12
F887.85000000000002
sS'contours'
p13
(tsS'components'
p14
(tsS'anchors'
p15
(tsss."
LayerCount: 2
Fore
SplineSet
456 727 m 0
 205 727 75 885 75 1092 c 0
 75 1293 214 1451 453 1451 c 0
 694 1451 828 1289 828 1088 c 0
 828 890 696 727 456 727 c 0
453 875 m 0
 573 875 651 958 651 1086 c 0
 651 1222 573 1303 454 1303 c 0
 335 1303 254 1219 254 1090 c 0
 254 955 328 875 453 875 c 0
EndSplineSet
EndChar

StartChar: oslash
Encoding: 248 248 368
Width: 1265
VWidth: 0
Flags: HW
PickledData: "(dp1
S'org.robofab.postScriptHintData'
p2
(dp3
sS'com.typemytype.robofont.layerData'
p4
(dp5
S'b'
(dp6
S'name'
p7
S'oslash'
p8
sS'lib'
p9
(dp10
sS'unicodes'
p11
(tsS'width'
p12
F1255
sS'contours'
p13
(tsS'components'
p14
(tsS'anchors'
p15
(tsss."
LayerCount: 2
Fore
SplineSet
743 855 m 1
 450 221 l 1
 373 285 338 392 338 514 c 0
 338 716 435 871 638 871 c 0
 677 871 712 866 743 855 c 1
836 799 m 1
 904 735 936 632 936 514 c 0
 936 317 846 159 639 159 c 0
 605 159 574 163 546 171 c 1
 836 799 l 1
640 -23 m 0
 989 -23 1170 218 1170 511 c 0
 1170 721 1088 897 923 987 c 1
 1006 1167 l 1
 907 1211 l 1
 823 1028 l 1
 769 1044 708 1052 641 1052 c 0
 291 1052 104 817 104 513 c 0
 104 306 192 127 366 38 c 1
 272 -166 l 1
 371 -209 l 1
 467 -1 l 1
 519 -15 577 -23 640 -23 c 0
EndSplineSet
EndChar

StartChar: p
Encoding: 112 112 371
Width: 1267
VWidth: 0
Flags: HW
PickledData: "(dp1
S'org.robofab.postScriptHintData'
p2
(dp3
sS'com.typemytype.robofont.layerData'
p4
(dp5
S'b'
(dp6
S'name'
p7
S'p'
sS'lib'
p8
(dp9
sS'unicodes'
p10
(tsS'width'
p11
F1260.25
sS'contours'
p12
(tsS'components'
p13
(tsS'anchors'
p14
(tsss."
AnchorPoint: "top" 680 1026 basechar 0
LayerCount: 2
Fore
SplineSet
656 159 m 0
 846 159 930 318 930 516 c 0
 930 717 841 871 657 871 c 0
 470 871 378 715 378 511 c 0
 378 316 465 159 656 159 c 0
166 -405 m 1
 166 703 l 2
 166 797 157 920 151 1026 c 1
 388 1026 l 1
 388 867 l 1
 411 948 538 1052 711 1052 c 0
 992 1052 1164 816 1164 525 c 0
 1164 232 992 -23 703 -23 c 0
 530 -23 408 81 388 149 c 1
 388 -405 l 1
 166 -405 l 1
EndSplineSet
EndChar

StartChar: paragraph
Encoding: 182 182 372
Width: 1220
VWidth: 0
Flags: HW
PickledData: "(dp1
S'org.robofab.postScriptHintData'
p2
(dp3
sS'com.typemytype.robofont.layerData'
p4
(dp5
S'b'
(dp6
S'name'
p7
S'paragraph'
p8
sS'lib'
p9
(dp10
sS'unicodes'
p11
(tsS'width'
p12
F1211.95
sS'contours'
p13
(tsS'components'
p14
(tsS'anchors'
p15
(tsss."
LayerCount: 2
Fore
SplineSet
446 -178 m 1
 446 799 l 1
 240 812 109 929 109 1131 c 0
 109 1389 306 1455 584 1455 c 2
 1062 1455 l 1
 1062 1283 l 1
 969 1283 l 1
 969 -178 l 1
 795 -178 l 1
 795 1283 l 1
 621 1283 l 1
 621 -178 l 1
 446 -178 l 1
EndSplineSet
EndChar

StartChar: parenleft
Encoding: 40 40 373
Width: 669
VWidth: 0
Flags: HW
PickledData: "(dp1
S'org.robofab.postScriptHintData'
p2
(dp3
sS'com.typemytype.robofont.layerData'
p4
(dp5
S'b'
(dp6
S'name'
p7
S'parenleft'
p8
sS'lib'
p9
(dp10
sS'unicodes'
p11
(tsS'width'
p12
F639.35000000000002
sS'contours'
p13
(tsS'components'
p14
(tsS'anchors'
p15
(tsss."
LayerCount: 2
Fore
SplineSet
408 -171 m 1
 249 70 126 372 126 665 c 0
 126 972 235 1253 401 1516 c 1
 619 1516 l 1
 448 1247 350 948 350 663 c 0
 350 399 460 85 619 -171 c 1
 408 -171 l 1
EndSplineSet
EndChar

StartChar: parenright
Encoding: 41 41 374
Width: 669
VWidth: 0
Flags: HW
PickledData: "(dp1
S'org.robofab.postScriptHintData'
p2
(dp3
sS'com.typemytype.robofont.layerData'
p4
(dp5
S'b'
(dp6
S'name'
p7
S'parenright'
p8
sS'lib'
p9
(dp10
sS'unicodes'
p11
(tsS'width'
p12
F639.35000000000002
sS'contours'
p13
(tsS'components'
p14
(tsS'anchors'
p15
(tsss."
LayerCount: 2
Fore
SplineSet
51 -191 m 1
 222 78 320 377 320 661 c 0
 320 925 210 1239 51 1496 c 1
 261 1496 l 1
 421 1254 544 953 544 660 c 0
 544 353 435 72 269 -191 c 1
 51 -191 l 1
EndSplineSet
EndChar

StartChar: partialdiff
Encoding: 8706 8706 375
Width: 1162
VWidth: 0
Flags: HW
PickledData: "(dp1
S'org.robofab.postScriptHintData'
p2
(dp3
sS'com.typemytype.robofont.layerData'
p4
(dp5
S'b'
(dp6
S'name'
p7
S'partialdiff'
p8
sS'lib'
p9
(dp10
sS'unicodes'
p11
(tsS'width'
p12
F1163.95
sS'contours'
p13
(tsS'components'
p14
(tsS'anchors'
p15
(tsss."
LayerCount: 2
Fore
SplineSet
482 159 m 0
 653 159 771 301 818 648 c 1
 781 737 695 824 591 824 c 0
 419 824 286 637 286 422 c 0
 286 264 361 159 482 159 c 0
482 -24 m 0
 202 -24 57 172 57 426 c 0
 57 749 291 1002 576 1002 c 0
 712 1002 808 931 835 866 c 1
 835 874 835 946 834 954 c 0
 825 1183 716 1327 551 1327 c 0
 421 1327 313 1273 257 1241 c 1
 243 1406 l 1
 329 1467 450 1507 568 1507 c 0
 876 1507 1066 1299 1066 832 c 0
 1066 409 876 -24 482 -24 c 0
EndSplineSet
EndChar

StartChar: percent
Encoding: 37 37 377
Width: 1845
VWidth: 0
Flags: HW
PickledData: "(dp1
S'org.robofab.postScriptHintData'
p2
(dp3
sS'com.typemytype.robofont.layerData'
p4
(dp5
S'b'
(dp6
S'name'
p7
S'percent'
p8
sS'lib'
p9
(dp10
sS'unicodes'
p11
(tsS'width'
p12
F1769.3
sS'contours'
p13
(tsS'components'
p14
(tsS'anchors'
p15
(tsss."
LayerCount: 2
Fore
SplineSet
1392 -22 m 0
 1169 -22 1034 140 1034 355 c 0
 1034 563 1169 732 1393 732 c 0
 1618 732 1750 564 1750 355 c 0
 1750 141 1615 -22 1392 -22 c 0
1393 122 m 0
 1508 122 1559 201 1559 355 c 0
 1559 502 1514 589 1393 589 c 0
 1271 589 1226 500 1226 354 c 0
 1226 199 1278 122 1393 122 c 0
372 0 m 1
 1297 1456 l 1
 1484 1456 l 1
 557 0 l 1
 372 0 l 1
453 723 m 0
 229 723 95 868 95 1100 c 0
 95 1324 229 1478 453 1478 c 0
 678 1478 811 1326 811 1100 c 0
 811 869 676 723 453 723 c 0
453 867 m 0
 568 867 620 946 620 1101 c 0
 620 1247 574 1334 453 1334 c 0
 332 1334 286 1246 286 1100 c 0
 286 945 338 867 453 867 c 0
EndSplineSet
EndChar

StartChar: period
Encoding: 46 46 378
Width: 541
VWidth: 0
Flags: HW
PickledData: "(dp1
S'org.robofab.postScriptHintData'
p2
(dp3
sS'com.typemytype.robofont.layerData'
p4
(dp5
s."
LayerCount: 2
Fore
SplineSet
127 0 m 1
 127 253 l 1
 395 253 l 1
 395 0 l 1
 127 0 l 1
EndSplineSet
EndChar

StartChar: periodcentered
Encoding: 183 183 379
Width: 546
VWidth: 0
Flags: HW
PickledData: "(dp1
S'org.robofab.postScriptHintData'
p2
(dp3
sS'com.typemytype.robofont.layerData'
p4
(dp5
S'b'
(dp6
S'name'
p7
S'middot'
p8
sS'lib'
p9
(dp10
sS'unicodes'
p11
(tsS'width'
p12
I509
sS'contours'
p13
(tsS'components'
p14
(tsS'anchors'
p15
(tsss."
LayerCount: 2
Fore
SplineSet
247 533 m 1
 247 775 l 1
 501 775 l 1
 501 533 l 1
 247 533 l 1
EndSplineSet
EndChar

StartChar: perthousand
Encoding: 8240 8240 380
Width: 2683
VWidth: 0
Flags: HW
PickledData: "(dp1
S'org.robofab.postScriptHintData'
p2
(dp3
sS'com.typemytype.robofont.layerData'
p4
(dp5
S'b'
(dp6
S'name'
p7
S'perthousand'
p8
sS'lib'
p9
(dp10
sS'unicodes'
p11
(tsS'width'
p12
F2581.1999999999998
sS'contours'
p13
(tsS'components'
p14
(tsS'anchors'
p15
(tsss."
LayerCount: 2
Fore
SplineSet
2230 -22 m 0
 2006 -22 1872 140 1872 355 c 0
 1872 563 2007 732 2231 732 c 0
 2456 732 2589 564 2589 355 c 0
 2589 141 2453 -22 2230 -22 c 0
2230 122 m 0
 2345 122 2397 201 2397 355 c 0
 2397 502 2352 589 2231 589 c 0
 2110 589 2064 500 2064 354 c 0
 2064 199 2115 122 2230 122 c 0
EndSplineSet
Refer: 377 37 N 1 0 0 1 0 0 2
EndChar

StartChar: pi
Encoding: 960 960 381
Width: 1288
VWidth: 0
Flags: HW
PickledData: "(dp1
S'org.robofab.postScriptHintData'
p2
(dp3
sS'com.typemytype.robofont.layerData'
p4
(dp5
S'b'
(dp6
S'name'
p7
S'pi'
p8
sS'lib'
p9
(dp10
sS'unicodes'
p11
(tsS'width'
p12
F1288
sS'contours'
p13
(tsS'components'
p14
(tsS'anchors'
p15
(tsss."
LayerCount: 2
Fore
SplineSet
172 0 m 1
 273 171 299 561 310 860 c 1
 191 857 106 830 65 799 c 1
 48 963 l 1
 90 998 187 1026 331 1026 c 2
 1214 1026 l 1
 1214 860 l 1
 1011 860 l 1
 1011 307 l 2
 1011 247 1012 162 1108 162 c 0
 1129 162 1161 166 1198 175 c 1
 1198 -2 l 1
 1151 -11 1092 -16 1053 -16 c 0
 898 -16 803 65 803 270 c 2
 803 860 l 1
 514 860 l 1
 514 860 491 160 396 0 c 1
 172 0 l 1
EndSplineSet
EndChar

StartChar: plus
Encoding: 43 43 382
Width: 1242
VWidth: 0
Flags: HW
PickledData: "(dp1
S'org.robofab.postScriptHintData'
p2
(dp3
sS'com.typemytype.robofont.layerData'
p4
(dp5
S'b'
(dp6
S'name'
p7
S'plus'
p8
sS'lib'
p9
(dp10
sS'unicodes'
p11
(tsS'width'
p12
F1206.9000000000001
sS'contours'
p13
(tsS'components'
p14
(tsS'anchors'
p15
(tsss."
LayerCount: 2
Fore
SplineSet
516 87 m 1
 516 488 l 1
 135 488 l 1
 135 676 l 1
 517 676 l 1
 517 1073 l 1
 726 1073 l 1
 726 676 l 1
 1108 676 l 1
 1108 488 l 1
 725 488 l 1
 725 87 l 1
 516 87 l 1
EndSplineSet
EndChar

StartChar: plusminus
Encoding: 177 177 383
Width: 1256
VWidth: 0
Flags: HW
PickledData: "(dp1
S'org.robofab.postScriptHintData'
p2
(dp3
sS'com.typemytype.robofont.layerData'
p4
(dp5
S'b'
(dp6
S'name'
p7
S'plusminus'
p8
sS'lib'
p9
(dp10
sS'unicodes'
p11
(tsS'width'
p12
F1234.75
sS'contours'
p13
(tsS'components'
p14
(tsS'anchors'
p15
(tsss."
LayerCount: 2
Fore
SplineSet
188 0 m 1
 188 160 l 1
 1072 160 l 1
 1072 0 l 1
 188 0 l 1
521 277 m 1
 521 592 l 1
 192 592 l 1
 192 776 l 1
 517 776 l 1
 517 1095 l 1
 728 1095 l 1
 728 776 l 1
 1062 776 l 1
 1062 592 l 1
 736 592 l 1
 736 277 l 1
 521 277 l 1
EndSplineSet
EndChar

StartChar: product
Encoding: 8719 8719 384
Width: 1568
VWidth: 0
Flags: HW
PickledData: "(dp1
S'org.robofab.postScriptHintData'
p2
(dp3
sS'com.typemytype.robofont.guides'
p4
(tsS'com.typemytype.robofont.layerData'
p5
(dp6
S'b'
(dp7
S'name'
p8
S'product'
p9
sS'lib'
p10
(dp11
sS'unicodes'
p12
(tsS'width'
p13
F1568
sS'contours'
p14
(tsS'components'
p15
(tsS'anchors'
p16
(tsss."
LayerCount: 2
Fore
SplineSet
239 -100 m 1
 239 1271 l 1
 80 1271 l 1
 80 1456 l 1
 1440 1456 l 1
 1441 1271 l 1
 1308 1271 l 1
 1308 -100 l 1
 1061 -100 l 1
 1061 1271 l 1
 480 1271 l 1
 480 -100 l 1
 239 -100 l 1
EndSplineSet
EndChar

StartChar: q
Encoding: 113 113 385
Width: 1256
VWidth: 0
Flags: HW
PickledData: "(dp1
S'org.robofab.postScriptHintData'
p2
(dp3
sS'com.typemytype.robofont.layerData'
p4
(dp5
S'b'
(dp6
S'name'
p7
S'q'
sS'lib'
p8
(dp9
sS'unicodes'
p10
(tsS'width'
p11
F1254.3
sS'contours'
p12
(tsS'components'
p13
(tsS'anchors'
p14
(tsss."
LayerCount: 2
Fore
SplineSet
612 159 m 0
 804 159 890 318 890 519 c 0
 890 717 799 871 614 871 c 0
 427 871 337 716 337 514 c 0
 337 317 421 159 612 159 c 0
880 -405 m 1
 880 108 l 1
 808 35 702 -23 583 -23 c 0
 268 -23 103 230 103 522 c 0
 103 815 278 1052 587 1052 c 0
 695 1052 805 1001 882 904 c 1
 882 1026 l 1
 1111 1026 l 1
 1105 950 1101 826 1101 754 c 2
 1101 -405 l 1
 880 -405 l 1
EndSplineSet
EndChar

StartChar: question
Encoding: 63 63 386
Width: 1034
VWidth: 0
Flags: HW
PickledData: "(dp1
S'org.robofab.postScriptHintData'
p2
(dp3
sS'com.typemytype.robofont.layerData'
p4
(dp5
S'b'
(dp6
S'name'
p7
S'question'
p8
sS'lib'
p9
(dp10
sS'unicodes'
p11
(tsS'width'
p12
F1055.9000000000001
sS'contours'
p13
(tsS'components'
p14
(tsS'anchors'
p15
(tsss."
LayerCount: 2
Fore
SplineSet
305 0 m 1
 305 251 l 1
 550 251 l 1
 550 0 l 1
 305 0 l 1
331 399 m 1
 331 538 l 2
 331 794 691 910 691 1119 c 0
 691 1241 593 1288 470 1288 c 0
 351 1288 222 1242 174 1218 c 1
 174 1413 l 1
 211 1431 331 1483 493 1483 c 0
 728 1483 924 1367 924 1126 c 0
 924 825 512 739 512 476 c 2
 512 399 l 1
 331 399 l 1
EndSplineSet
EndChar

StartChar: quotedbl
Encoding: 34 34 388
Width: 737
VWidth: 0
Flags: HW
PickledData: "(dp1
S'org.robofab.postScriptHintData'
p2
(dp3
sS'com.typemytype.robofont.layerData'
p4
(dp5
S'b'
(dp6
S'name'
p7
S'quotedbl'
p8
sS'lib'
p9
(dp10
sS'unicodes'
p11
(tsS'width'
p12
F785.64999999999998
sS'contours'
p13
(tsS'components'
p14
(tsS'anchors'
p15
(tsss."
LayerCount: 2
Fore
SplineSet
472 959 m 1
 423 1456 l 1
 645 1456 l 1
 602 959 l 1
 472 959 l 1
143 959 m 1
 94 1456 l 1
 315 1456 l 1
 272 959 l 1
 143 959 l 1
EndSplineSet
EndChar

StartChar: quotedblbase
Encoding: 8222 8222 389
Width: 1024
VWidth: 0
Flags: HW
PickledData: "(dp1
S'org.robofab.postScriptHintData'
p2
(dp3
s."
LayerCount: 2
Fore
SplineSet
501 -226 m 1
 611 244 l 1
 858 244 l 1
 693 -226 l 1
 501 -226 l 1
113 -226 m 1
 222 244 l 1
 469 244 l 1
 309 -226 l 1
 113 -226 l 1
EndSplineSet
EndChar

StartChar: quotedblleft
Encoding: 8220 8220 390
Width: 1024
VWidth: 0
Flags: HW
PickledData: "(dp1
S'org.robofab.postScriptHintData'
p2
(dp3
sS'com.typemytype.robofont.layerData'
p4
(dp5
S'b'
(dp6
S'name'
p7
S'quotedblleft'
p8
sS'lib'
p9
(dp10
sS'unicodes'
p11
(tsS'width'
p12
F1024
sS'contours'
p13
(tsS'components'
p14
(tsS'anchors'
p15
(tsss."
LayerCount: 2
Fore
SplineSet
574 871 m 1
 745 1456 l 1
 933 1456 l 1
 822 871 l 1
 574 871 l 1
144 871 m 1
 325 1456 l 1
 512 1456 l 1
 400 871 l 1
 144 871 l 1
EndSplineSet
EndChar

StartChar: quotedblright
Encoding: 8221 8221 391
Width: 1024
VWidth: 0
Flags: HW
PickledData: "(dp1
S'org.robofab.postScriptHintData'
p2
(dp3
sS'com.typemytype.robofont.layerData'
p4
(dp5
S'b'
(dp6
S'name'
p7
S'quotedblright'
p8
sS'lib'
p9
(dp10
sS'unicodes'
p11
(tsS'width'
p12
F1024
sS'contours'
p13
(tsS'components'
p14
(tsS'anchors'
p15
(tsss."
LayerCount: 2
Fore
SplineSet
576 871 m 1
 686 1456 l 1
 932 1456 l 1
 767 871 l 1
 576 871 l 1
186 871 m 1
 294 1456 l 1
 542 1456 l 1
 377 871 l 1
 186 871 l 1
EndSplineSet
EndChar

StartChar: quoteleft
Encoding: 8216 8216 392
Width: 552
VWidth: 0
Flags: HW
PickledData: "(dp1
S'org.robofab.postScriptHintData'
p2
(dp3
sS'com.typemytype.robofont.layerData'
p4
(dp5
S'b'
(dp6
S'name'
p7
S'quoteleft'
p8
sS'lib'
p9
(dp10
sS'unicodes'
p11
(tsS'width'
p12
F518.5
sS'contours'
p13
(tsS'components'
p14
(tsS'anchors'
p15
(tsss."
LayerCount: 2
Fore
SplineSet
292 871 m 1
 130 1456 l 1
 394 1456 l 1
 436 871 l 1
 292 871 l 1
EndSplineSet
EndChar

StartChar: quoteright
Encoding: 8217 8217 393
Width: 593
VWidth: 0
Flags: HW
PickledData: "(dp1
S'org.robofab.postScriptHintData'
p2
(dp3
sS'com.typemytype.robofont.layerData'
p4
(dp5
S'b'
(dp6
S'name'
p7
S'quoteright'
p8
sS'lib'
p9
(dp10
g4
(dp11
S'b'
(dp12
g7
S'quoteleft'
p13
sg9
(dp14
sS'unicodes'
p15
(tsS'width'
p16
I494
sS'contours'
p17
(tsS'components'
p18
(tsS'anchors'
p19
(tssssg15
(tsg16
F537.25
sg17
((dp20
S'points'
p21
((dp22
S'segmentType'
p23
S'line'
p24
sS'x'
F416
sS'smooth'
p25
I00
sS'y'
F888
s(dp26
g23
S'line'
p27
sS'x'
F300
sg25
I00
sS'y'
F888
s(dp28
g23
S'line'
p29
sS'x'
F150
sg25
I00
sS'y'
F1456
s(dp30
g23
S'line'
p31
sS'x'
F360
sg25
I00
sS'y'
F1456
stp32
stp33
sg18
(tsg19
(tsss."
LayerCount: 2
Fore
SplineSet
116 872 m 1
 202 1456 l 1
 462 1456 l 1
 280 872 l 1
 116 872 l 1
EndSplineSet
EndChar

StartChar: quotesinglbase
Encoding: 8218 8218 394
Width: 654
VWidth: 0
Flags: HW
PickledData: "(dp1
S'org.robofab.postScriptHintData'
p2
(dp3
sS'com.typemytype.robofont.layerData'
p4
(dp5
S'b'
(dp6
S'name'
p7
S'quotesinglbase'
p8
sS'lib'
p9
(dp10
sS'unicodes'
p11
(tsS'width'
p12
F595.70000000000005
sS'contours'
p13
(tsS'components'
p14
(tsS'anchors'
p15
(tsss."
LayerCount: 2
Fore
SplineSet
149 -321 m 1
 262 244 l 1
 505 244 l 1
 343 -321 l 1
 149 -321 l 1
EndSplineSet
EndChar

StartChar: quotesingle
Encoding: 39 39 395
Width: 494
VWidth: 0
Flags: HW
PickledData: "(dp1
S'org.robofab.postScriptHintData'
p2
(dp3
sS'com.typemytype.robofont.layerData'
p4
(dp5
S'b'
(dp6
S'name'
p7
S'quotesingle'
p8
sS'lib'
p9
(dp10
sS'unicodes'
p11
(tsS'width'
p12
F507.85000000000002
sS'contours'
p13
(tsS'components'
p14
(tsS'anchors'
p15
(tsss."
LayerCount: 2
Fore
SplineSet
182 926 m 1
 143 1456 l 1
 377 1456 l 1
 344 926 l 1
 182 926 l 1
EndSplineSet
EndChar

StartChar: r
Encoding: 114 114 396
Width: 798
VWidth: 0
Flags: HW
PickledData: "(dp1
S'org.robofab.postScriptHintData'
p2
(dp3
sS'com.typemytype.robofont.layerData'
p4
(dp5
S'b'
(dp6
S'name'
p7
S'r'
sS'lib'
p8
(dp9
sS'unicodes'
p10
(tsS'width'
p11
F818.89999999999998
sS'contours'
p12
(tsS'components'
p13
(tsS'anchors'
p14
(tsss."
AnchorPoint: "bot" 316 0 basechar 0
AnchorPoint: "top" 492 1026 basechar 0
LayerCount: 2
Fore
SplineSet
168 0 m 1
 168 770 l 2
 168 864 152 1026 152 1026 c 1
 390 1026 l 1
 390 881 l 1
 459 987 542 1052 652 1052 c 0
 685 1052 720 1047 756 1037 c 1
 756 840 l 1
 718 853 676 860 636 860 c 0
 496 860 393 764 393 577 c 2
 393 0 l 1
 168 0 l 1
EndSplineSet
EndChar

StartChar: radical
Encoding: 8730 8730 398
Width: 1314
VWidth: 0
Flags: HW
PickledData: "(dp1
S'org.robofab.postScriptHintData'
p2
(dp3
sS'com.typemytype.robofont.layerData'
p4
(dp5
s."
LayerCount: 2
Fore
SplineSet
607 -146 m 1
 294 651 l 1
 291 650 130 621 130 621 c 1
 93 781 l 1
 441 839 l 1
 680 199 l 1
 1048 1566 l 1
 1248 1566 l 1
 792 -146 l 1
 607 -146 l 1
EndSplineSet
EndChar

StartChar: registered
Encoding: 174 174 402
Width: 1719
VWidth: 0
Flags: HW
PickledData: "(dp1
S'org.robofab.postScriptHintData'
p2
(dp3
sS'com.typemytype.robofont.layerData'
p4
(dp5
S'b'
(dp6
S'name'
p7
S'registered'
p8
sS'lib'
p9
(dp10
sS'unicodes'
p11
(tsS'width'
p12
F1727.05
sS'contours'
p13
(tsS'components'
p14
(tsS'anchors'
p15
(tsss."
LayerCount: 2
Fore
SplineSet
859 -22 m 0
 445 -22 106 316 106 730 c 0
 106 1145 445 1483 859 1483 c 0
 1274 1483 1613 1145 1613 730 c 0
 1613 316 1274 -22 859 -22 c 0
859 87 m 0
 1207 87 1485 379 1485 727 c 0
 1485 1076 1207 1371 859 1371 c 0
 510 1371 233 1076 233 727 c 0
 233 379 510 87 859 87 c 0
723 784 m 1
 825 784 l 2
 959 784 1035 805 1035 903 c 0
 1035 1011 998 1023 835 1023 c 2
 723 1023 l 1
 723 784 l 1
529 286 m 1
 529 1177 l 1
 833 1177 l 2
 1115 1177 1233 1084 1233 915 c 0
 1233 810 1194 707 1044 671 c 1
 1240 286 l 1
 1025 286 l 1
 861 642 l 1
 724 642 l 1
 724 286 l 1
 529 286 l 1
EndSplineSet
EndChar

StartChar: ring
Encoding: 730 730 403
Width: 672
VWidth: 0
Flags: HW
PickledData: "(dp1
S'org.robofab.postScriptHintData'
p2
(dp3
sS'com.typemytype.robofont.layerData'
p4
(dp5
S'b'
(dp6
S'name'
p7
S'ring'
p8
sS'lib'
p9
(dp10
sS'unicodes'
p11
(tsS'width'
p12
F633.35000000000002
sS'contours'
p13
(tsS'components'
p14
(tsS'anchors'
p15
(tsss."
AnchorPoint: "top" 331 1500 basechar 0
AnchorPoint: "top" 337 1026 mark 0
LayerCount: 2
Fore
SplineSet
332 1135 m 0
 214 1135 118 1223 118 1342 c 0
 118 1462 214 1549 332 1549 c 0
 449 1549 545 1462 545 1342 c 0
 545 1223 449 1135 332 1135 c 0
331 1233 m 0
 390 1233 438 1282 438 1342 c 0
 438 1402 390 1450 331 1450 c 0
 273 1450 225 1402 225 1342 c 0
 225 1282 273 1233 331 1233 c 0
EndSplineSet
EndChar

StartChar: s
Encoding: 115 115 405
Width: 988
VWidth: 0
Flags: HW
PickledData: "(dp1
S'org.robofab.postScriptHintData'
p2
(dp3
sS'com.typemytype.robofont.layerData'
p4
(dp5
S'b'
(dp6
S'name'
p7
S's'
sS'lib'
p8
(dp9
sS'unicodes'
p10
(tsS'width'
p11
F981.89999999999998
sS'contours'
p12
((dp13
S'points'
p14
((dp15
S'segmentType'
p16
S'curve'
p17
sS'x'
F498
sS'smooth'
p18
I01
sS'y'
F-23
s(dp19
S'y'
F-23
sS'x'
F282
sg18
I00
s(dp20
S'y'
F70
sS'x'
F145
sg18
I00
s(dp21
g16
S'curve'
p22
sS'x'
F116
sg18
I00
sS'y'
F94
s(dp23
g16
S'line'
p24
sS'x'
F160
sg18
I00
sS'y'
F222
s(dp25
S'y'
F189
sS'x'
F208
sg18
I00
s(dp26
S'y'
F109
sS'x'
F348
sg18
I00
s(dp27
g16
S'curve'
p28
sS'x'
F484
sg18
I01
sS'y'
F109
s(dp29
S'y'
F109
sS'x'
F589
sg18
I00
s(dp30
S'y'
F141
sS'x'
F711
sg18
I00
s(dp31
g16
S'curve'
p32
sS'x'
F711
sg18
I01
sS'y'
F272
s(dp33
S'y'
F395
sS'x'
F711
sg18
I00
s(dp34
S'y'
F426
sS'x'
F561
sg18
I00
s(dp35
g16
S'curve'
p36
sS'x'
F412
sg18
I00
sS'y'
F474
s(dp37
S'y'
F521
sS'x'
F262
sg18
I00
s(dp38
S'y'
F585
sS'x'
F112
sg18
I00
s(dp39
g16
S'curve'
p40
sS'x'
F112
sg18
I01
sS'y'
F771
s(dp41
S'y'
F970
sS'x'
F112
sg18
I00
s(dp42
S'y'
F1051
sS'x'
F318
sg18
I00
s(dp43
g16
S'curve'
p44
sS'x'
F488
sg18
I01
sS'y'
F1051
s(dp45
S'y'
F1051
sS'x'
F715
sg18
I00
s(dp46
S'y'
F991
sS'x'
F792
sg18
I00
s(dp47
g16
S'curve'
p48
sS'x'
F832
sg18
I00
sS'y'
F966
s(dp49
g16
S'line'
p50
sS'x'
F785
sg18
I00
sS'y'
F851
s(dp51
S'y'
F858
sS'x'
F772
sg18
I00
s(dp52
S'y'
F917
sS'x'
F667
sg18
I00
s(dp53
g16
S'curve'
p54
sS'x'
F504
sg18
I01
sS'y'
F917
s(dp55
S'y'
F917
sS'x'
F355
sg18
I00
s(dp56
S'y'
F882
sS'x'
F283
sg18
I00
s(dp57
g16
S'curve'
p58
sS'x'
F283
sg18
I01
sS'y'
F774
s(dp59
S'y'
F660
sS'x'
F283
sg18
I00
s(dp60
S'y'
F629
sS'x'
F433
sg18
I00
s(dp61
g16
S'curve'
p62
sS'x'
F582
sg18
I01
sS'y'
F581
s(dp63
S'y'
F533
sS'x'
F732
sg18
I00
s(dp64
S'y'
F468
sS'x'
F881
sg18
I00
s(dp65
g16
S'curve'
p66
sS'x'
F881
sg18
I01
sS'y'
F284
s(dp67
S'y'
F62
sS'x'
F881
sg18
I00
s(dp68
S'y'
F-23
sS'x'
F685
sg18
I00
stp69
stp70
sS'components'
p71
(tsS'anchors'
p72
(tsss."
AnchorPoint: "bot" 530 0 basechar 0
AnchorPoint: "top" 498 1026 basechar 0
LayerCount: 2
Fore
SplineSet
530 -23 m 0
 330 -23 183 53 118 104 c 1
 176 268 l 1
 251 211 386 156 512 156 c 0
 614 156 690 188 690 287 c 0
 690 354 656 379 496 433 c 2
 400 466 l 2
 242 520 125 578 125 759 c 0
 125 969 309 1050 499 1050 c 0
 643 1050 773 1010 857 955 c 1
 797 799 l 1
 738 830 621 873 521 873 c 0
 407 873 344 838 344 767 c 0
 344 701 375 682 514 633 c 0
 523 630 603 602 615 598 c 0
 783 539 899 481 899 288 c 0
 899 55 704 -23 530 -23 c 0
EndSplineSet
EndChar

StartChar: section
Encoding: 167 167 412
Width: 1090
VWidth: 0
Flags: HW
PickledData: "(dp1
S'org.robofab.postScriptHintData'
p2
(dp3
sS'com.typemytype.robofont.layerData'
p4
(dp5
S'b'
(dp6
S'name'
p7
S'section'
p8
sS'lib'
p9
(dp10
sS'unicodes'
p11
(tsS'width'
p12
F1071.6500000000001
sS'contours'
p13
(tsS'components'
p14
(tsS'anchors'
p15
(tsss."
LayerCount: 2
Fore
SplineSet
631 564 m 1
 661 592 694 636 694 691 c 0
 694 782 608 808 496 861 c 1
 466 843 401 792 401 731 c 0
 401 654 487 627 631 564 c 1
514 -67 m 0
 410 -67 298 -47 195 -8 c 1
 195 179 l 1
 295 137 410 112 502 112 c 0
 613 112 691 157 691 244 c 0
 691 305 614 338 393 442 c 0
 261 503 179 593 179 712 c 0
 179 810 248 899 337 951 c 1
 256 1010 202 1079 202 1187 c 0
 202 1388 379 1481 589 1481 c 0
 682 1481 776 1468 868 1437 c 1
 868 1265 l 1
 803 1284 708 1314 622 1314 c 0
 523 1314 437 1279 437 1199 c 0
 437 1133 515 1077 663 1010 c 1
 808 939 933 866 933 722 c 0
 933 624 869 542 784 479 c 1
 867 432 926 358 926 250 c 0
 926 36 738 -67 514 -67 c 0
EndSplineSet
EndChar

StartChar: semicolon
Encoding: 59 59 413
Width: 541
VWidth: 0
Flags: HW
PickledData: "(dp1
S'org.robofab.postScriptHintData'
p2
(dp3
sS'com.typemytype.robofont.layerData'
p4
(dp5
s."
LayerCount: 2
Fore
SplineSet
177 858 m 1
 177 1111 l 1
 419 1111 l 1
 419 858 l 1
 177 858 l 1
78 -251 m 1
 186 250 l 1
 440 250 l 1
 266 -251 l 1
 78 -251 l 1
EndSplineSet
EndChar

StartChar: seven
Encoding: 55 55 414
Width: 1256
VWidth: 0
Flags: HW
PickledData: "(dp1
S'org.robofab.postScriptHintData'
p2
(dp3
sS'com.typemytype.robofont.layerData'
p4
(dp5
s."
LayerCount: 2
Fore
SplineSet
331 0 m 1
 862 1266 l 1
 157 1266 l 1
 157 1456 l 1
 1126 1456 l 1
 1126 1282 l 1
 577 0 l 1
 331 0 l 1
EndSplineSet
EndChar

StartChar: six
Encoding: 54 54 415
Width: 1256
VWidth: 0
Flags: HW
PickledData: "(dp1
S'org.robofab.postScriptHintData'
p2
(dp3
sS'com.typemytype.robofont.layerData'
p4
(dp5
s."
LayerCount: 2
Fore
SplineSet
672 174 m 0
 830 174 928 302 928 469 c 0
 928 636 845 766 679 766 c 0
 512 766 404 645 404 481 c 0
 404 288 527 174 672 174 c 0
675 -23 m 0
 319 -23 148 267 148 696 c 0
 148 1128 344 1483 728 1483 c 0
 875 1483 999 1439 1086 1359 c 1
 1010 1188 l 1
 928 1253 834 1286 730 1286 c 0
 516 1286 401 1061 389 790 c 1
 465 900 573 954 703 954 c 0
 979 954 1165 767 1165 472 c 0
 1165 191 977 -23 675 -23 c 0
EndSplineSet
EndChar

StartChar: slash
Encoding: 47 47 416
Width: 838
VWidth: 0
Flags: HW
PickledData: "(dp1
S'org.robofab.postScriptHintData'
p2
(dp3
sS'com.typemytype.robofont.layerData'
p4
(dp5
s."
LayerCount: 2
Fore
SplineSet
35 -101 m 1
 628 1456 l 1
 832 1456 l 1
 234 -101 l 1
 35 -101 l 1
EndSplineSet
EndChar

StartChar: softhyphen
Encoding: 173 173 418
Width: 717
VWidth: 0
Flags: HW
PickledData: "(dp1
S'org.robofab.postScriptHintData'
p2
(dp3
s."
LayerCount: 2
Fore
SplineSet
58 469 m 1
 58 641 l 1
 660 641 l 1
 660 469 l 1
 58 469 l 1
EndSplineSet
EndChar

StartChar: sterling
Encoding: 163 163 420
Width: 1235
VWidth: 0
Flags: HW
PickledData: "(dp1
S'org.robofab.postScriptHintData'
p2
(dp3
sS'com.typemytype.robofont.layerData'
p4
(dp5
S'b'
(dp6
S'name'
p7
S'sterling'
p8
sS'lib'
p9
(dp10
sS'unicodes'
p11
(tsS'width'
p12
F1207.3
sS'contours'
p13
(tsS'components'
p14
(tsS'anchors'
p15
(tsss."
LayerCount: 2
Fore
SplineSet
824 1298 m 0
 640 1298 561 1198 561 961 c 2
 561 834 l 1
 909 834 l 1
 909 673 l 1
 562 673 l 1
 562 606 l 2
 562 408 511 262 451 186 c 1
 1108 186 l 1
 1108 0 l 1
 152 0 l 1
 152 172 l 1
 240 246 337 346 337 610 c 2
 337 673 l 1
 150 673 l 1
 150 834 l 1
 334 834 l 1
 334 910 l 2
 334 1225 419 1482 804 1482 c 0
 937 1482 1032 1457 1112 1409 c 1
 1055 1237 l 1
 987 1269 918 1298 824 1298 c 0
EndSplineSet
EndChar

StartChar: summation
Encoding: 8721 8721 421
Width: 1236
VWidth: 0
Flags: HW
PickledData: "(dp1
S'org.robofab.postScriptHintData'
p2
(dp3
sS'com.typemytype.robofont.layerData'
p4
(dp5
S'b'
(dp6
S'name'
p7
S'summation'
p8
sS'lib'
p9
(dp10
sS'unicodes'
p11
(tsS'width'
p12
F1198.3
sS'contours'
p13
(tsS'components'
p14
(tsS'anchors'
p15
(tsss."
LayerCount: 2
Fore
SplineSet
114 -179 m 1
 114 -60 l 1
 619 646 l 1
 136 1340 l 1
 136 1456 l 1
 1108 1456 l 1
 1108 1274 l 1
 441 1274 l 1
 876 650 l 1
 422 9 l 1
 1150 9 l 1
 1150 -179 l 1
 114 -179 l 1
EndSplineSet
EndChar

StartChar: t
Encoding: 116 116 422
Width: 820
VWidth: 0
Flags: HW
PickledData: "(dp1
S'org.robofab.postScriptHintData'
p2
(dp3
sS'com.typemytype.robofont.layerData'
p4
(dp5
S'b'
(dp6
S'name'
p7
S't'
sS'lib'
p8
(dp9
sS'unicodes'
p10
(tsS'width'
p11
F763.89999999999998
sS'contours'
p12
(tsS'components'
p13
(tsS'anchors'
p14
(tsss."
AnchorPoint: "bot" 510 0 basechar 0
AnchorPoint: "caron.alt" 257 1316 basechar 0
AnchorPoint: "top" 350 1320 basechar 0
LayerCount: 2
Fore
SplineSet
734 1 m 1
 638 1 l 2
 364 1 227 58 227 368 c 2
 227 876 l 1
 23 876 l 1
 23 1026 l 1
 233 1026 l 1
 233 1276 l 1
 450 1341 l 1
 450 1026 l 1
 730 1026 l 1
 730 876 l 1
 450 876 l 1
 450 355 l 2
 450 192 504 173 734 173 c 1
 734 1 l 1
EndSplineSet
EndChar

StartChar: thorn
Encoding: 254 254 427
Width: 1231
VWidth: 0
Flags: HW
PickledData: "(dp1
S'org.robofab.postScriptHintData'
p2
(dp3
sS'com.typemytype.robofont.layerData'
p4
(dp5
s."
LayerCount: 2
Fore
SplineSet
626 157 m 0
 816 157 896 330 896 521 c 0
 896 701 831 869 633 869 c 0
 428 869 359 690 359 494 c 0
 359 300 450 157 626 157 c 0
146 -405 m 1
 146 1462 l 1
 362 1462 l 1
 361 916 l 1
 420 1000 549 1051 656 1051 c 0
 975 1051 1132 808 1132 525 c 0
 1132 240 976 -23 656 -23 c 0
 542 -23 426 20 360 96 c 1
 359 -405 l 1
 146 -405 l 1
EndSplineSet
EndChar

StartChar: three
Encoding: 51 51 428
Width: 1256
VWidth: 0
Flags: HW
PickledData: "(dp1
S'org.robofab.postScriptHintData'
p2
(dp3
sS'com.typemytype.robofont.layerData'
p4
(dp5
S'b'
(dp6
S'name'
p7
S'three'
p8
sS'lib'
p9
(dp10
sS'unicodes'
p11
(tsS'width'
p12
F1234.0999999999999
sS'contours'
p13
((dp14
S'points'
p15
((dp16
S'segmentType'
p17
S'curve'
p18
sS'x'
F344
sS'smooth'
p19
I01
sS'y'
F1010
s(dp20
S'y'
F827
sS'x'
F344
sg19
I00
s(dp21
S'y'
F687
sS'x'
F423
sg19
I00
s(dp22
g17
S'curve'
p23
sS'x'
F634
sg19
I01
sS'y'
F687
s(dp24
S'y'
F687
sS'x'
F814
sg19
I00
s(dp25
S'y'
F803
sS'x'
F938
sg19
I00
s(dp26
g17
S'curve'
p27
sS'x'
F938
sg19
I01
sS'y'
F991
s(dp28
S'y'
F1166
sS'x'
F938
sg19
I00
s(dp29
S'y'
F1334
sS'x'
F845
sg19
I00
s(dp30
g17
S'curve'
p31
sS'x'
F635
sg19
I01
sS'y'
F1334
s(dp32
S'y'
F1334
sS'x'
F449
sg19
I00
s(dp33
S'y'
F1196
sS'x'
F344
sg19
I00
stp34
s(dp35
g15
((dp36
g17
S'curve'
p37
sS'x'
F594
sg19
I01
sS'y'
F-24
s(dp38
S'y'
F-24
sS'x'
F473
sg19
I00
s(dp39
S'y'
F-1
sS'x'
F367
sg19
I00
s(dp40
g17
S'curve'
p41
sS'x'
F238
sg19
I00
sS'y'
F65
s(dp42
g17
S'line'
p43
sS'x'
F287
sg19
I00
sS'y'
F197
s(dp44
S'y'
F138
sS'x'
F401
sg19
I00
s(dp45
S'y'
F124
sS'x'
F489
sg19
I00
s(dp46
g17
S'curve'
p47
sS'x'
F581
sg19
I01
sS'y'
F124
s(dp48
S'y'
F124
sS'x'
F812
sg19
I00
s(dp49
S'y'
F308
sS'x'
F950
sg19
I00
s(dp50
g17
S'curve'
p51
sS'x'
F950
sg19
I01
sS'y'
F657
s(dp52
g17
S'line'
p53
sS'x'
F950
sg19
I00
sS'y'
F722
s(dp54
S'y'
F600
sS'x'
F886
sg19
I00
s(dp55
S'y'
F544
sS'x'
F772
sg19
I00
s(dp56
g17
S'curve'
p57
sS'x'
F607
sg19
I01
sS'y'
F544
s(dp58
S'y'
F544
sS'x'
F328
sg19
I00
s(dp59
S'y'
F735
sS'x'
F168
sg19
I00
s(dp60
g17
S'curve'
p61
sS'x'
F168
sg19
I01
sS'y'
F1004
s(dp62
S'y'
F1275
sS'x'
F168
sg19
I00
s(dp63
S'y'
F1483
sS'x'
F341
sg19
I00
s(dp64
g17
S'curve'
p65
sS'x'
F643
sg19
I01
sS'y'
F1483
s(dp66
S'y'
F1483
sS'x'
F969
sg19
I00
s(dp67
S'y'
F1231
sS'x'
F1125
sg19
I00
s(dp68
g17
S'curve'
p69
sS'x'
F1125
sg19
I01
sS'y'
F774
s(dp70
S'y'
F203
sS'x'
F1125
sg19
I00
s(dp71
S'y'
F-24
sS'x'
F894
sg19
I00
stp72
stp73
sS'components'
p74
(tsS'anchors'
p75
(tsss."
LayerCount: 2
Fore
SplineSet
606 -23 m 0
 332 -23 175 90 171 92 c 1
 240 267 l 1
 250 262 404 174 575 174 c 0
 759 174 868 267 868 418 c 0
 868 588 719 663 492 663 c 0
 485 663 478 663 470 663 c 2
 404 661 l 1
 402 856 l 1
 470 856 l 2
 717 856 829 914 829 1101 c 0
 829 1227 696 1286 565 1286 c 0
 400 1286 302 1211 246 1172 c 1
 143 1333 l 1
 272 1433 382 1483 595 1483 c 0
 830 1483 1060 1358 1060 1105 c 0
 1060 949 975 800 790 765 c 1
 984 729 1094 587 1094 409 c 0
 1094 138 870 -23 606 -23 c 0
EndSplineSet
EndChar

StartChar: threequarters
Encoding: 190 190 429
Width: 2376
VWidth: 0
Flags: HW
PickledData: "(dp1
S'org.robofab.postScriptHintData'
p2
(dp3
sS'com.typemytype.robofont.layerData'
p4
(dp5
s."
LayerCount: 2
Fore
SplineSet
1452 319 m 1
 1658 319 l 1
 1658 609 l 1
 1452 319 l 1
598 0 m 1
 1489 1456 l 1
 1684 1456 l 1
 794 0 l 1
 598 0 l 1
1660 1 m 1
 1660 193 l 1
 1289 193 l 1
 1289 300 l 1
 1657 808 l 1
 1824 808 l 1
 1824 319 l 1
 1941 319 l 1
 1941 193 l 1
 1824 193 l 1
 1824 1 l 1
 1660 1 l 1
512 603 m 0
 411 603 308 636 229 697 c 1
 290 814 l 1
 369 762 440 738 499 738 c 0
 588 738 644 793 644 869 c 0
 644 941 579 984 470 984 c 2
 388 984 l 1
 388 1115 l 1
 466 1115 l 2
 556 1115 622 1157 622 1222 c 0
 622 1292 569 1330 494 1330 c 0
 430 1330 355 1305 281 1260 c 1
 222 1370 l 1
 310 1428 419 1460 519 1460 c 0
 665 1460 789 1390 789 1242 c 0
 789 1176 757 1101 646 1064 c 1
 769 1030 816 949 816 866 c 0
 816 688 673 603 512 603 c 0
EndSplineSet
EndChar

StartChar: threesuperior
Encoding: 179 179 430
Width: 1025
VWidth: 0
Flags: HW
PickledData: "(dp1
S'org.robofab.postScriptHintData'
p2
(dp3
sS'com.typemytype.robofont.layerData'
p4
(dp5
s."
LayerCount: 2
Fore
SplineSet
544 602 m 0
 444 602 340 635 263 697 c 1
 323 815 l 1
 400 762 473 738 532 738 c 0
 622 738 678 789 678 866 c 0
 678 941 610 984 499 984 c 2
 420 984 l 1
 420 1116 l 1
 495 1116 l 2
 587 1116 655 1153 655 1221 c 0
 655 1293 605 1326 529 1326 c 0
 464 1326 387 1301 315 1255 c 1
 256 1368 l 1
 342 1426 452 1459 550 1459 c 0
 696 1459 818 1387 818 1239 c 0
 818 1172 790 1095 673 1061 c 1
 798 1030 845 947 845 863 c 0
 845 688 705 602 544 602 c 0
EndSplineSet
EndChar

StartChar: tilde
Encoding: 732 732 431
Width: 711
VWidth: 0
Flags: HW
PickledData: "(dp1
S'org.robofab.postScriptHintData'
p2
(dp3
sS'com.typemytype.robofont.layerData'
p4
(dp5
S'b'
(dp6
S'name'
p7
S'tilde'
p8
sS'lib'
p9
(dp10
sS'unicodes'
p11
(tsS'width'
p12
F672.35000000000002
sS'contours'
p13
(tsS'components'
p14
(tsS'anchors'
p15
(tsss."
AnchorPoint: "top" 392 1026 mark 0
LayerCount: 2
Fore
SplineSet
503 1166 m 0
 410 1166 282 1271 216 1271 c 0
 183 1271 153 1243 146 1171 c 1
 2 1171 l 1
 2 1332 83 1442 206 1442 c 0
 325 1442 429 1338 502 1338 c 0
 538 1338 561 1360 562 1442 c 1
 710 1442 l 1
 710 1261 631 1166 503 1166 c 0
EndSplineSet
EndChar

StartChar: trademark
Encoding: 8482 8482 432
Width: 1869
VWidth: 0
Flags: HW
PickledData: "(dp1
S'org.robofab.postScriptHintData'
p2
(dp3
sS'com.typemytype.robofont.layerData'
p4
(dp5
S'b'
(dp6
S'name'
p7
S'trademark'
p8
sS'lib'
p9
(dp10
sS'unicodes'
p11
(tsS'width'
p12
F1869
sS'contours'
p13
(tsS'components'
p14
(tsS'anchors'
p15
(tsss."
LayerCount: 2
Fore
SplineSet
303 658 m 1
 303 1286 l 1
 73 1286 l 1
 73 1436 l 1
 707 1436 l 1
 707 1286 l 1
 477 1286 l 1
 477 658 l 1
 303 658 l 1
819 658 m 1
 819 1436 l 1
 1017 1436 l 1
 1256 904 l 1
 1495 1436 l 1
 1692 1436 l 1
 1692 658 l 1
 1526 658 l 1
 1526 1161 l 1
 1308 658 l 1
 1200 658 l 1
 980 1152 l 1
 980 658 l 1
 819 658 l 1
EndSplineSet
EndChar

StartChar: two
Encoding: 50 50 433
Width: 1256
VWidth: 0
Flags: HW
PickledData: "(dp1
S'org.robofab.postScriptHintData'
p2
(dp3
sS'com.typemytype.robofont.layerData'
p4
(dp5
S'b'
(dp6
S'name'
p7
S'two'
p8
sS'lib'
p9
(dp10
sS'unicodes'
p11
(tsS'width'
p12
F1244.5
sS'contours'
p13
(tsS'components'
p14
(tsS'anchors'
p15
(tsss."
LayerCount: 2
Fore
SplineSet
602 1481 m 0
 861 1481 1049 1315 1049 1025 c 0
 1049 809 929 657 772 493 c 2
 480 190 l 1
 1041 190 l 1
 1041 0 l 1
 199 0 l 1
 199 173 l 1
 626 629 l 2
 766 778 827 876 827 1009 c 0
 827 1192 731 1286 584 1286 c 0
 397 1286 220 1158 219 1158 c 2
 144 1339 l 1
 144 1339 328 1481 602 1481 c 0
EndSplineSet
EndChar

StartChar: twosuperior
Encoding: 178 178 434
Width: 1120
VWidth: 0
Flags: HW
PickledData: "(dp1
S'org.robofab.postScriptHintData'
p2
(dp3
sS'com.typemytype.robofont.layerData'
p4
(dp5
s."
LayerCount: 2
Fore
SplineSet
289 615 m 1
 289 755 l 1
 556 998 l 2
 661 1094 695 1160 695 1211 c 0
 695 1276 647 1307 577 1307 c 0
 504 1307 419 1271 353 1215 c 1
 283 1345 l 1
 365 1419 478 1460 588 1460 c 0
 744 1460 872 1380 872 1213 c 0
 872 1093 778 984 661 882 c 2
 530 769 l 1
 863 769 l 1
 863 615 l 1
 289 615 l 1
EndSplineSet
EndChar

StartChar: u
Encoding: 117 117 435
Width: 1206
VWidth: 0
Flags: HW
PickledData: "(dp1
S'org.robofab.postScriptHintData'
p2
(dp3
sS'com.typemytype.robofont.layerData'
p4
(dp5
S'b'
(dp6
S'name'
p7
S'u'
sS'lib'
p8
(dp9
sS'unicodes'
p10
(tsS'width'
p11
F1227.2
sS'contours'
p12
(tsS'components'
p13
(tsS'anchors'
p14
(tsss."
AnchorPoint: "top" 601 1026 basechar 0
LayerCount: 2
Fore
SplineSet
538 -23 m 0
 272 -23 142 146 142 382 c 2
 142 1026 l 1
 364 1026 l 1
 364 384 l 2
 364 230 446 159 581 159 c 0
 740 159 825 244 825 413 c 2
 825 1026 l 1
 1049 1026 l 1
 1049 268 l 2
 1049 204 1058 14 1059 0 c 1
 829 0 l 1
 825 156 l 1
 797 91 712 -23 538 -23 c 0
EndSplineSet
EndChar

StartChar: underscore
Encoding: 95 95 446
Width: 984
VWidth: 0
Flags: HW
PickledData: "(dp1
S'org.robofab.postScriptHintData'
p2
(dp3
sS'com.typemytype.robofont.layerData'
p4
(dp5
s."
LayerCount: 2
Fore
SplineSet
-10 -260 m 1
 -10 -83 l 1
 995 -83 l 1
 995 -260 l 1
 -10 -260 l 1
EndSplineSet
EndChar

StartChar: uni0307
Encoding: 775 775 459
Width: 524
VWidth: 0
Flags: HW
PickledData: "(dp1
S'org.robofab.postScriptHintData'
p2
(dp3
s."
AnchorPoint: "top" 264 1026 mark 0
LayerCount: 2
Fore
SplineSet
154 1221 m 1
 154 1426 l 1
 370 1426 l 1
 370 1221 l 1
 154 1221 l 1
EndSplineSet
EndChar

StartChar: uni030F
Encoding: 783 783 460
Width: 969
VWidth: 0
Flags: HW
PickledData: "(dp1
S'org.robofab.postScriptHintData'
p2
(dp3
s."
AnchorPoint: "top" 620 1026 mark 0
LayerCount: 2
Fore
SplineSet
703 1170 m 1
 410 1550 l 1
 650 1550 l 1
 860 1170 l 1
 703 1170 l 1
365 1170 m 1
 32 1550 l 1
 281 1550 l 1
 527 1170 l 1
 365 1170 l 1
EndSplineSet
EndChar

StartChar: uni0311
Encoding: 785 785 461
Width: 629
VWidth: 0
Flags: HW
PickledData: "(dp1
S'org.robofab.postScriptHintData'
p2
(dp3
sS'com.typemytype.robofont.layerData'
p4
(dp5
s."
AnchorPoint: "top" 315 1026 mark 0
LayerCount: 2
Fore
SplineSet
18 1173 m 1
 32 1353 151 1440 314 1440 c 0
 478 1440 596 1354 610 1173 c 1
 469 1173 l 1
 457 1264 382 1295 316 1295 c 0
 248 1295 172 1263 161 1173 c 1
 18 1173 l 1
EndSplineSet
EndChar

StartChar: uni0312
Encoding: 786 786 462
Width: 600
VWidth: 0
Flags: HW
PickledData: "(dp1
S'org.robofab.postScriptHintData'
p2
(dp3
s."
AnchorPoint: "top" 291 1026 mark 0
LayerCount: 2
Fore
SplineSet
544 1704 m 1
 434 1203 l 1
 182 1203 l 1
 356 1704 l 1
 544 1704 l 1
EndSplineSet
EndChar

StartChar: uni0326
Encoding: 806 806 463
Width: 540
VWidth: 0
Flags: HW
PickledData: "(dp1
S'org.robofab.postScriptHintData'
p2
(dp3
s."
AnchorPoint: "bot" 324 0 mark 0
LayerCount: 2
Fore
SplineSet
88 -631 m 1
 199 -138 l 1
 452 -138 l 1
 276 -631 l 1
 88 -631 l 1
EndSplineSet
EndChar

StartChar: uni2015
Encoding: 8213 8213 464
Width: 4097
VWidth: 0
Flags: HW
PickledData: "(dp1
S'org.robofab.postScriptHintData'
p2
(dp3
s."
LayerCount: 2
Fore
SplineSet
58 463 m 1
 58 637 l 1
 4039 637 l 1
 4039 463 l 1
 58 463 l 1
EndSplineSet
EndChar

StartChar: v
Encoding: 118 118 469
Width: 1102
VWidth: 0
Flags: HW
PickledData: "(dp1
S'org.robofab.postScriptHintData'
p2
(dp3
sS'com.typemytype.robofont.layerData'
p4
(dp5
S'b'
(dp6
S'name'
p7
S'v'
sS'lib'
p8
(dp9
sS'unicodes'
p10
(tsS'width'
p11
F1056.8
sS'contours'
p12
(tsS'components'
p13
(tsS'anchors'
p14
(tsss."
LayerCount: 2
Fore
SplineSet
447 0 m 1
 15 1026 l 1
 263 1026 l 1
 362 765 461 504 560 243 c 1
 652 507 750 765 845 1026 c 1
 1086 1026 l 1
 654 0 l 1
 447 0 l 1
EndSplineSet
EndChar

StartChar: w
Encoding: 119 119 470
Width: 1669
VWidth: 0
Flags: HW
PickledData: "(dp1
S'org.robofab.postScriptHintData'
p2
(dp3
sS'com.typemytype.robofont.layerData'
p4
(dp5
S'b'
(dp6
S'name'
p7
S'w'
sS'lib'
p8
(dp9
sS'unicodes'
p10
(tsS'width'
p11
F1634.0999999999999
sS'contours'
p12
(tsS'components'
p13
(tsS'anchors'
p14
(tsss."
AnchorPoint: "top" 858 1026 basechar 0
LayerCount: 2
Fore
SplineSet
382 0 m 1
 22 1026 l 1
 260 1026 l 1
 339 774 418 522 498 271 c 1
 583 522 667 774 752 1026 c 1
 954 1026 l 1
 1035 774 1116 521 1197 269 c 1
 1276 522 1356 774 1436 1026 c 1
 1647 1026 l 1
 1276 0 l 1
 1083 0 l 1
 1001 246 918 491 838 738 c 1
 751 492 663 246 576 0 c 1
 382 0 l 1
EndSplineSet
EndChar

StartChar: x
Encoding: 120 120 475
Width: 1048
VWidth: 0
Flags: HW
PickledData: "(dp1
S'org.robofab.postScriptHintData'
p2
(dp3
sS'com.fontlab.hintData'
p4
(dp5
S'hhints'
p6
((dp7
S'position'
p8
I0
sS'width'
p9
I21
s(dp10
g8
I1006
sg9
I20
stp11
ssS'com.typemytype.robofont.layerData'
p12
(dp13
S'b'
(dp14
S'name'
p15
S'x'
sS'lib'
p16
(dp17
sS'unicodes'
p18
(tsg9
F1062.8499999999999
sS'contours'
p19
(tsS'components'
p20
(tsS'anchors'
p21
(tsss."
HStem: 0 21<29 264 264 264 774 1019 1019 1019> 1006 20<48 294 48 48 783 1015 783 783>
LayerCount: 2
Fore
SplineSet
29 0 m 1
 401 504 l 1
 48 1026 l 1
 294 1026 l 1
 527 675 l 1
 783 1026 l 1
 1015 1026 l 1
 651 530 l 1
 1019 0 l 1
 774 0 l 1
 526 359 l 1
 264 0 l 1
 29 0 l 1
EndSplineSet
EndChar

StartChar: y
Encoding: 121 121 476
Width: 1098
VWidth: 0
Flags: HW
PickledData: "(dp1
S'org.robofab.postScriptHintData'
p2
(dp3
sS'com.typemytype.robofont.layerData'
p4
(dp5
S'b'
(dp6
S'name'
p7
S'y'
sS'lib'
p8
(dp9
sS'unicodes'
p10
(tsS'width'
p11
F1065.05
sS'contours'
p12
(tsS'components'
p13
(tsS'anchors'
p14
(tsss."
AnchorPoint: "top" 575 1026 basechar 0
LayerCount: 2
Fore
SplineSet
236 -441 m 1
 142 -289 l 1
 330 -219 416 -136 448 -31 c 1
 462 19 l 1
 34 1026 l 1
 266 1026 l 1
 571 258 l 1
 843 1026 l 1
 1070 1026 l 1
 654 -56 l 2
 573 -266 413 -389 236 -441 c 1
EndSplineSet
EndChar

StartChar: yen
Encoding: 165 165 480
Width: 1258
VWidth: 0
Flags: HW
PickledData: "(dp1
S'org.robofab.postScriptHintData'
p2
(dp3
sS'com.typemytype.robofont.layerData'
p4
(dp5
S'b'
(dp6
S'name'
p7
S'yen'
p8
sS'lib'
p9
(dp10
sS'unicodes'
p11
(tsS'width'
p12
F1225.45
sS'contours'
p13
(tsS'components'
p14
(tsS'anchors'
p15
(tsss."
LayerCount: 2
Fore
SplineSet
507 0 m 1
 737 0 l 1
 737 269 l 1
 1101 269 l 1
 1101 417 l 1
 737 417 l 1
 737 549 l 1
 1100 549 l 1
 1100 703 l 1
 816 703 l 1
 1262 1456 l 1
 998 1456 l 1
 626 771 l 1
 255 1456 l 1
 -4 1456 l 1
 429 703 l 1
 159 703 l 1
 159 549 l 1
 507 549 l 1
 507 417 l 1
 159 417 l 1
 159 269 l 1
 507 269 l 1
 507 0 l 1
EndSplineSet
EndChar

StartChar: z
Encoding: 122 122 484
Width: 987
VWidth: 0
Flags: HW
PickledData: "(dp1
S'org.robofab.postScriptHintData'
p2
(dp3
sS'com.typemytype.robofont.layerData'
p4
(dp5
S'b'
(dp6
S'name'
p7
S'z'
sS'lib'
p8
(dp9
sS'unicodes'
p10
(tsS'width'
p11
F971.85000000000002
sS'contours'
p12
(tsS'components'
p13
(tsS'anchors'
p14
(tsss."
AnchorPoint: "top" 534 1026 basechar 0
LayerCount: 2
Fore
SplineSet
103 0 m 1
 103 119 l 1
 601 846 l 1
 122 846 l 1
 122 1026 l 1
 891 1026 l 1
 891 909 l 1
 391 179 l 1
 915 179 l 1
 915 0 l 1
 103 0 l 1
EndSplineSet
EndChar

StartChar: zero
Encoding: 48 48 488
Width: 1256
VWidth: 0
Flags: HW
PickledData: "(dp1
S'org.robofab.postScriptHintData'
p2
(dp3
sS'com.typemytype.robofont.layerData'
p4
(dp5
s."
LayerCount: 2
Fore
SplineSet
630 -23 m 0
 300 -23 124 286 124 737 c 0
 124 1203 299 1483 632 1483 c 0
 965 1483 1132 1191 1132 737 c 0
 1132 287 965 -23 630 -23 c 0
634 174 m 0
 832 174 895 412 895 736 c 0
 895 1029 833 1286 633 1286 c 0
 428 1286 360 1029 360 737 c 0
 360 412 428 174 634 174 c 0
EndSplineSet
EndChar

StartChar: mu
Encoding: 181 181 493
Width: 1203
VWidth: 0
Flags: HW
LayerCount: 2
Fore
SplineSet
365 -241 m 1
 139 -241 l 1
 139 1026 l 1
 360 1026 l 1
 362 422 l 2
 362 249 428 158 573 158 c 0
 731 158 821 233 821 419 c 2
 821 1026 l 1
 1046 1026 l 1
 1046 262 l 2
 1046 176 1051 70 1059 0 c 1
 827 0 l 1
 823 155 l 1
 778 49 669 -23 538 -23 c 0
 471 -23 407 -7 365 21 c 1
 365 -241 l 1
EndSplineSet
EndChar
